SplineFontDB: 3.0
FontName: Gabriela-Regular
FullName: Gabriela
FamilyName: Gabriela
Weight: Book
Copyright: Copyright (c) 2013, Eduardo Tunni (http://www.tipo.net.ar), with Reserved Font Name 'Gabriela'
Version: 1.002
ItalicAngle: 0
UnderlinePosition: -50
UnderlineWidth: 50
Ascent: 800
Descent: 200
sfntRevision: 0x00010083
LayerCount: 2
Layer: 0 1 "Back"  1
Layer: 1 1 "Fore"  0
XUID: [1021 139 483002181 3245462]
FSType: 0
OS2Version: 3
OS2_WeightWidthSlopeOnly: 0
OS2_UseTypoMetrics: 1
CreationTime: 1272128580
ModificationTime: 1362176947
PfmFamily: 17
TTFWeight: 400
TTFWidth: 5
LineGap: 0
VLineGap: 0
Panose: 2 0 5 3 6 0 0 2 0 3
OS2TypoAscent: 986
OS2TypoAOffset: 0
OS2TypoDescent: -295
OS2TypoDOffset: 0
OS2TypoLinegap: 0
OS2WinAscent: 986
OS2WinAOffset: 0
OS2WinDescent: 295
OS2WinDOffset: 0
HheadAscent: 986
HheadAOffset: 0
HheadDescent: -295
HheadDOffset: 0
OS2SubXSize: 650
OS2SubYSize: 600
OS2SubXOff: 0
OS2SubYOff: 75
OS2SupXSize: 650
OS2SupYSize: 600
OS2SupXOff: 0
OS2SupYOff: 350
OS2StrikeYSize: 50
OS2StrikeYPos: 298
OS2Vendor: 'pyrs'
OS2CodePages: 20000001.00000000
OS2UnicodeRanges: 800000ef.4000204b.00000000.00000000
Lookup: 4 0 1 "'liga' Standard Ligatures in Latin lookup 0"  {"'liga' Standard Ligatures in Latin lookup 0 subtable"  } ['liga' ('latn' <'dflt' > ) ]
Lookup: 6 0 0 "'calt' Contextual Alternates in Latin lookup 1"  {"'calt' Contextual Alternates in Latin lookup 1 contextual 0"  "'calt' Contextual Alternates in Latin lookup 1 contextual 1"  } ['calt' ('latn' <'dflt' > ) ]
Lookup: 1 0 0 "'ss01' Style Set 1 in Latin lookup 2"  {"'ss01' Style Set 1 in Latin lookup 2 subtable"  } ['ss01' ('latn' <'dflt' > ) ]
Lookup: 1 0 0 "'salt' Stylistic Alternatives in Latin lookup 3"  {"'salt' Stylistic Alternatives in Latin lookup 3 subtable"  } ['salt' ('latn' <'dflt' > ) ]
Lookup: 1 0 0 "Single Substitution lookup 4"  {"Single Substitution lookup 4 subtable"  } []

StartChar: exclam
Encoding: 33 33 4
Width: 246
GlyphClass: 2
Flags: W
LayerCount: 2
Fore
SplineSet
62 51 m 128,-1,1
 62 70 62 70 83.5 93.5 c 128,-1,2
 105 117 105 117 123.5 117 c 128,-1,3
 142 117 142 117 164 94 c 128,-1,4
 186 71 186 71 186 51.5 c 128,-1,5
 186 32 186 32 164 9 c 128,-1,6
 142 -14 142 -14 124 -14 c 128,-1,7
 106 -14 106 -14 84 9 c 128,-1,0
 62 32 62 32 62 51 c 128,-1,1
60 742 m 1,8,9
 82 767 82 767 122 767 c 128,-1,10
 162 767 162 767 186 742 c 1,11,12
 186 623 186 623 148 243 c 0,13,14
 143 198 143 198 123 198 c 128,-1,15
 103 198 103 198 98 243 c 0,16,17
 60 623 60 623 60 742 c 1,8,9
EndSplineSet
EndChar

StartChar: quotedbl
Encoding: 34 34 5
Width: 343
GlyphClass: 2
Flags: W
LayerCount: 2
Fore
SplineSet
89 834 m 128,-1,1
 122 834 122 834 140 804 c 1,2,3
 140 721 140 721 109 591 c 0,4,5
 104 572 104 572 89 572 c 128,-1,6
 74 572 74 572 69 591 c 0,7,8
 38 720 38 720 38 804 c 1,9,0
 56 834 56 834 89 834 c 128,-1,1
254 834 m 128,-1,11
 287 834 287 834 305 804 c 1,12,13
 305 721 305 721 274 591 c 0,14,15
 269 572 269 572 254 572 c 128,-1,16
 239 572 239 572 234 591 c 0,17,18
 203 720 203 720 203 804 c 1,19,10
 221 834 221 834 254 834 c 128,-1,11
EndSplineSet
EndChar

StartChar: numbersign
Encoding: 35 35 6
Width: 696
GlyphClass: 2
Flags: W
LayerCount: 2
Fore
SplineSet
106 424 m 1,0,-1
 124 490 l 1,1,-1
 224 490 l 1,2,-1
 287 718 l 1,3,-1
 359 718 l 1,4,-1
 296 490 l 1,5,-1
 474 490 l 1,6,-1
 537 718 l 1,7,-1
 609 718 l 1,8,-1
 546 490 l 1,9,-1
 646 490 l 1,10,-1
 627 424 l 1,11,-1
 527 424 l 1,12,-1
 490 290 l 1,13,-1
 590 290 l 1,14,-1
 571 224 l 1,15,-1
 471 224 l 1,16,-1
 409 0 l 1,17,-1
 338 0 l 1,18,-1
 400 224 l 1,19,-1
 221 224 l 1,20,-1
 159 0 l 1,21,-1
 88 0 l 1,22,-1
 150 224 l 1,23,-1
 50 224 l 1,24,-1
 68 290 l 1,25,-1
 168 290 l 1,26,-1
 205 424 l 1,27,-1
 106 424 l 1,0,-1
277 424 m 1,28,-1
 240 290 l 1,29,-1
 418 290 l 1,30,-1
 455 424 l 1,31,-1
 277 424 l 1,28,-1
EndSplineSet
EndChar

StartChar: dollar
Encoding: 36 36 7
Width: 581
GlyphClass: 2
Flags: W
LayerCount: 2
Fore
SplineSet
191.5 86.5 m 128,-1,1
 231 56 231 56 283.5 56 c 128,-1,2
 336 56 336 56 372 86.5 c 128,-1,3
 408 117 408 117 408 169 c 0,4,5
 408 231 408 231 340 270 c 0,6,7
 310 287 310 287 273.5 302.5 c 128,-1,8
 237 318 237 318 200.5 337 c 128,-1,9
 164 356 164 356 134 379.5 c 128,-1,10
 104 403 104 403 85 441 c 128,-1,11
 66 479 66 479 66 529 c 0,12,13
 66 600 66 600 114.5 655.5 c 128,-1,14
 163 711 163 711 253 717 c 1,15,-1
 253 848 l 1,16,17
 272 872 272 872 316 872 c 1,18,-1
 316 715 l 1,19,20
 386 707 386 707 432 672 c 128,-1,21
 478 637 478 637 478 586 c 128,-1,22
 478 535 478 535 447 505 c 128,-1,23
 416 475 416 475 371 475 c 2,24,25
 371 475 371 475 362 475 c 0,26,27
 350 475 350 475 350 487 c 0,28,29
 350 490 350 490 358 500 c 0,30,31
 380 532 380 532 380 573.5 c 128,-1,32
 380 615 380 615 349 638.5 c 128,-1,33
 318 662 318 662 269.5 662 c 128,-1,34
 221 662 221 662 191 630 c 128,-1,35
 161 598 161 598 161 548.5 c 128,-1,36
 161 499 161 499 197 462 c 128,-1,37
 233 425 233 425 284 403.5 c 128,-1,38
 335 382 335 382 386 359.5 c 128,-1,39
 437 337 437 337 473 294 c 128,-1,40
 509 251 509 251 509 181 c 128,-1,41
 509 111 509 111 456 60 c 128,-1,42
 403 9 403 9 316 1 c 1,43,-1
 316 -129 l 1,44,45
 299 -153 299 -153 253 -153 c 1,46,-1
 253 1 l 1,47,48
 168 8 168 8 111 50 c 128,-1,49
 54 92 54 92 54 162 c 0,50,51
 54 209 54 209 84.5 238.5 c 128,-1,52
 115 268 115 268 161 268 c 0,53,54
 176 268 176 268 179 265 c 128,-1,55
 182 262 182 262 182 257.5 c 128,-1,56
 182 253 182 253 174 242 c 0,57,58
 152 211 152 211 152 164 c 128,-1,0
 152 117 152 117 191.5 86.5 c 128,-1,1
EndSplineSet
EndChar

StartChar: percent
Encoding: 37 37 8
Width: 1018
GlyphClass: 2
Flags: W
LayerCount: 2
Fore
SplineSet
395 0 m 1,0,-1
 324 0 l 1,1,-1
 623 718 l 1,2,-1
 695 718 l 1,3,-1
 395 0 l 1,0,-1
609 213 m 0,4,5
 609 309 609 309 659.5 373.5 c 128,-1,6
 710 438 710 438 793.5 438 c 128,-1,7
 877 438 877 438 922.5 378 c 128,-1,8
 968 318 968 318 968 221 c 128,-1,9
 968 124 968 124 917 55 c 128,-1,10
 866 -14 866 -14 780 -14 c 0,11,12
 720 -14 720 -14 679.5 21.5 c 128,-1,13
 639 57 639 57 624 106 c 128,-1,14
 609 155 609 155 609 213 c 0,4,5
717 340.5 m 128,-1,16
 693 290 693 290 693 211.5 c 128,-1,17
 693 133 693 133 717 83 c 128,-1,18
 741 33 741 33 787.5 33 c 128,-1,19
 834 33 834 33 858.5 83.5 c 128,-1,20
 883 134 883 134 883 212 c 128,-1,21
 883 290 883 290 858.5 340.5 c 128,-1,22
 834 391 834 391 787.5 391 c 128,-1,15
 741 391 741 391 717 340.5 c 128,-1,16
50 506 m 0,23,24
 50 602 50 602 100.5 666.5 c 128,-1,25
 151 731 151 731 234.5 731 c 128,-1,26
 318 731 318 731 363.5 671 c 128,-1,27
 409 611 409 611 409 514 c 128,-1,28
 409 417 409 417 358 348 c 128,-1,29
 307 279 307 279 221 279 c 0,30,31
 161 279 161 279 120.5 314.5 c 128,-1,32
 80 350 80 350 65 399 c 128,-1,33
 50 448 50 448 50 506 c 0,23,24
158 633.5 m 128,-1,35
 134 583 134 583 134 504.5 c 128,-1,36
 134 426 134 426 158 376 c 128,-1,37
 182 326 182 326 228.5 326 c 128,-1,38
 275 326 275 326 299.5 376.5 c 128,-1,39
 324 427 324 427 324 505 c 128,-1,40
 324 583 324 583 299.5 633.5 c 128,-1,41
 275 684 275 684 228.5 684 c 128,-1,34
 182 684 182 684 158 633.5 c 128,-1,35
EndSplineSet
EndChar

StartChar: ampersand
Encoding: 38 38 9
Width: 668
GlyphClass: 2
Flags: W
LayerCount: 2
Fore
SplineSet
421 258 m 1,0,-1
 383 257 l 1,1,2
 341 253 341 253 315 240 c 128,-1,3
 289 227 289 227 279 216 c 128,-1,4
 269 205 269 205 263.5 205 c 128,-1,5
 258 205 258 205 251 215.5 c 128,-1,6
 244 226 244 226 244 237 c 0,7,8
 244 288 244 288 328 295 c 0,9,10
 450 305 450 305 486.5 309.5 c 128,-1,11
 523 314 523 314 547 333.5 c 128,-1,12
 571 353 571 353 571 384 c 128,-1,13
 571 415 571 415 557.5 435.5 c 128,-1,14
 544 456 544 456 531 467 c 128,-1,15
 518 478 518 478 518 482 c 0,16,17
 518 497 518 497 562 497 c 128,-1,18
 606 497 606 497 637 468.5 c 128,-1,19
 668 440 668 440 668 394 c 0,20,21
 668 278 668 278 470 262 c 1,22,23
 518 219 518 219 518 154.5 c 128,-1,24
 518 90 518 90 461 38 c 128,-1,25
 404 -14 404 -14 286 -14 c 128,-1,26
 168 -14 168 -14 99 40 c 128,-1,27
 30 94 30 94 30 192 c 0,28,29
 30 260 30 260 77 311.5 c 128,-1,30
 124 363 124 363 212 386 c 1,31,32
 70 421 70 421 70 552 c 0,33,34
 70 625 70 625 135 678.5 c 128,-1,35
 200 732 200 732 317 732 c 0,36,37
 388 732 388 732 436.5 698 c 128,-1,38
 485 664 485 664 485 612 c 0,39,40
 485 573 485 573 461.5 549 c 128,-1,41
 438 525 438 525 398 525 c 0,42,43
 377 525 377 525 377 535 c 0,44,45
 377 537 377 537 382 545 c 0,46,47
 398 568 398 568 398 604 c 128,-1,48
 398 640 398 640 373.5 663 c 128,-1,49
 349 686 349 686 298 686 c 128,-1,50
 247 686 247 686 213.5 648 c 128,-1,51
 180 610 180 610 180 550.5 c 128,-1,52
 180 491 180 491 215 454.5 c 128,-1,53
 250 418 250 418 302 418 c 0,54,55
 308 418 308 418 312 411 c 128,-1,56
 316 404 316 404 316 396 c 0,57,58
 316 376 316 376 303 376 c 1,59,60
 224 356 224 356 184 305.5 c 128,-1,61
 144 255 144 255 144 193.5 c 128,-1,62
 144 132 144 132 184 85.5 c 128,-1,63
 224 39 224 39 291.5 39 c 128,-1,64
 359 39 359 39 402 75 c 128,-1,65
 445 111 445 111 445 168 c 128,-1,66
 445 225 445 225 421 258 c 1,0,-1
EndSplineSet
EndChar

StartChar: quotesingle
Encoding: 39 39 10
Width: 178
GlyphClass: 2
Flags: W
LayerCount: 2
Fore
SplineSet
89 834 m 128,-1,1
 122 834 122 834 140 804 c 1,2,3
 140 721 140 721 109 591 c 0,4,5
 104 572 104 572 89 572 c 128,-1,6
 74 572 74 572 69 591 c 0,7,8
 38 720 38 720 38 804 c 1,9,0
 56 834 56 834 89 834 c 128,-1,1
EndSplineSet
EndChar

StartChar: parenleft
Encoding: 40 40 11
Width: 352
GlyphClass: 2
Flags: W
LayerCount: 2
Fore
SplineSet
166 331 m 128,-1,1
 166 185 166 185 208.5 82 c 128,-1,2
 251 -21 251 -21 321 -67 c 1,3,-1
 321 -112 l 1,4,5
 194 -59 194 -59 126 52.5 c 128,-1,6
 58 164 58 164 58 331 c 128,-1,7
 58 498 58 498 126 609.5 c 128,-1,8
 194 721 194 721 321 774 c 1,9,-1
 321 729 l 1,10,11
 251 683 251 683 208.5 580 c 128,-1,0
 166 477 166 477 166 331 c 128,-1,1
EndSplineSet
EndChar

StartChar: parenright
Encoding: 41 41 12
Width: 352
GlyphClass: 2
Flags: W
LayerCount: 2
Fore
SplineSet
186 331 m 128,-1,1
 186 477 186 477 143.5 580 c 128,-1,2
 101 683 101 683 31 729 c 1,3,-1
 31 774 l 1,4,5
 158 721 158 721 226 609.5 c 128,-1,6
 294 498 294 498 294 331 c 128,-1,7
 294 164 294 164 226 52.5 c 128,-1,8
 158 -59 158 -59 31 -112 c 1,9,-1
 31 -67 l 1,10,11
 101 -21 101 -21 143.5 82 c 128,-1,0
 186 185 186 185 186 331 c 128,-1,1
EndSplineSet
EndChar

StartChar: asterisk
Encoding: 42 42 13
Width: 574
GlyphClass: 2
Flags: W
LayerCount: 2
Fore
SplineSet
267 633 m 1,0,1
 242 772 242 772 236 800 c 1,2,3
 254 830 254 830 287 830 c 128,-1,4
 320 830 320 830 338 800 c 1,5,6
 329 756 329 756 319 700 c 128,-1,7
 309 644 309 644 307 633 c 1,8,9
 433 700 433 700 457 713 c 1,10,11
 504 702 504 702 504 657 c 0,12,13
 504 635 504 635 489 617 c 1,14,15
 433 611 433 611 381 603 c 128,-1,16
 329 595 329 595 319 594 c 1,17,18
 346 567 346 567 442 477 c 1,19,20
 442 448 442 448 426 429.5 c 128,-1,21
 410 411 410 411 391.5 411 c 128,-1,22
 373 411 373 411 361 417 c 1,23,24
 344 454 344 454 319 504.5 c 128,-1,25
 294 555 294 555 287 571 c 1,26,27
 245 486 245 486 213 418 c 1,28,29
 199 412 199 412 187 412 c 0,30,31
 160 412 160 412 145.5 431.5 c 128,-1,32
 131 451 131 451 131 477 c 1,33,34
 164 507 164 507 205 547 c 128,-1,35
 246 587 246 587 254 594 c 1,36,37
 243 596 243 596 214 600 c 128,-1,38
 185 604 185 604 152.5 608.5 c 128,-1,39
 120 613 120 613 86 617 c 1,40,41
 70 634 70 634 70 655.5 c 128,-1,42
 70 677 70 677 83 693 c 128,-1,43
 96 709 96 709 117 714 c 1,44,45
 157 691 157 691 212 662 c 2,46,-1
 267 633 l 1,0,1
EndSplineSet
EndChar

StartChar: plus
Encoding: 43 43 14
Width: 621
GlyphClass: 2
Flags: W
LayerCount: 2
Fore
SplineSet
99 319 m 1,0,-1
 99 395 l 1,1,-1
 273 395 l 1,2,-1
 273 569 l 1,3,-1
 348 569 l 1,4,-1
 348 395 l 1,5,-1
 522 395 l 1,6,-1
 522 319 l 1,7,-1
 348 319 l 1,8,-1
 348 146 l 1,9,-1
 273 146 l 1,10,-1
 273 319 l 1,11,-1
 99 319 l 1,0,-1
EndSplineSet
EndChar

StartChar: comma
Encoding: 44 44 15
Width: 191
GlyphClass: 2
Flags: W
LayerCount: 2
Fore
SplineSet
92 119 m 0,0,1
 157 119 157 119 157 52 c 0,2,3
 157 24 157 24 136.5 -6.5 c 128,-1,4
 116 -37 116 -37 75 -81 c 2,5,-1
 36 -123 l 1,6,-1
 7 -104 l 1,7,-1
 53 -14 l 2,8,9
 65 10 65 10 65 28.5 c 128,-1,10
 65 47 65 47 42 64 c 1,11,-1
 24 76 l 1,12,-1
 19 100 l 1,13,-1
 36 107 l 2,14,15
 67 119 67 119 92 119 c 0,0,1
EndSplineSet
EndChar

StartChar: hyphen
Encoding: 45 45 16
Width: 355
GlyphClass: 2
Flags: W
LayerCount: 2
Fore
SplineSet
296 262 m 1,0,-1
 33 252 l 1,1,2
 33 301 33 301 59 322 c 1,3,-1
 322 332 l 1,4,5
 322 282 322 282 296 262 c 1,0,-1
EndSplineSet
EndChar

StartChar: period
Encoding: 46 46 17
Width: 191
GlyphClass: 2
Flags: W
LayerCount: 2
Fore
SplineSet
33 51 m 128,-1,1
 33 70 33 70 54.5 93.5 c 128,-1,2
 76 117 76 117 94.5 117 c 128,-1,3
 113 117 113 117 135 94 c 128,-1,4
 157 71 157 71 157 51.5 c 128,-1,5
 157 32 157 32 135 9 c 128,-1,6
 113 -14 113 -14 95 -14 c 128,-1,7
 77 -14 77 -14 55 9 c 128,-1,0
 33 32 33 32 33 51 c 128,-1,1
EndSplineSet
EndChar

StartChar: slash
Encoding: 47 47 18
Width: 371
GlyphClass: 2
Flags: W
LayerCount: 2
Fore
SplineSet
71 -63 m 1,0,-1
 0 -63 l 1,1,-1
 299 781 l 1,2,-1
 371 781 l 1,3,-1
 71 -63 l 1,0,-1
EndSplineSet
EndChar

StartChar: zero
Encoding: 48 48 19
Width: 693
GlyphClass: 2
Flags: W
LayerCount: 2
Fore
SplineSet
141.5 625.5 m 128,-1,1
 223 732 223 732 356.5 732 c 128,-1,2
 490 732 490 732 561.5 633 c 128,-1,3
 633 534 633 534 633 373.5 c 128,-1,4
 633 213 633 213 552.5 99.5 c 128,-1,5
 472 -14 472 -14 334 -14 c 0,6,7
 260 -14 260 -14 205 19 c 128,-1,8
 150 52 150 52 120 108 c 0,9,10
 60 216 60 216 60 367.5 c 128,-1,0
 60 519 60 519 141.5 625.5 c 128,-1,1
212 586 m 128,-1,12
 166 497 166 497 166 358.5 c 128,-1,13
 166 220 166 220 212 131.5 c 128,-1,14
 258 43 258 43 345 43 c 128,-1,15
 432 43 432 43 479 132 c 128,-1,16
 526 221 526 221 526 358 c 128,-1,17
 526 495 526 495 479 585 c 128,-1,18
 432 675 432 675 345 675 c 128,-1,11
 258 675 258 675 212 586 c 128,-1,12
EndSplineSet
EndChar

StartChar: one
Encoding: 49 49 20
Width: 418
GlyphClass: 2
Flags: W
LayerCount: 2
Fore
SplineSet
291 201 m 2,0,1
 291 141 291 141 301 104 c 128,-1,2
 311 67 311 67 336 34 c 2,3,-1
 349 16 l 1,4,-1
 336 0 l 1,5,-1
 97 0 l 1,6,-1
 85 34 l 1,7,-1
 128 45 l 2,8,9
 167 55 167 55 179.5 71.5 c 128,-1,10
 192 88 192 88 192 133 c 2,11,-1
 192 615 l 1,12,-1
 69 537 l 1,13,14
 28 545 28 545 0 605 c 1,15,-1
 277 734 l 1,16,17
 301 728 301 728 317 697 c 1,18,-1
 291 680 l 1,19,-1
 291 201 l 2,0,1
EndSplineSet
EndChar

StartChar: two
Encoding: 50 50 21
Width: 596
GlyphClass: 2
Flags: W
LayerCount: 2
Fore
SplineSet
394 422 m 0,0,1
 422 480 422 480 422 544 c 128,-1,2
 422 608 422 608 383.5 642 c 128,-1,3
 345 676 345 676 291.5 676 c 128,-1,4
 238 676 238 676 198.5 642.5 c 128,-1,5
 159 609 159 609 159 549 c 0,6,7
 159 508 159 508 182 476 c 0,8,9
 189 466 189 466 189 460 c 0,10,11
 189 451 189 451 168 451 c 0,12,13
 122 451 122 451 91.5 480.5 c 128,-1,14
 61 510 61 510 61 557 c 0,15,16
 61 640 61 640 129.5 686 c 128,-1,17
 198 732 198 732 301.5 732 c 128,-1,18
 405 732 405 732 471 683 c 128,-1,19
 537 634 537 634 537 545 c 0,20,21
 537 442 537 442 426 320 c 0,22,23
 330 214 330 214 177 91 c 1,24,-1
 556 91 l 1,25,26
 556 27 556 27 522 0 c 1,27,-1
 64 0 l 1,28,-1
 37 51 l 1,29,30
 335 295 335 295 394 422 c 0,0,1
EndSplineSet
EndChar

StartChar: three
Encoding: 51 51 22
Width: 596
GlyphClass: 2
Flags: W
LayerCount: 2
Fore
SplineSet
473 38 m 128,-1,1
 405 -14 405 -14 299.5 -14 c 128,-1,2
 194 -14 194 -14 125.5 28.5 c 128,-1,3
 57 71 57 71 57 148 c 0,4,5
 57 195 57 195 87.5 224.5 c 128,-1,6
 118 254 118 254 164 254 c 2,7,-1
 174 254 l 2,8,9
 185 254 185 254 185 242 c 0,10,11
 185 239 185 239 178 228 c 0,12,13
 155 197 155 197 155 152 c 128,-1,14
 155 107 155 107 194 78 c 128,-1,15
 233 49 233 49 289 49 c 128,-1,16
 345 49 345 49 388.5 85.5 c 128,-1,17
 432 122 432 122 432 190 c 0,18,19
 432 240 432 240 403 285 c 0,20,21
 387 310 387 310 350.5 325.5 c 128,-1,22
 314 341 314 341 277 341 c 128,-1,23
 240 341 240 341 221.5 338.5 c 128,-1,24
 203 336 203 336 192.5 333.5 c 128,-1,25
 182 331 182 331 180 331 c 0,26,27
 166 331 166 331 166 346.5 c 128,-1,28
 166 362 166 362 175 368.5 c 128,-1,29
 184 375 184 375 233 384 c 128,-1,30
 282 393 282 393 322.5 413.5 c 128,-1,31
 363 434 363 434 381 460 c 0,32,33
 411 502 411 502 411 557 c 128,-1,34
 411 612 411 612 373.5 644.5 c 128,-1,35
 336 677 336 677 287.5 677 c 128,-1,36
 239 677 239 677 206.5 649.5 c 128,-1,37
 174 622 174 622 174 573 c 0,38,39
 174 532 174 532 196 500 c 0,40,41
 204 490 204 490 204 487 c 0,42,43
 204 475 204 475 183 475 c 0,44,45
 137 475 137 475 106.5 504.5 c 128,-1,46
 76 534 76 534 76 581 c 0,47,48
 76 653 76 653 138 692.5 c 128,-1,49
 200 732 200 732 290 732 c 128,-1,50
 380 732 380 732 450 686.5 c 128,-1,51
 520 641 520 641 520 559 c 0,52,53
 520 432 520 432 372 376 c 1,54,55
 454 358 454 358 497.5 306 c 128,-1,56
 541 254 541 254 541 184 c 0,57,0
 541 90 541 90 473 38 c 128,-1,1
EndSplineSet
EndChar

StartChar: four
Encoding: 52 52 23
Width: 608
GlyphClass: 2
Flags: W
LayerCount: 2
Fore
SplineSet
385 133 m 2,0,-1
 385 162 l 1,1,-1
 30 162 l 1,2,-1
 262 718 l 1,3,-1
 325 718 l 1,4,-1
 344 702 l 1,5,-1
 128 225 l 1,6,-1
 385 225 l 1,7,-1
 385 361 l 2,8,9
 385 417 385 417 363 452 c 1,10,-1
 375 467 l 1,11,-1
 485 479 l 1,12,-1
 485 225 l 1,13,-1
 578 225 l 1,14,15
 578 180 578 180 555 162 c 1,16,-1
 486 162 l 1,17,18
 490 87 490 87 530 34 c 1,19,-1
 543 16 l 1,20,-1
 530 0 l 1,21,-1
 291 0 l 1,22,-1
 279 34 l 1,23,-1
 322 45 l 2,24,25
 361 55 361 55 373 71 c 128,-1,26
 385 87 385 87 385 133 c 2,0,-1
EndSplineSet
EndChar

StartChar: five
Encoding: 53 53 24
Width: 596
GlyphClass: 2
Flags: W
LayerCount: 2
Fore
SplineSet
396 300 m 0,0,1
 376 328 376 328 332 344.5 c 128,-1,2
 288 361 288 361 235 361 c 128,-1,3
 182 361 182 361 119 348 c 1,4,-1
 98 385 l 1,5,-1
 116 718 l 1,6,-1
 505 718 l 1,7,8
 505 654 505 654 471 627 c 1,9,-1
 177 627 l 1,10,-1
 165 402 l 1,11,12
 228 416 228 416 288 416 c 0,13,14
 414 416 414 416 477.5 351 c 128,-1,15
 541 286 541 286 541 192 c 128,-1,16
 541 98 541 98 472.5 42 c 128,-1,17
 404 -14 404 -14 299 -14 c 128,-1,18
 194 -14 194 -14 125.5 28.5 c 128,-1,19
 57 71 57 71 57 148 c 0,20,21
 57 195 57 195 87.5 224.5 c 128,-1,22
 118 254 118 254 164 254 c 2,23,-1
 174 254 l 2,24,25
 185 254 185 254 185 242 c 0,26,27
 185 239 185 239 178 228 c 0,28,29
 155 197 155 197 155 152 c 128,-1,30
 155 107 155 107 194 78 c 128,-1,31
 233 49 233 49 289 49 c 128,-1,32
 345 49 345 49 388.5 87 c 128,-1,33
 432 125 432 125 432 188.5 c 128,-1,34
 432 252 432 252 396 300 c 0,0,1
EndSplineSet
EndChar

StartChar: six
Encoding: 54 54 25
Width: 646
GlyphClass: 2
Flags: W
LayerCount: 2
Fore
SplineSet
435 648 m 128,-1,1
 407 675 407 675 357 675 c 128,-1,2
 307 675 307 675 268 643.5 c 128,-1,3
 229 612 229 612 208 559 c 0,4,5
 166 457 166 457 166 326 c 0,6,7
 166 294 166 294 167 279 c 1,8,9
 187 343 187 343 239 381 c 128,-1,10
 291 419 291 419 380.5 419 c 128,-1,11
 470 419 470 419 522 362.5 c 128,-1,12
 574 306 574 306 574 212 c 128,-1,13
 574 118 574 118 511.5 52 c 128,-1,14
 449 -14 449 -14 335 -14 c 0,15,16
 202 -14 202 -14 130 84 c 128,-1,17
 58 182 58 182 58 328 c 0,18,19
 58 568 58 568 194 676 c 0,20,21
 264 732 264 732 357 732 c 128,-1,22
 450 732 450 732 505.5 694 c 128,-1,23
 561 656 561 656 561 601 c 128,-1,24
 561 546 561 546 530.5 513 c 128,-1,25
 500 480 500 480 454 480 c 0,26,27
 433 480 433 480 433 492 c 1,28,-1
 448 519 l 2,29,30
 463 546 463 546 463 574 c 0,31,0
 463 621 463 621 435 648 c 128,-1,1
423.5 309.5 m 128,-1,33
 394 351 394 351 333.5 351 c 128,-1,34
 273 351 273 351 239 305.5 c 128,-1,35
 205 260 205 260 205 195 c 128,-1,36
 205 130 205 130 233.5 89.5 c 128,-1,37
 262 49 262 49 323 49 c 128,-1,38
 384 49 384 49 418.5 91.5 c 128,-1,39
 453 134 453 134 453 201 c 128,-1,32
 453 268 453 268 423.5 309.5 c 128,-1,33
EndSplineSet
EndChar

StartChar: seven
Encoding: 55 55 26
Width: 496
GlyphClass: 2
Flags: W
LayerCount: 2
Fore
SplineSet
283 200 m 2,0,1
 260 140 260 140 260 100.5 c 128,-1,2
 260 61 260 61 274 34 c 2,3,-1
 283 16 l 1,4,-1
 264 0 l 1,5,-1
 80 0 l 1,6,-1
 68 34 l 1,7,-1
 91 40 l 2,8,9
 131 51 131 51 152 72 c 128,-1,10
 173 93 173 93 191 139 c 2,11,-1
 381 627 l 1,12,-1
 36 627 l 1,13,14
 2 654 2 654 2 718 c 1,15,-1
 487 718 l 1,16,-1
 283 200 l 2,0,1
EndSplineSet
EndChar

StartChar: eight
Encoding: 56 56 27
Width: 616
GlyphClass: 2
Flags: W
LayerCount: 2
Fore
SplineSet
476.5 690 m 128,-1,1
 544 645 544 645 544 546.5 c 128,-1,2
 544 448 544 448 421 373 c 1,3,4
 562 301 562 301 562 179 c 0,5,6
 562 90 562 90 492 36.5 c 128,-1,7
 422 -17 422 -17 306 -17 c 128,-1,8
 190 -17 190 -17 122 27.5 c 128,-1,9
 54 72 54 72 54 166 c 0,10,11
 54 274 54 274 187 354 c 1,12,13
 129 386 129 386 100.5 428 c 128,-1,14
 72 470 72 470 72 532 c 0,15,16
 72 616 72 616 131 675.5 c 128,-1,17
 190 735 190 735 299.5 735 c 128,-1,0
 409 735 409 735 476.5 690 c 128,-1,1
160 169 m 0,18,19
 160 111 160 111 197.5 75 c 128,-1,20
 235 39 235 39 301.5 39 c 128,-1,21
 368 39 368 39 410 69.5 c 128,-1,22
 452 100 452 100 452 151 c 128,-1,23
 452 202 452 202 427 230 c 128,-1,24
 402 258 402 258 342 284 c 2,25,-1
 235 331 l 1,26,27
 160 252 160 252 160 169 c 0,18,19
400 643.5 m 128,-1,29
 364 679 364 679 305 679 c 128,-1,30
 246 679 246 679 210.5 644 c 128,-1,31
 175 609 175 609 175 565 c 128,-1,32
 175 521 175 521 204.5 489.5 c 128,-1,33
 234 458 234 458 307 426 c 2,34,-1
 369 398 l 1,35,36
 436 475 436 475 436 552 c 0,37,28
 436 608 436 608 400 643.5 c 128,-1,29
EndSplineSet
EndChar

StartChar: nine
Encoding: 57 57 28
Width: 646
GlyphClass: 2
Flags: W
LayerCount: 2
Fore
SplineSet
321 732 m 0,0,1
 449 732 449 732 511.5 622.5 c 128,-1,2
 574 513 574 513 574 348.5 c 128,-1,3
 574 184 574 184 502 85 c 128,-1,4
 430 -14 430 -14 292 -14 c 0,5,6
 205 -14 205 -14 149 25.5 c 128,-1,7
 93 65 93 65 93 126 c 0,8,9
 93 167 93 167 121 192 c 128,-1,10
 149 217 149 217 193 217 c 0,11,12
 215 217 215 217 215 205 c 0,13,14
 215 204 215 204 202.5 180 c 128,-1,15
 190 156 190 156 190 132 c 0,16,17
 190 91 190 91 218 67 c 128,-1,18
 246 43 246 43 291 43 c 0,19,20
 355 43 355 43 396.5 88 c 128,-1,21
 438 133 438 133 453 195.5 c 128,-1,22
 468 258 468 258 468 316 c 128,-1,23
 468 374 468 374 467 391 c 1,24,25
 441 338 441 338 390.5 307 c 128,-1,26
 340 276 340 276 272 276 c 0,27,28
 180 276 180 276 128.5 337.5 c 128,-1,29
 77 399 77 399 77 491 c 128,-1,30
 77 583 77 583 141.5 657.5 c 128,-1,31
 206 732 206 732 321 732 c 0,0,1
229 395 m 128,-1,33
 261 348 261 348 322 348 c 128,-1,34
 383 348 383 348 418.5 394.5 c 128,-1,35
 454 441 454 441 454 506 c 128,-1,36
 454 571 454 571 421 619 c 128,-1,37
 388 667 388 667 327 667 c 128,-1,38
 266 667 266 667 231.5 619.5 c 128,-1,39
 197 572 197 572 197 507 c 128,-1,32
 197 442 197 442 229 395 c 128,-1,33
EndSplineSet
EndChar

StartChar: colon
Encoding: 58 58 29
Width: 191
GlyphClass: 2
Flags: W
LayerCount: 2
Fore
SplineSet
33 51 m 128,-1,1
 33 70 33 70 54.5 93.5 c 128,-1,2
 76 117 76 117 94.5 117 c 128,-1,3
 113 117 113 117 135 94 c 128,-1,4
 157 71 157 71 157 51.5 c 128,-1,5
 157 32 157 32 135 9 c 128,-1,6
 113 -14 113 -14 95 -14 c 128,-1,7
 77 -14 77 -14 55 9 c 128,-1,0
 33 32 33 32 33 51 c 128,-1,1
33 411 m 128,-1,9
 33 430 33 430 54.5 453.5 c 128,-1,10
 76 477 76 477 94.5 477 c 128,-1,11
 113 477 113 477 135 454 c 128,-1,12
 157 431 157 431 157 411.5 c 128,-1,13
 157 392 157 392 135 369 c 128,-1,14
 113 346 113 346 95 346 c 128,-1,15
 77 346 77 346 55 369 c 128,-1,8
 33 392 33 392 33 411 c 128,-1,9
EndSplineSet
EndChar

StartChar: semicolon
Encoding: 59 59 30
Width: 191
GlyphClass: 2
Flags: W
LayerCount: 2
Fore
SplineSet
92 119 m 0,0,1
 157 119 157 119 157 52 c 0,2,3
 157 24 157 24 136.5 -6.5 c 128,-1,4
 116 -37 116 -37 75 -81 c 2,5,-1
 36 -123 l 1,6,-1
 7 -104 l 1,7,-1
 53 -14 l 2,8,9
 65 10 65 10 65 28.5 c 128,-1,10
 65 47 65 47 42 64 c 1,11,-1
 24 76 l 1,12,-1
 19 100 l 1,13,-1
 36 107 l 2,14,15
 67 119 67 119 92 119 c 0,0,1
33 411 m 128,-1,17
 33 430 33 430 54.5 453.5 c 128,-1,18
 76 477 76 477 94.5 477 c 128,-1,19
 113 477 113 477 135 454 c 128,-1,20
 157 431 157 431 157 411.5 c 128,-1,21
 157 392 157 392 135 369 c 128,-1,22
 113 346 113 346 95 346 c 128,-1,23
 77 346 77 346 55 369 c 128,-1,16
 33 392 33 392 33 411 c 128,-1,17
EndSplineSet
EndChar

StartChar: less
Encoding: 60 60 31
Width: 621
GlyphClass: 2
Flags: W
LayerCount: 2
Fore
SplineSet
99 319 m 1,0,-1
 99 395 l 1,1,-1
 522 566 l 1,2,-1
 522 490 l 1,3,-1
 184 357 l 1,4,-1
 522 224 l 1,5,-1
 522 148 l 1,6,-1
 99 319 l 1,0,-1
EndSplineSet
EndChar

StartChar: equal
Encoding: 61 61 32
Width: 621
GlyphClass: 2
Flags: W
LayerCount: 2
Fore
SplineSet
99 211 m 1,0,-1
 99 287 l 1,1,-1
 522 287 l 1,2,-1
 522 211 l 1,3,-1
 99 211 l 1,0,-1
99 427 m 1,4,-1
 99 503 l 1,5,-1
 522 503 l 1,6,-1
 522 427 l 1,7,-1
 99 427 l 1,4,-1
EndSplineSet
EndChar

StartChar: greater
Encoding: 62 62 33
Width: 621
GlyphClass: 2
Flags: W
LayerCount: 2
Fore
SplineSet
522 395 m 1,0,-1
 522 319 l 1,1,-1
 99 148 l 1,2,-1
 99 224 l 1,3,-1
 437 357 l 1,4,-1
 99 490 l 1,5,-1
 99 566 l 1,6,-1
 522 395 l 1,0,-1
EndSplineSet
EndChar

StartChar: question
Encoding: 63 63 34
Width: 538
GlyphClass: 2
Flags: W
LayerCount: 2
Fore
SplineSet
172 51 m 128,-1,1
 172 70 172 70 193.5 93.5 c 128,-1,2
 215 117 215 117 233.5 117 c 128,-1,3
 252 117 252 117 274 94 c 128,-1,4
 296 71 296 71 296 51.5 c 128,-1,5
 296 32 296 32 274 9 c 128,-1,6
 252 -14 252 -14 234 -14 c 128,-1,7
 216 -14 216 -14 194 9 c 128,-1,0
 172 32 172 32 172 51 c 128,-1,1
321.5 448.5 m 128,-1,9
 360 516 360 516 360 577.5 c 128,-1,10
 360 639 360 639 327 670.5 c 128,-1,11
 294 702 294 702 244.5 702 c 128,-1,12
 195 702 195 702 169.5 678.5 c 128,-1,13
 144 655 144 655 144 622.5 c 128,-1,14
 144 590 144 590 150 572 c 128,-1,15
 156 554 156 554 162 544.5 c 128,-1,16
 168 535 168 535 168 533 c 0,17,18
 168 522 168 522 149 522 c 0,19,20
 106 522 106 522 78.5 549.5 c 128,-1,21
 51 577 51 577 51 620 c 0,22,23
 51 681 51 681 110 720 c 128,-1,24
 169 759 169 759 260.5 759 c 128,-1,25
 352 759 352 759 413 712.5 c 128,-1,26
 474 666 474 666 474 584 c 0,27,28
 474 478 474 478 333 343 c 0,29,30
 294 306 294 306 276 284.5 c 128,-1,31
 258 263 258 263 250 235 c 2,32,-1
 245 216 l 1,33,-1
 226 216 l 1,34,-1
 165 278 l 1,35,8
 283 381 283 381 321.5 448.5 c 128,-1,9
EndSplineSet
EndChar

StartChar: at
Encoding: 64 64 35
Width: 892
GlyphClass: 2
Flags: W
LayerCount: 2
Fore
SplineSet
452 452 m 0,0,1
 395 452 395 452 363 400 c 128,-1,2
 331 348 331 348 331 289 c 128,-1,3
 331 230 331 230 353 198.5 c 128,-1,4
 375 167 375 167 408 167 c 0,5,6
 456 167 456 167 499 229 c 1,7,-1
 516 429 l 1,8,9
 486 452 486 452 452 452 c 0,0,1
837 315 m 0,10,11
 837 250 837 250 814 188 c 128,-1,12
 791 126 791 126 740 81 c 128,-1,13
 689 36 689 36 628 36 c 128,-1,14
 567 36 567 36 533.5 70.5 c 128,-1,15
 500 105 500 105 500 168 c 1,16,17
 435 91 435 91 357 91 c 0,18,19
 303 91 303 91 268 134 c 128,-1,20
 233 177 233 177 233 256 c 0,21,22
 233 372 233 372 294 441 c 128,-1,23
 355 510 355 510 453 510 c 0,24,25
 482 510 482 510 544 500.5 c 128,-1,26
 606 491 606 491 619 490 c 1,27,-1
 627 478 l 1,28,-1
 618 462 l 1,29,30
 607 447 607 447 606 433 c 0,31,32
 584 182 584 182 584 156.5 c 128,-1,33
 584 131 584 131 599 109.5 c 128,-1,34
 614 88 614 88 636 88 c 0,35,36
 672 88 672 88 706 149 c 128,-1,37
 740 210 740 210 740 318 c 0,38,39
 740 450 740 450 669 534 c 128,-1,40
 598 618 598 618 474 618 c 0,41,42
 333 618 333 618 242 511 c 128,-1,43
 151 404 151 404 151 248 c 0,44,45
 151 115 151 115 222.5 31 c 128,-1,46
 294 -53 294 -53 419 -53 c 0,47,48
 525 -53 525 -53 599 -8 c 1,49,-1
 623 -50 l 1,50,51
 523 -110 523 -110 414 -110 c 0,52,53
 253 -110 253 -110 154 -7 c 128,-1,54
 55 96 55 96 55 250 c 0,55,56
 55 424 55 424 178.5 549.5 c 128,-1,57
 302 675 302 675 479 675 c 0,58,59
 639 675 639 675 738 572 c 128,-1,60
 837 469 837 469 837 315 c 0,10,11
EndSplineSet
EndChar

StartChar: A
Encoding: 65 65 36
Width: 706
GlyphClass: 2
Flags: W
LayerCount: 2
Fore
SplineSet
502.5 56 m 128,-1,1
 513 66 513 66 513 83 c 128,-1,2
 513 100 513 100 502 133 c 2,3,-1
 454 273 l 1,4,-1
 223 273 l 1,5,-1
 199 200 l 2,6,7
 176 131 176 131 176 96 c 128,-1,8
 176 61 176 61 190 34 c 2,9,-1
 199 16 l 1,10,-1
 180 0 l 1,11,-1
 -4 0 l 1,12,-1
 -16 34 l 1,13,-1
 7 40 l 2,14,15
 47 51 47 51 65 69 c 128,-1,16
 83 87 83 87 99 133 c 2,17,-1
 256 585 l 2,18,19
 267 618 267 618 267 635 c 128,-1,20
 267 652 267 652 256.5 662 c 128,-1,21
 246 672 246 672 222 678 c 2,22,-1
 199 684 l 1,23,-1
 211 718 l 1,24,-1
 404 718 l 1,25,-1
 605 138 l 2,26,27
 621 92 621 92 640 68 c 128,-1,28
 659 44 659 44 695 16 c 1,29,-1
 682 0 l 1,30,-1
 457 0 l 1,31,-1
 445 34 l 1,32,-1
 468 40 l 2,33,0
 492 46 492 46 502.5 56 c 128,-1,1
337 615 m 1,34,-1
 244 335 l 1,35,-1
 433 335 l 1,36,-1
 337 615 l 1,34,-1
EndSplineSet
EndChar

StartChar: B
Encoding: 66 66 37
Width: 651
GlyphClass: 2
Flags: W
LayerCount: 2
Fore
SplineSet
559 535 m 0,0,1
 559 479 559 479 532.5 434 c 128,-1,2
 506 389 506 389 454 364 c 1,3,4
 521 342 521 342 558.5 297 c 128,-1,5
 596 252 596 252 596 197 c 0,6,7
 596 106 596 106 534 53 c 128,-1,8
 472 0 472 0 336 0 c 2,9,-1
 57 0 l 1,10,-1
 45 34 l 1,11,-1
 68 40 l 1,12,13
 106 51 106 51 119 69 c 128,-1,14
 132 87 132 87 132 133 c 2,15,-1
 132 627 l 2,16,17
 132 651 132 651 110 651 c 2,18,-1
 52 651 l 1,19,-1
 40 688 l 1,20,21
 83 705 83 705 153 718.5 c 128,-1,22
 223 732 223 732 288 732 c 0,23,24
 425 732 425 732 492 677 c 128,-1,25
 559 622 559 622 559 535 c 0,0,1
231 630 m 2,26,-1
 231 183 l 2,27,28
 231 95 231 95 272 70 c 1,29,30
 304 52 304 52 342 52 c 0,31,32
 412 52 412 52 452 93.5 c 128,-1,33
 492 135 492 135 492 197.5 c 128,-1,34
 492 260 492 260 448.5 300.5 c 128,-1,35
 405 341 405 341 333 341 c 0,36,37
 294 341 294 341 273.5 351 c 128,-1,38
 253 361 253 361 253 377.5 c 128,-1,39
 253 394 253 394 267 394 c 0,40,41
 268 394 268 394 283.5 390.5 c 128,-1,42
 299 387 299 387 317 387 c 0,43,44
 385 387 385 387 422.5 427 c 128,-1,45
 460 467 460 467 460 531.5 c 128,-1,46
 460 596 460 596 417.5 636 c 128,-1,47
 375 676 375 676 303 676 c 128,-1,48
 231 676 231 676 231 630 c 2,26,-1
EndSplineSet
EndChar

StartChar: C
Encoding: 67 67 38
Width: 617
GlyphClass: 2
Flags: W
LayerCount: 2
Fore
SplineSet
358 732 m 0,0,1
 457 732 457 732 520 691 c 128,-1,2
 583 650 583 650 583 585 c 0,3,4
 583 534 583 534 552.5 501 c 128,-1,5
 522 468 522 468 476 468 c 0,6,7
 455 468 455 468 455 480 c 0,8,9
 455 483 455 483 462 494 c 0,10,11
 485 529 485 529 485 573.5 c 128,-1,12
 485 618 485 618 450 647 c 128,-1,13
 415 676 415 676 358.5 676 c 128,-1,14
 302 676 302 676 259.5 648 c 128,-1,15
 217 620 217 620 194 572 c 1,16,17
 148 481 148 481 148 355.5 c 128,-1,18
 148 230 148 230 207 142.5 c 128,-1,19
 266 55 266 55 364 55 c 0,20,21
 490 55 490 55 552 145 c 0,22,23
 555 149 555 149 561.5 149 c 128,-1,24
 568 149 568 149 579.5 139.5 c 128,-1,25
 591 130 591 130 591 124 c 128,-1,26
 591 118 591 118 588 113 c 0,27,28
 502 -14 502 -14 351 -14 c 128,-1,29
 200 -14 200 -14 117.5 91 c 128,-1,30
 35 196 35 196 35 358.5 c 128,-1,31
 35 521 35 521 118 626.5 c 128,-1,32
 201 732 201 732 358 732 c 0,0,1
EndSplineSet
EndChar

StartChar: D
Encoding: 68 68 39
Width: 733
GlyphClass: 2
Flags: W
LayerCount: 2
Fore
SplineSet
366 0 m 2,0,-1
 52 0 l 1,1,-1
 40 34 l 1,2,-1
 63 40 l 2,3,4
 95 49 95 49 111 66.5 c 128,-1,5
 127 84 127 84 127 122 c 2,6,-1
 127 627 l 2,7,8
 127 651 127 651 105 651 c 2,9,-1
 47 651 l 1,10,-1
 35 688 l 1,11,12
 83 705 83 705 159 718.5 c 128,-1,13
 235 732 235 732 314 732 c 128,-1,14
 393 732 393 732 461 712 c 128,-1,15
 529 692 529 692 573 658 c 128,-1,16
 617 624 617 624 646 576 c 1,17,18
 698 486 698 486 698 358 c 0,19,20
 698 201 698 201 612.5 100.5 c 128,-1,21
 527 0 527 0 366 0 c 2,0,-1
226 630 m 2,22,-1
 226 175 l 2,23,24
 226 104 226 104 255.5 77.5 c 128,-1,25
 285 51 285 51 334 51 c 0,26,27
 589 51 589 51 589 360 c 0,28,29
 589 487 589 487 526 578 c 0,30,31
 495 623 495 623 443 649.5 c 128,-1,32
 391 676 391 676 324 676 c 0,33,34
 226 676 226 676 226 630 c 2,22,-1
EndSplineSet
EndChar

StartChar: E
Encoding: 69 69 40
Width: 610
GlyphClass: 2
Flags: W
LayerCount: 2
Fore
SplineSet
311 336 m 2,0,-1
 226 336 l 1,1,-1
 226 133 l 2,2,3
 226 87 226 87 238.5 72 c 128,-1,4
 251 57 251 57 290 57 c 2,5,-1
 398 57 l 2,6,7
 451 57 451 57 472 74.5 c 128,-1,8
 493 92 493 92 507 146 c 2,9,-1
 513 169 l 1,10,-1
 547 157 l 1,11,-1
 547 -14 l 1,12,-1
 527 -25 l 1,13,-1
 519 -14 l 2,14,15
 508 0 508 0 477 0 c 2,16,-1
 56 0 l 1,17,-1
 45 32 l 1,18,-1
 66 38 l 2,19,20
 103 49 103 49 115 66 c 128,-1,21
 127 83 127 83 127 126 c 2,22,-1
 127 517 l 2,23,24
 127 577 127 577 117 614 c 128,-1,25
 107 651 107 651 82 684 c 2,26,-1
 69 702 l 1,27,-1
 82 718 l 1,28,-1
 388 718 l 2,29,30
 474 718 474 718 502 739 c 2,31,-1
 520 752 l 1,32,-1
 536 739 l 1,33,-1
 536 561 l 1,34,-1
 502 549 l 1,35,-1
 496 572 l 2,36,37
 482 626 482 626 461 643.5 c 128,-1,38
 440 661 440 661 387 661 c 2,39,-1
 290 661 l 2,40,41
 251 661 251 661 238.5 646 c 128,-1,42
 226 631 226 631 226 585 c 2,43,-1
 226 393 l 1,44,-1
 353 393 l 2,45,46
 399 393 399 393 432 439 c 2,47,-1
 440 450 l 1,48,-1
 460 439 l 1,49,-1
 460 268 l 1,50,-1
 426 256 l 1,51,-1
 420 279 l 2,52,53
 411 313 411 313 388.5 324.5 c 128,-1,54
 366 336 366 336 311 336 c 2,0,-1
EndSplineSet
EndChar

StartChar: F
Encoding: 70 70 41
Width: 547
GlyphClass: 2
Flags: W
LayerCount: 2
Fore
SplineSet
353 661 m 2,0,-1
 266 661 l 2,1,2
 227 661 227 661 214.5 646 c 128,-1,3
 202 631 202 631 202 585 c 2,4,-1
 202 383 l 1,5,-1
 319 383 l 2,6,7
 365 383 365 383 398 429 c 2,8,-1
 406 440 l 1,9,-1
 426 429 l 1,10,-1
 426 258 l 1,11,-1
 392 246 l 1,12,-1
 386 269 l 2,13,14
 377 303 377 303 354.5 314.5 c 128,-1,15
 332 326 332 326 277 326 c 2,16,-1
 202 326 l 1,17,-1
 202 133 l 2,18,19
 202 87 202 87 215 69 c 128,-1,20
 228 51 228 51 266 40 c 1,21,-1
 289 34 l 1,22,-1
 277 0 l 1,23,-1
 58 0 l 1,24,-1
 45 16 l 1,25,-1
 58 34 l 2,26,27
 83 67 83 67 93 104 c 128,-1,28
 103 141 103 141 103 201 c 2,29,-1
 103 517 l 2,30,31
 103 577 103 577 93 614 c 128,-1,32
 83 651 83 651 58 684 c 2,33,-1
 45 702 l 1,34,-1
 58 718 l 1,35,-1
 354 718 l 2,36,37
 440 718 440 718 468 739 c 2,38,-1
 486 752 l 1,39,-1
 502 739 l 1,40,-1
 502 561 l 1,41,-1
 468 549 l 1,42,-1
 462 572 l 2,43,44
 448 626 448 626 427 643.5 c 128,-1,45
 406 661 406 661 353 661 c 2,0,-1
EndSplineSet
EndChar

StartChar: G
Encoding: 71 71 42
Width: 691
GlyphClass: 2
Flags: W
LayerCount: 2
Fore
SplineSet
521 -12 m 2,0,-1
 521 82 l 1,1,2
 443 17 443 17 345 17 c 0,3,4
 195 17 195 17 115 118 c 128,-1,5
 35 219 35 219 35 376 c 0,6,7
 35 585 35 585 182 682 c 0,8,9
 258 732 258 732 365 732 c 128,-1,10
 472 732 472 732 539.5 688.5 c 128,-1,11
 607 645 607 645 607 575 c 0,12,13
 607 524 607 524 576.5 491 c 128,-1,14
 546 458 546 458 500 458 c 0,15,16
 485 458 485 458 482 460 c 128,-1,17
 479 462 479 462 479 467.5 c 128,-1,18
 479 473 479 473 486 484 c 0,19,20
 509 519 509 519 509 565.5 c 128,-1,21
 509 612 509 612 469.5 644 c 128,-1,22
 430 676 430 676 374 676 c 128,-1,23
 318 676 318 676 278.5 657.5 c 128,-1,24
 239 639 239 639 214.5 609 c 128,-1,25
 190 579 190 579 174 540 c 0,26,27
 143 466 143 466 143 381 c 0,28,29
 143 253 143 253 200.5 167 c 128,-1,30
 258 81 258 81 355.5 81 c 128,-1,31
 453 81 453 81 521 149 c 1,32,-1
 521 200 l 2,33,34
 521 246 521 246 508 264 c 128,-1,35
 495 282 495 282 457 293 c 1,36,-1
 434 299 l 1,37,-1
 446 333 l 1,38,-1
 656 333 l 1,39,-1
 669 317 l 1,40,-1
 656 299 l 2,41,42
 631 266 631 266 621 229 c 128,-1,43
 611 192 611 192 611 132 c 2,44,-1
 611 16 l 2,45,46
 611 -278 611 -278 373 -278 c 0,47,48
 286 -278 286 -278 238.5 -235.5 c 128,-1,49
 191 -193 191 -193 191 -139 c 128,-1,50
 191 -85 191 -85 225 -49.5 c 128,-1,51
 259 -14 259 -14 318 -14 c 0,52,53
 337 -14 337 -14 337 -25 c 0,54,55
 337 -29 337 -29 324.5 -41 c 128,-1,56
 312 -53 312 -53 300 -77 c 128,-1,57
 288 -101 288 -101 288 -137 c 128,-1,58
 288 -173 288 -173 315.5 -199.5 c 128,-1,59
 343 -226 343 -226 390 -226 c 0,60,61
 455 -226 455 -226 488 -176 c 128,-1,62
 521 -126 521 -126 521 -12 c 2,0,-1
EndSplineSet
EndChar

StartChar: H
Encoding: 72 72 43
Width: 779
GlyphClass: 2
Flags: W
LayerCount: 2
Fore
SplineSet
553 133 m 2,0,-1
 553 334 l 1,1,-1
 226 334 l 1,2,-1
 226 126 l 2,3,4
 226 83 226 83 238 66 c 128,-1,5
 250 49 250 49 287 38 c 2,6,-1
 308 32 l 1,7,-1
 297 0 l 1,8,-1
 52 0 l 1,9,-1
 40 34 l 1,10,-1
 63 40 l 1,11,12
 101 51 101 51 114 69 c 128,-1,13
 127 87 127 87 127 133 c 2,14,-1
 127 585 l 2,15,16
 127 631 127 631 114 649 c 128,-1,17
 101 667 101 667 63 678 c 1,18,-1
 40 684 l 1,19,-1
 52 718 l 1,20,-1
 271 718 l 1,21,-1
 284 702 l 1,22,-1
 271 684 l 2,23,24
 246 651 246 651 236 614 c 128,-1,25
 226 577 226 577 226 517 c 2,26,-1
 226 395 l 1,27,-1
 553 395 l 1,28,-1
 553 585 l 2,29,30
 553 631 553 631 540 649 c 128,-1,31
 527 667 527 667 489 678 c 1,32,-1
 466 684 l 1,33,-1
 478 718 l 1,34,-1
 697 718 l 1,35,-1
 710 702 l 1,36,-1
 697 684 l 2,37,38
 672 651 672 651 662 614 c 128,-1,39
 652 577 652 577 652 517 c 2,40,-1
 652 126 l 2,41,42
 652 83 652 83 664 66 c 128,-1,43
 676 49 676 49 713 38 c 2,44,-1
 734 32 l 1,45,-1
 723 0 l 1,46,-1
 478 0 l 1,47,-1
 466 34 l 1,48,-1
 489 40 l 1,49,50
 527 51 527 51 540 69 c 128,-1,51
 553 87 553 87 553 133 c 2,0,-1
EndSplineSet
EndChar

StartChar: I
Encoding: 73 73 44
Width: 353
GlyphClass: 2
Flags: W
LayerCount: 2
Fore
SplineSet
127 133 m 2,0,-1
 127 585 l 2,1,2
 127 631 127 631 114 649 c 128,-1,3
 101 667 101 667 63 678 c 1,4,-1
 40 684 l 1,5,-1
 52 718 l 1,6,-1
 271 718 l 1,7,-1
 284 702 l 1,8,-1
 271 684 l 2,9,10
 246 651 246 651 236 614 c 128,-1,11
 226 577 226 577 226 517 c 2,12,-1
 226 126 l 2,13,14
 226 83 226 83 238 66 c 128,-1,15
 250 49 250 49 287 38 c 2,16,-1
 308 32 l 1,17,-1
 297 0 l 1,18,-1
 52 0 l 1,19,-1
 40 34 l 1,20,-1
 63 40 l 1,21,22
 101 51 101 51 114 69 c 128,-1,23
 127 87 127 87 127 133 c 2,0,-1
EndSplineSet
EndChar

StartChar: J
Encoding: 74 74 45
Width: 469
GlyphClass: 2
Flags: W
LayerCount: 2
Fore
SplineSet
272 175 m 2,0,-1
 272 585 l 2,1,2
 272 631 272 631 259 649 c 128,-1,3
 246 667 246 667 208 678 c 1,4,-1
 185 684 l 1,5,-1
 197 718 l 1,6,-1
 416 718 l 1,7,-1
 429 702 l 1,8,-1
 416 684 l 2,9,10
 391 651 391 651 381 614 c 128,-1,11
 371 577 371 577 371 517 c 2,12,-1
 371 236 l 2,13,14
 371 106 371 106 315.5 46 c 128,-1,15
 260 -14 260 -14 167.5 -14 c 128,-1,16
 75 -14 75 -14 27.5 28.5 c 128,-1,17
 -20 71 -20 71 -20 125 c 128,-1,18
 -20 179 -20 179 14 214.5 c 128,-1,19
 48 250 48 250 107 250 c 0,20,21
 126 250 126 250 126 239 c 0,22,23
 126 235 126 235 114 223 c 128,-1,24
 102 211 102 211 89.5 187 c 128,-1,25
 77 163 77 163 77 127 c 128,-1,26
 77 91 77 91 101.5 64.5 c 128,-1,27
 126 38 126 38 169 38 c 0,28,29
 272 38 272 38 272 175 c 2,0,-1
EndSplineSet
EndChar

StartChar: K
Encoding: 75 75 46
Width: 668
GlyphClass: 2
Flags: W
LayerCount: 2
Fore
SplineSet
127 133 m 2,0,-1
 127 585 l 2,1,2
 127 631 127 631 114 649 c 128,-1,3
 101 667 101 667 63 678 c 1,4,-1
 40 684 l 1,5,-1
 52 718 l 1,6,-1
 271 718 l 1,7,-1
 284 702 l 1,8,-1
 271 684 l 2,9,10
 246 651 246 651 236 614 c 128,-1,11
 226 577 226 577 226 517 c 2,12,-1
 226 126 l 2,13,14
 226 83 226 83 238 66 c 128,-1,15
 250 49 250 49 287 38 c 2,16,-1
 308 32 l 1,17,-1
 297 0 l 1,18,-1
 52 0 l 1,19,-1
 40 34 l 1,20,-1
 63 40 l 1,21,22
 101 51 101 51 114 69 c 128,-1,23
 127 87 127 87 127 133 c 2,0,-1
557 72 m 2,24,25
 574 41 574 41 594 41 c 128,-1,26
 614 41 614 41 634 55 c 1,27,-1
 651 26 l 1,28,29
 610 -14 610 -14 562 -14 c 128,-1,30
 514 -14 514 -14 483 10 c 128,-1,31
 452 34 452 34 425 83 c 2,32,-1
 306 301 l 2,33,34
 289 331 289 331 255 346 c 0,35,36
 250 348 250 348 250 357 c 0,37,38
 250 381 250 381 270 381 c 0,39,40
 286 381 286 381 294 380 c 1,41,-1
 430 583 l 2,42,43
 451 616 451 616 451 635.5 c 128,-1,44
 451 655 451 655 438 684 c 1,45,-1
 429 702 l 1,46,-1
 448 718 l 1,47,-1
 629 718 l 1,48,-1
 641 684 l 1,49,-1
 618 678 l 2,50,51
 567 664 567 664 540 624 c 2,52,-1
 360 364 l 1,53,54
 403 344 403 344 429 299 c 2,55,-1
 557 72 l 2,24,25
EndSplineSet
EndChar

StartChar: L
Encoding: 76 76 47
Width: 550
GlyphClass: 2
Flags: W
LayerCount: 2
Fore
SplineSet
226 517 m 2,0,-1
 226 133 l 2,1,2
 226 87 226 87 238.5 72 c 128,-1,3
 251 57 251 57 290 57 c 2,4,-1
 377 57 l 2,5,6
 430 57 430 57 451 74.5 c 128,-1,7
 472 92 472 92 486 146 c 2,8,-1
 492 169 l 1,9,-1
 526 157 l 1,10,-1
 526 -14 l 1,11,-1
 506 -25 l 1,12,-1
 498 -14 l 2,13,14
 487 0 487 0 456 0 c 2,15,-1
 56 0 l 1,16,-1
 45 32 l 1,17,-1
 66 38 l 2,18,19
 103 49 103 49 115 66 c 128,-1,20
 127 83 127 83 127 126 c 2,21,-1
 127 585 l 2,22,23
 127 631 127 631 114 649 c 128,-1,24
 101 667 101 667 63 678 c 1,25,-1
 40 684 l 1,26,-1
 52 718 l 1,27,-1
 271 718 l 1,28,-1
 284 702 l 1,29,-1
 271 684 l 2,30,31
 246 651 246 651 236 614 c 128,-1,32
 226 577 226 577 226 517 c 2,0,-1
EndSplineSet
EndChar

StartChar: M
Encoding: 77 77 48
Width: 921
GlyphClass: 2
Flags: W
LayerCount: 2
Fore
SplineSet
699.5 65.5 m 128,-1,1
 712 81 712 81 712 104 c 128,-1,2
 712 127 712 127 710 149 c 2,3,-1
 681 566 l 1,4,-1
 472 72 l 1,5,-1
 418 72 l 1,6,-1
 209 566 l 1,7,-1
 187 258 l 2,8,9
 181 188 181 188 181 160 c 0,10,11
 181 86 181 86 217 34 c 1,12,-1
 229 16 l 1,13,-1
 214 0 l 1,14,-1
 26 0 l 1,15,-1
 15 34 l 1,16,-1
 38 40 l 1,17,18
 77 52 77 52 91.5 70 c 128,-1,19
 106 88 106 88 109 133 c 2,20,-1
 136 529 l 1,21,22
 141 569 141 569 141 604.5 c 128,-1,23
 141 640 141 640 128.5 655 c 128,-1,24
 116 670 116 670 83 678 c 2,25,-1
 60 684 l 1,26,-1
 71 718 l 1,27,-1
 253 718 l 1,28,-1
 459 215 l 1,29,-1
 671 718 l 1,30,-1
 815 718 l 1,31,-1
 830 702 l 1,32,-1
 818 684 l 1,33,34
 782 632 782 632 782 558 c 0,35,36
 782 543 782 543 787 468 c 2,37,-1
 807 194 l 2,38,39
 812 132 812 132 827.5 90.5 c 128,-1,40
 843 49 843 49 876 16 c 1,41,-1
 863 0 l 1,42,-1
 644 0 l 1,43,-1
 632 34 l 1,44,-1
 655 40 l 1,45,0
 687 50 687 50 699.5 65.5 c 128,-1,1
EndSplineSet
EndChar

StartChar: N
Encoding: 78 78 49
Width: 779
GlyphClass: 2
Flags: W
LayerCount: 2
Fore
SplineSet
191 201 m 2,0,1
 191 141 191 141 201 104 c 128,-1,2
 211 67 211 67 236 34 c 2,3,-1
 249 16 l 1,4,-1
 236 0 l 1,5,-1
 46 0 l 1,6,-1
 34 34 l 1,7,-1
 57 40 l 1,8,9
 95 51 95 51 108 69 c 128,-1,10
 121 87 121 87 121 133 c 2,11,-1
 121 585 l 2,12,13
 121 631 121 631 108 649 c 128,-1,14
 95 667 95 667 57 678 c 1,15,-1
 34 684 l 1,16,-1
 46 718 l 1,17,-1
 207 718 l 1,18,-1
 589 151 l 1,19,-1
 589 585 l 2,20,21
 589 631 589 631 576 649 c 128,-1,22
 563 667 563 667 525 678 c 1,23,-1
 502 684 l 1,24,-1
 514 718 l 1,25,-1
 704 718 l 1,26,-1
 717 702 l 1,27,-1
 704 684 l 2,28,29
 679 651 679 651 669 614 c 128,-1,30
 659 577 659 577 659 517 c 2,31,-1
 659 88 l 2,32,33
 659 54 659 54 673 34 c 2,34,-1
 686 16 l 1,35,-1
 673 0 l 1,36,-1
 572 0 l 1,37,-1
 191 565 l 1,38,-1
 191 201 l 2,0,1
EndSplineSet
EndChar

StartChar: O
Encoding: 79 79 50
Width: 733
GlyphClass: 2
Flags: W
LayerCount: 2
Fore
SplineSet
544 561 m 0,0,1
 521 612 521 612 476 643.5 c 128,-1,2
 431 675 431 675 371 675 c 0,3,4
 265 675 265 675 204 581.5 c 128,-1,5
 143 488 143 488 143 352.5 c 128,-1,6
 143 217 143 217 200 131 c 128,-1,7
 257 45 257 45 362 45 c 128,-1,8
 467 45 467 45 528 133 c 128,-1,9
 589 221 589 221 589 342.5 c 128,-1,10
 589 464 589 464 544 561 c 0,0,1
35 358 m 128,-1,12
 35 521 35 521 120 626.5 c 128,-1,13
 205 732 205 732 365.5 732 c 128,-1,14
 526 732 526 732 612 626.5 c 128,-1,15
 698 521 698 521 698 358 c 128,-1,16
 698 195 698 195 612 90.5 c 128,-1,17
 526 -14 526 -14 365.5 -14 c 128,-1,18
 205 -14 205 -14 120 90.5 c 128,-1,11
 35 195 35 195 35 358 c 128,-1,12
EndSplineSet
EndChar

StartChar: P
Encoding: 80 80 51
Width: 596
GlyphClass: 2
Flags: W
LayerCount: 2
Fore
SplineSet
226 630 m 2,0,-1
 226 201 l 2,1,2
 226 140 226 140 236 103.5 c 128,-1,3
 246 67 246 67 271 34 c 2,4,-1
 284 16 l 1,5,-1
 271 0 l 1,6,-1
 52 0 l 1,7,-1
 40 34 l 1,8,-1
 63 40 l 2,9,10
 101 50 101 50 114 69 c 128,-1,11
 127 88 127 88 127 133 c 2,12,-1
 127 627 l 2,13,14
 127 651 127 651 105 651 c 2,15,-1
 47 651 l 1,16,-1
 35 688 l 1,17,18
 78 705 78 705 148.5 718.5 c 128,-1,19
 219 732 219 732 284 732 c 0,20,21
 432 732 432 732 504 665.5 c 128,-1,22
 576 599 576 599 576 496 c 128,-1,23
 576 393 576 393 515 327 c 128,-1,24
 454 261 454 261 336 261 c 0,25,26
 299 261 299 261 273.5 270 c 128,-1,27
 248 279 248 279 248 299.5 c 128,-1,28
 248 320 248 320 264 320 c 0,29,30
 265 320 265 320 280 316.5 c 128,-1,31
 295 313 295 313 313 313 c 0,32,33
 388 313 388 313 430 361 c 128,-1,34
 472 409 472 409 472 490.5 c 128,-1,35
 472 572 472 572 427.5 624 c 128,-1,36
 383 676 383 676 304.5 676 c 128,-1,37
 226 676 226 676 226 630 c 2,0,-1
EndSplineSet
EndChar

StartChar: Q
Encoding: 81 81 52
Width: 733
GlyphClass: 2
Flags: W
LayerCount: 2
Fore
SplineSet
35 358 m 128,-1,1
 35 521 35 521 120 626.5 c 128,-1,2
 205 732 205 732 365.5 732 c 128,-1,3
 526 732 526 732 612 626.5 c 128,-1,4
 698 521 698 521 698 358 c 0,5,6
 698 257 698 257 664 175.5 c 128,-1,7
 630 94 630 94 564 46 c 1,8,-1
 614 -65 l 2,9,10
 648 -142 648 -142 719 -142 c 0,11,12
 737 -142 737 -142 755 -135.5 c 128,-1,13
 773 -129 773 -129 774 -129 c 0,14,15
 783 -129 783 -129 783 -139 c 0,16,17
 783 -175 783 -175 755 -198.5 c 128,-1,18
 727 -222 727 -222 690 -222 c 0,19,20
 589 -222 589 -222 526 -80 c 1,21,-1
 487 5 l 1,22,23
 430 -14 430 -14 366 -14 c 0,24,25
 205 -14 205 -14 120 90.5 c 128,-1,0
 35 195 35 195 35 358 c 128,-1,1
589 355 m 0,26,27
 589 464 589 464 544 561 c 0,28,29
 521 612 521 612 476 643.5 c 128,-1,30
 431 675 431 675 371 675 c 0,31,32
 265 675 265 675 204 581.5 c 128,-1,33
 143 488 143 488 143 349 c 128,-1,34
 143 210 143 210 203 127 c 1,35,36
 201 134 201 134 201 147 c 0,37,38
 201 197 201 197 235 225.5 c 128,-1,39
 269 254 269 254 327 254 c 0,40,41
 441 254 441 254 522 126 c 1,42,43
 589 215 589 215 589 355 c 0,26,27
244 133 m 0,44,45
 244 89 244 89 278.5 67 c 128,-1,46
 313 45 313 45 363.5 45 c 128,-1,47
 414 45 414 45 458 70 c 1,48,49
 426 135 426 135 386.5 165.5 c 128,-1,50
 347 196 347 196 314 196 c 128,-1,51
 281 196 281 196 262.5 179 c 128,-1,52
 244 162 244 162 244 133 c 0,44,45
EndSplineSet
EndChar

StartChar: R
Encoding: 82 82 53
Width: 640
GlyphClass: 2
Flags: W
LayerCount: 2
Fore
SplineSet
621 26 m 1,0,1
 580 -14 580 -14 530 -14 c 128,-1,2
 480 -14 480 -14 450 14 c 128,-1,3
 420 42 420 42 391 103 c 2,4,-1
 315 264 l 2,5,6
 306 284 306 284 292.5 293 c 128,-1,7
 279 302 279 302 247 314 c 0,8,9
 228 321 228 321 228 341 c 128,-1,10
 228 361 228 361 244 361 c 0,11,12
 245 361 245 361 260 357.5 c 128,-1,13
 275 354 275 354 293 354 c 0,14,15
 368 354 368 354 410 396.5 c 128,-1,16
 452 439 452 439 452 511 c 128,-1,17
 452 583 452 583 407.5 629.5 c 128,-1,18
 363 676 363 676 284.5 676 c 128,-1,19
 206 676 206 676 206 630 c 2,20,-1
 206 201 l 2,21,22
 206 141 206 141 216 104.5 c 128,-1,23
 226 68 226 68 251 34 c 2,24,-1
 264 16 l 1,25,-1
 251 0 l 1,26,-1
 32 0 l 1,27,-1
 20 34 l 1,28,-1
 43 40 l 2,29,30
 81 50 81 50 94 69 c 128,-1,31
 107 88 107 88 107 133 c 2,32,-1
 107 627 l 2,33,34
 107 651 107 651 85 651 c 2,35,-1
 27 651 l 1,36,-1
 15 688 l 1,37,38
 58 705 58 705 128.5 718.5 c 128,-1,39
 199 732 199 732 264 732 c 0,40,41
 412 732 412 732 484 671 c 128,-1,42
 556 610 556 610 556 513 c 0,43,44
 556 439 556 439 515 384 c 128,-1,45
 474 329 474 329 394 310 c 1,46,47
 416 295 416 295 434 261 c 1,48,-1
 527 72 l 2,49,50
 542 41 542 41 563 41 c 128,-1,51
 584 41 584 41 604 55 c 1,52,-1
 621 26 l 1,0,1
EndSplineSet
EndChar

StartChar: S
Encoding: 83 83 54
Width: 572
GlyphClass: 2
Flags: W
LayerCount: 2
Fore
SplineSet
188 75 m 128,-1,1
 228 42 228 42 289 42 c 128,-1,2
 350 42 350 42 385.5 72 c 128,-1,3
 421 102 421 102 421 148 c 128,-1,4
 421 194 421 194 401 224.5 c 128,-1,5
 381 255 381 255 349.5 274 c 128,-1,6
 318 293 318 293 279.5 310.5 c 128,-1,7
 241 328 241 328 202.5 347 c 128,-1,8
 164 366 164 366 132.5 389.5 c 128,-1,9
 101 413 101 413 81 451 c 128,-1,10
 61 489 61 489 61 538 c 0,11,12
 61 618 61 618 117.5 675 c 128,-1,13
 174 732 174 732 276 732 c 128,-1,14
 378 732 378 732 441 691 c 128,-1,15
 504 650 504 650 504 585 c 0,16,17
 504 534 504 534 473.5 501 c 128,-1,18
 443 468 443 468 397 468 c 0,19,20
 376 468 376 468 376 480 c 0,21,22
 376 483 376 483 384 494 c 0,23,24
 406 529 406 529 406 573.5 c 128,-1,25
 406 618 406 618 371 647 c 128,-1,26
 336 676 336 676 278 676 c 128,-1,27
 220 676 220 676 188 642.5 c 128,-1,28
 156 609 156 609 156 567.5 c 128,-1,29
 156 526 156 526 176 498.5 c 128,-1,30
 196 471 196 471 228.5 452.5 c 128,-1,31
 261 434 261 434 300 416.5 c 128,-1,32
 339 399 339 399 378 379 c 128,-1,33
 417 359 417 359 449.5 334.5 c 128,-1,34
 482 310 482 310 502 270.5 c 128,-1,35
 522 231 522 231 522 181 c 0,36,37
 522 92 522 92 462.5 39 c 128,-1,38
 403 -14 403 -14 293 -14 c 128,-1,39
 183 -14 183 -14 114 31 c 128,-1,40
 45 76 45 76 45 147 c 0,41,42
 45 198 45 198 77.5 231 c 128,-1,43
 110 264 110 264 159 264 c 0,44,45
 180 264 180 264 180 252 c 0,46,47
 180 250 180 250 172 238 c 0,48,49
 148 204 148 204 148 156 c 128,-1,0
 148 108 148 108 188 75 c 128,-1,1
EndSplineSet
EndChar

StartChar: T
Encoding: 84 84 55
Width: 595
GlyphClass: 2
Flags: W
LayerCount: 2
Fore
SplineSet
426 661 m 2,0,-1
 381 661 l 2,1,2
 360 661 360 661 353.5 646.5 c 128,-1,3
 347 632 347 632 347 585 c 2,4,-1
 347 133 l 2,5,6
 347 87 347 87 360 69 c 128,-1,7
 373 51 373 51 411 40 c 1,8,-1
 434 34 l 1,9,-1
 422 0 l 1,10,-1
 203 0 l 1,11,-1
 190 16 l 1,12,-1
 203 34 l 2,13,14
 228 67 228 67 238 104 c 128,-1,15
 248 141 248 141 248 201 c 2,16,-1
 248 585 l 2,17,18
 248 632 248 632 241.5 646.5 c 128,-1,19
 235 661 235 661 214 661 c 2,20,-1
 169 661 l 2,21,22
 116 661 116 661 95 643.5 c 128,-1,23
 74 626 74 626 60 572 c 2,24,-1
 54 549 l 1,25,-1
 20 561 l 1,26,-1
 20 739 l 1,27,-1
 36 752 l 1,28,-1
 54 739 l 2,29,30
 82 718 82 718 168 718 c 2,31,-1
 427 718 l 2,32,33
 513 718 513 718 541 739 c 2,34,-1
 559 752 l 1,35,-1
 575 739 l 1,36,-1
 575 561 l 1,37,-1
 541 549 l 1,38,-1
 535 572 l 2,39,40
 521 626 521 626 500 643.5 c 128,-1,41
 479 661 479 661 426 661 c 2,0,-1
EndSplineSet
EndChar

StartChar: U
Encoding: 85 85 56
Width: 739
GlyphClass: 2
Flags: W
LayerCount: 2
Fore
SplineSet
210 517 m 2,0,-1
 210 220 l 2,1,2
 210 141 210 141 260 95 c 128,-1,3
 310 49 310 49 386 49 c 128,-1,4
 462 49 462 49 512 95 c 128,-1,5
 562 141 562 141 562 220 c 2,6,-1
 562 585 l 2,7,8
 562 631 562 631 549 649 c 128,-1,9
 536 667 536 667 498 678 c 1,10,-1
 475 684 l 1,11,-1
 487 718 l 1,12,-1
 677 718 l 1,13,-1
 690 702 l 1,14,-1
 677 684 l 2,15,16
 652 651 652 651 642 614 c 128,-1,17
 632 577 632 577 632 517 c 2,18,-1
 632 220 l 2,19,20
 632 102 632 102 560 44 c 128,-1,21
 488 -14 488 -14 372 -14 c 128,-1,22
 256 -14 256 -14 183.5 44 c 128,-1,23
 111 102 111 102 111 220 c 2,24,-1
 111 585 l 2,25,26
 111 631 111 631 98 649 c 128,-1,27
 85 667 85 667 47 678 c 1,28,-1
 24 684 l 1,29,-1
 36 718 l 1,30,-1
 255 718 l 1,31,-1
 268 702 l 1,32,-1
 255 684 l 2,33,34
 230 651 230 651 220 614 c 128,-1,35
 210 577 210 577 210 517 c 2,0,-1
EndSplineSet
EndChar

StartChar: V
Encoding: 86 86 57
Width: 682
GlyphClass: 2
Flags: W
LayerCount: 2
Fore
SplineSet
197.5 662 m 128,-1,1
 187 652 187 652 187 635 c 128,-1,2
 187 618 187 618 198 585 c 2,3,-1
 361 83 l 1,4,-1
 501 518 l 2,5,6
 520 578 520 578 520 611 c 1,7,8
 518 666 518 666 475 678 c 2,9,-1
 452 684 l 1,10,-1
 464 718 l 1,11,-1
 654 718 l 1,12,-1
 667 702 l 1,13,-1
 652 684 l 2,14,15
 615 640 615 640 597 584 c 2,16,-1
 404 0 l 1,17,-1
 290 0 l 1,18,-1
 95 580 l 2,19,20
 80 626 80 626 61 650 c 128,-1,21
 42 674 42 674 5 702 c 1,22,-1
 18 718 l 1,23,-1
 243 718 l 1,24,-1
 255 684 l 1,25,-1
 232 678 l 2,26,0
 208 672 208 672 197.5 662 c 128,-1,1
EndSplineSet
EndChar

StartChar: W
Encoding: 87 87 58
Width: 1087
GlyphClass: 2
Flags: W
LayerCount: 2
Fore
SplineSet
197.5 662 m 128,-1,1
 187 652 187 652 187 635 c 128,-1,2
 187 618 187 618 198 585 c 2,3,-1
 361 83 l 1,4,-1
 510 548 l 1,5,-1
 500 580 l 2,6,7
 485 626 485 626 466 650 c 128,-1,8
 447 674 447 674 410 702 c 1,9,-1
 423 718 l 1,10,-1
 648 718 l 1,11,-1
 660 684 l 1,12,-1
 637 678 l 2,13,14
 613 672 613 672 602.5 662 c 128,-1,15
 592 652 592 652 592 635 c 128,-1,16
 592 618 592 618 603 585 c 2,17,-1
 766 83 l 1,18,-1
 906 518 l 2,19,20
 925 578 925 578 925 611 c 1,21,22
 923 666 923 666 880 678 c 2,23,-1
 857 684 l 1,24,-1
 869 718 l 1,25,-1
 1059 718 l 1,26,-1
 1072 702 l 1,27,-1
 1057 684 l 2,28,29
 1020 640 1020 640 1002 584 c 2,30,-1
 809 0 l 1,31,-1
 695 0 l 1,32,-1
 548 436 l 1,33,-1
 404 0 l 1,34,-1
 290 0 l 1,35,-1
 95 580 l 2,36,37
 80 626 80 626 61 650 c 128,-1,38
 42 674 42 674 5 702 c 1,39,-1
 18 718 l 1,40,-1
 243 718 l 1,41,-1
 255 684 l 1,42,-1
 232 678 l 2,43,0
 208 672 208 672 197.5 662 c 128,-1,1
EndSplineSet
EndChar

StartChar: X
Encoding: 88 88 59
Width: 680
GlyphClass: 2
Flags: W
LayerCount: 2
Fore
SplineSet
456 583 m 2,0,1
 477 616 477 616 477 635.5 c 128,-1,2
 477 655 477 655 464 684 c 1,3,-1
 455 702 l 1,4,-1
 474 718 l 1,5,-1
 658 718 l 1,6,-1
 670 684 l 1,7,-1
 647 678 l 2,8,9
 596 664 596 664 569 624 c 2,10,-1
 394 371 l 1,11,-1
 574 116 l 2,12,13
 623 47 623 47 661 16 c 1,14,-1
 648 0 l 1,15,-1
 411 0 l 1,16,-1
 399 34 l 1,17,-1
 422 40 l 2,18,19
 461 51 461 51 461 80 c 128,-1,20
 461 109 461 109 439 142 c 1,21,-1
 330 295 l 1,22,-1
 224 135 l 2,23,24
 203 102 203 102 203 82.5 c 128,-1,25
 203 63 203 63 216 34 c 1,26,-1
 225 16 l 1,27,-1
 206 0 l 1,28,-1
 22 0 l 1,29,-1
 10 34 l 1,30,-1
 33 40 l 2,31,32
 84 54 84 54 111 94 c 2,33,-1
 290 353 l 1,34,-1
 119 596 l 1,35,36
 67 668 67 668 28 702 c 1,37,-1
 41 718 l 1,38,-1
 278 718 l 1,39,-1
 290 684 l 1,40,-1
 267 678 l 2,41,42
 228 667 228 667 228 638 c 128,-1,43
 228 609 228 609 250 576 c 2,44,-1
 353 429 l 1,45,-1
 456 583 l 2,0,1
EndSplineSet
EndChar

StartChar: Y
Encoding: 89 89 60
Width: 626
GlyphClass: 2
Flags: W
LayerCount: 2
Fore
SplineSet
439 584 m 2,0,1
 451 606 451 606 451 625.5 c 128,-1,2
 451 645 451 645 438.5 659 c 128,-1,3
 426 673 426 673 409 678 c 2,4,-1
 386 684 l 1,5,-1
 398 718 l 1,6,-1
 588 718 l 1,7,-1
 601 702 l 1,8,-1
 586 684 l 2,9,10
 551 642 551 642 515 578 c 2,11,-1
 360 303 l 1,12,-1
 360 133 l 2,13,14
 360 88 360 88 374 69 c 128,-1,15
 388 50 388 50 426 40 c 2,16,-1
 449 34 l 1,17,-1
 437 0 l 1,18,-1
 218 0 l 1,19,-1
 205 16 l 1,20,-1
 218 34 l 2,21,22
 243 69 243 69 254 105.5 c 128,-1,23
 265 142 265 142 265 201 c 2,24,-1
 265 295 l 1,25,-1
 105 576 l 2,26,27
 56 663 56 663 5 702 c 1,28,-1
 18 718 l 1,29,-1
 243 718 l 1,30,-1
 255 684 l 1,31,-1
 232 678 l 2,32,33
 208 672 208 672 197.5 662 c 128,-1,34
 187 652 187 652 187 638.5 c 128,-1,35
 187 625 187 625 218 571 c 2,36,-1
 326 382 l 1,37,-1
 439 584 l 2,0,1
EndSplineSet
EndChar

StartChar: Z
Encoding: 90 90 61
Width: 590
GlyphClass: 2
Flags: W
LayerCount: 2
Fore
SplineSet
205 718 m 2,0,-1
 570 718 l 1,1,-1
 175 57 l 1,2,-1
 401 57 l 2,3,4
 454 57 454 57 475 74.5 c 128,-1,5
 496 92 496 92 510 146 c 2,6,-1
 516 169 l 1,7,-1
 550 157 l 1,8,-1
 550 -14 l 1,9,-1
 530 -25 l 1,10,-1
 522 -14 l 2,11,12
 511 0 511 0 480 0 c 2,13,-1
 20 0 l 1,14,-1
 417 661 l 1,15,-1
 206 661 l 2,16,17
 153 661 153 661 132 643.5 c 128,-1,18
 111 626 111 626 97 572 c 2,19,-1
 91 549 l 1,20,-1
 57 561 l 1,21,-1
 57 739 l 1,22,-1
 73 752 l 1,23,-1
 91 739 l 2,24,25
 119 718 119 718 205 718 c 2,0,-1
EndSplineSet
EndChar

StartChar: bracketleft
Encoding: 91 91 62
Width: 387
GlyphClass: 2
Flags: W
LayerCount: 2
Fore
SplineSet
126 -112 m 1,0,-1
 126 774 l 1,1,-1
 360 774 l 1,2,-1
 360 726 l 1,3,-1
 280 714 l 2,4,5
 250 709 250 709 237.5 698 c 128,-1,6
 225 687 225 687 225 661 c 2,7,-1
 225 1 l 2,8,9
 225 -25 225 -25 237.5 -36 c 128,-1,10
 250 -47 250 -47 280 -52 c 2,11,-1
 360 -64 l 1,12,-1
 360 -112 l 1,13,-1
 126 -112 l 1,0,-1
EndSplineSet
EndChar

StartChar: backslash
Encoding: 92 92 63
Width: 371
GlyphClass: 2
Flags: W
LayerCount: 2
Fore
SplineSet
371 -63 m 1,0,-1
 300 -63 l 1,1,-1
 0 781 l 1,2,-1
 72 781 l 1,3,-1
 371 -63 l 1,0,-1
EndSplineSet
EndChar

StartChar: bracketright
Encoding: 93 93 64
Width: 387
GlyphClass: 2
Flags: W
LayerCount: 2
Fore
SplineSet
261 774 m 1,0,-1
 261 -112 l 1,1,-1
 27 -112 l 1,2,-1
 27 -64 l 1,3,-1
 107 -52 l 2,4,5
 137 -47 137 -47 149.5 -36 c 128,-1,6
 162 -25 162 -25 162 1 c 2,7,-1
 162 661 l 2,8,9
 162 687 162 687 149.5 698 c 128,-1,10
 137 709 137 709 107 714 c 2,11,-1
 27 726 l 1,12,-1
 27 774 l 1,13,-1
 261 774 l 1,0,-1
EndSplineSet
EndChar

StartChar: asciicircum
Encoding: 94 94 65
Width: 621
GlyphClass: 2
Flags: W
LayerCount: 2
Fore
SplineSet
267 718 m 1,0,-1
 353 718 l 1,1,-1
 524 398 l 1,2,-1
 443 398 l 1,3,-1
 309 653 l 1,4,-1
 177 398 l 1,5,-1
 96 398 l 1,6,-1
 267 718 l 1,0,-1
EndSplineSet
EndChar

StartChar: underscore
Encoding: 95 95 66
Width: 355
GlyphClass: 2
Flags: W
LayerCount: 2
Fore
SplineSet
-26 -84 m 1,0,1
 -26 -35 -26 -35 0 -14 c 1,2,-1
 381 -14 l 1,3,4
 381 -64 381 -64 355 -84 c 1,5,-1
 -26 -84 l 1,0,1
EndSplineSet
EndChar

StartChar: grave
Encoding: 96 96 67
Width: 288
GlyphClass: 2
Flags: W
LayerCount: 2
Fore
SplineSet
110 625 m 2,0,1
 54 652 54 652 54 696 c 128,-1,2
 54 740 54 740 96 760 c 1,3,-1
 252 604 l 1,4,-1
 223 569 l 1,5,-1
 110 625 l 2,0,1
EndSplineSet
EndChar

StartChar: a
Encoding: 97 97 68
Width: 604
GlyphClass: 2
Flags: W
LayerCount: 2
Fore
SplineSet
224 -14 m 0,0,1
 149 -14 149 -14 97 49.5 c 128,-1,2
 45 113 45 113 45 236 c 128,-1,3
 45 359 45 359 115 434.5 c 128,-1,4
 185 510 185 510 304 510 c 0,5,6
 338 510 338 510 406.5 498.5 c 128,-1,7
 475 487 475 487 504 485 c 1,8,-1
 515 472 l 1,9,-1
 503 454 l 2,10,11
 490 434 490 434 490 415 c 2,12,-1
 490 88 l 2,13,14
 490 57 490 57 520 57 c 0,15,16
 544 57 544 57 570 75 c 1,17,-1
 589 49 l 1,18,19
 532 -14 532 -14 478 -14 c 0,20,21
 437 -14 437 -14 419 11 c 128,-1,22
 401 36 401 36 401 92 c 1,23,24
 325 -14 325 -14 224 -14 c 0,0,1
190 400.5 m 128,-1,26
 150 346 150 346 150 249.5 c 128,-1,27
 150 153 150 153 182.5 108 c 128,-1,28
 215 63 215 63 264 63 c 0,29,30
 348 63 348 63 401 154 c 1,31,-1
 401 424 l 1,32,33
 355 455 355 455 303 455 c 0,34,25
 230 455 230 455 190 400.5 c 128,-1,26
EndSplineSet
EndChar

StartChar: b
Encoding: 98 98 69
Width: 590
GlyphClass: 2
Flags: W
LayerCount: 2
Fore
SplineSet
301 454 m 0,0,1
 277 454 277 454 257.5 447.5 c 128,-1,2
 238 441 238 441 234.5 441 c 128,-1,3
 231 441 231 441 226.5 448 c 128,-1,4
 222 455 222 455 222 465 c 128,-1,5
 222 475 222 475 231 481 c 0,6,7
 277 510 277 510 332 510 c 0,8,9
 426 510 426 510 485.5 442.5 c 128,-1,10
 545 375 545 375 545 261 c 128,-1,11
 545 147 545 147 471 66.5 c 128,-1,12
 397 -14 397 -14 279 -14 c 128,-1,13
 161 -14 161 -14 98 49 c 1,14,-1
 98 674 l 2,15,16
 98 696 98 696 78 696 c 2,17,-1
 34 696 l 1,18,-1
 25 722 l 1,19,20
 54 748 54 748 91 765 c 128,-1,21
 128 782 128 782 150 782 c 0,22,23
 189 782 189 782 189 750 c 2,24,-1
 189 74 l 1,25,26
 234 42 234 42 297.5 42 c 128,-1,27
 361 42 361 42 400 97.5 c 128,-1,28
 439 153 439 153 439 246.5 c 128,-1,29
 439 340 439 340 400.5 397 c 128,-1,30
 362 454 362 454 301 454 c 0,0,1
EndSplineSet
EndChar

StartChar: c
Encoding: 99 99 70
Width: 509
GlyphClass: 2
Flags: W
LayerCount: 2
Fore
SplineSet
435 103 m 0,0,1
 438 106 438 106 445 106 c 128,-1,2
 452 106 452 106 460.5 97 c 128,-1,3
 469 88 469 88 469 80 c 128,-1,4
 469 72 469 72 466 69 c 0,5,6
 394 -14 394 -14 287.5 -14 c 128,-1,7
 181 -14 181 -14 113 60 c 128,-1,8
 45 134 45 134 45 250.5 c 128,-1,9
 45 367 45 367 111 438.5 c 128,-1,10
 177 510 177 510 287 510 c 0,11,12
 364 510 364 510 413.5 472.5 c 128,-1,13
 463 435 463 435 463 376 c 0,14,15
 463 333 463 333 435.5 305.5 c 128,-1,16
 408 278 408 278 365 278 c 0,17,18
 346 278 346 278 346 289 c 0,19,20
 346 291 346 291 352 300 c 0,21,22
 370 329 370 329 370 370 c 128,-1,23
 370 411 370 411 344.5 434.5 c 128,-1,24
 319 458 319 458 276 458 c 0,25,26
 219 458 219 458 184 402 c 128,-1,27
 149 346 149 346 149 254 c 128,-1,28
 149 162 149 162 190.5 107.5 c 128,-1,29
 232 53 232 53 303.5 53 c 128,-1,30
 375 53 375 53 435 103 c 0,0,1
EndSplineSet
EndChar

StartChar: d
Encoding: 100 100 71
Width: 604
GlyphClass: 2
Flags: W
LayerCount: 2
Fore
SplineSet
190 400.5 m 128,-1,1
 150 346 150 346 150 249.5 c 128,-1,2
 150 153 150 153 182.5 108 c 128,-1,3
 215 63 215 63 264 63 c 0,4,5
 348 63 348 63 401 154 c 1,6,-1
 401 424 l 1,7,8
 355 455 355 455 303 455 c 0,9,0
 230 455 230 455 190 400.5 c 128,-1,1
490 750 m 2,10,-1
 490 88 l 2,11,12
 490 57 490 57 520 57 c 0,13,14
 544 57 544 57 570 75 c 1,15,-1
 589 49 l 1,16,17
 532 -14 532 -14 478 -14 c 0,18,19
 437 -14 437 -14 419 11 c 128,-1,20
 401 36 401 36 401 92 c 1,21,22
 325 -14 325 -14 224 -14 c 0,23,24
 149 -14 149 -14 97 49.5 c 128,-1,25
 45 113 45 113 45 236 c 128,-1,26
 45 359 45 359 115 434.5 c 128,-1,27
 185 510 185 510 304 510 c 0,28,29
 356 510 356 510 399 497 c 1,30,-1
 399 674 l 2,31,32
 399 696 399 696 379 696 c 2,33,-1
 335 696 l 1,34,-1
 326 722 l 1,35,36
 355 748 355 748 392.5 765 c 128,-1,37
 430 782 430 782 451 782 c 0,38,39
 490 782 490 782 490 750 c 2,10,-1
EndSplineSet
EndChar

StartChar: e
Encoding: 101 101 72
Width: 529
GlyphClass: 2
Flags: W
LayerCount: 2
Fore
SplineSet
275 -14 m 0,0,1
 170 -14 170 -14 107.5 56 c 128,-1,2
 45 126 45 126 45 244.5 c 128,-1,3
 45 363 45 363 116 436.5 c 128,-1,4
 187 510 187 510 304 510 c 0,5,6
 386 510 386 510 430 467 c 128,-1,7
 474 424 474 424 474 360 c 128,-1,8
 474 296 474 296 422.5 245 c 128,-1,9
 371 194 371 194 283 194 c 0,10,11
 251 194 251 194 212 206 c 128,-1,12
 173 218 173 218 173 241 c 0,13,14
 173 249 173 249 177.5 256 c 128,-1,15
 182 263 182 263 185.5 263 c 128,-1,16
 189 263 189 263 208.5 256.5 c 128,-1,17
 228 250 228 250 252 250 c 0,18,19
 312 250 312 250 345.5 284 c 128,-1,20
 379 318 379 318 379 360.5 c 128,-1,21
 379 403 379 403 354 431.5 c 128,-1,22
 329 460 329 460 284 460 c 0,23,24
 220 460 220 460 184 403.5 c 128,-1,25
 148 347 148 347 148 250 c 128,-1,26
 148 153 148 153 186 102.5 c 128,-1,27
 224 52 224 52 304 52 c 128,-1,28
 384 52 384 52 442 109 c 0,29,30
 446 113 446 113 452.5 113 c 128,-1,31
 459 113 459 113 468 103.5 c 128,-1,32
 477 94 477 94 477 86.5 c 128,-1,33
 477 79 477 79 473 75 c 0,34,35
 396 -14 396 -14 275 -14 c 0,0,1
EndSplineSet
EndChar

StartChar: f
Encoding: 102 102 73
Width: 334
GlyphClass: 2
Flags: W
LayerCount: 2
Fore
SplineSet
295 782 m 0,0,1
 360 782 360 782 402 751 c 128,-1,2
 444 720 444 720 444 674 c 128,-1,3
 444 628 444 628 416.5 600.5 c 128,-1,4
 389 573 389 573 346 573 c 0,5,6
 327 573 327 573 327 584 c 0,7,8
 327 586 327 586 333 596 c 0,9,10
 351 624 351 624 351 661 c 128,-1,11
 351 698 351 698 333 717.5 c 128,-1,12
 315 737 315 737 284 737 c 0,13,14
 199 737 199 737 199 573 c 2,15,-1
 199 497 l 1,16,-1
 339 497 l 1,17,18
 339 452 339 452 316 434 c 1,19,-1
 199 434 l 1,20,-1
 199 -13 l 2,21,22
 199 -117 199 -117 153.5 -177.5 c 128,-1,23
 108 -238 108 -238 19 -238 c 0,24,25
 -35 -238 -35 -238 -70 -210.5 c 128,-1,26
 -105 -183 -105 -183 -105 -140.5 c 128,-1,27
 -105 -98 -105 -98 -77 -72 c 128,-1,28
 -49 -46 -49 -46 -7 -46 c 0,29,30
 12 -46 12 -46 12 -57 c 0,31,32
 12 -60 12 -60 5 -68 c 0,33,34
 -16 -94 -16 -94 -16 -127 c 128,-1,35
 -16 -160 -16 -160 -0.5 -177.5 c 128,-1,36
 15 -195 15 -195 42 -195 c 128,-1,37
 69 -195 69 -195 89 -168.5 c 128,-1,38
 109 -142 109 -142 109 -90 c 2,39,-1
 109 434 l 1,40,-1
 21 434 l 1,41,42
 21 461 21 461 25 469 c 128,-1,43
 29 477 29 477 45 481 c 2,44,-1
 109 497 l 1,45,46
 109 630 109 630 156 706 c 128,-1,47
 203 782 203 782 295 782 c 0,0,1
EndSplineSet
EndChar

StartChar: g
Encoding: 103 103 74
Width: 602
GlyphClass: 2
Flags: W
LayerCount: 2
Fore
SplineSet
205 400.5 m 128,-1,1
 165 346 165 346 165 257 c 128,-1,2
 165 168 165 168 197.5 130 c 128,-1,3
 230 92 230 92 279 92 c 0,4,5
 363 92 363 92 416 183 c 1,6,-1
 416 424 l 1,7,8
 370 455 370 455 318 455 c 0,9,0
 245 455 245 455 205 400.5 c 128,-1,1
296 -226 m 0,10,11
 358 -226 358 -226 387 -175 c 128,-1,12
 416 -124 416 -124 416 -38 c 2,13,-1
 416 121 l 1,14,15
 340 15 340 15 239 15 c 0,16,17
 164 15 164 15 112 71 c 128,-1,18
 60 127 60 127 60 229 c 0,19,20
 60 359 60 359 130 434.5 c 128,-1,21
 200 510 200 510 319 510 c 0,22,23
 353 510 353 510 421.5 498.5 c 128,-1,24
 490 487 490 487 519 485 c 1,25,-1
 530 472 l 1,26,-1
 518 454 l 2,27,28
 505 434 505 434 505 415 c 2,29,-1
 505 -22 l 2,30,31
 505 -145 505 -145 445.5 -211.5 c 128,-1,32
 386 -278 386 -278 283 -278 c 0,33,34
 201 -278 201 -278 156.5 -235.5 c 128,-1,35
 112 -193 112 -193 112 -139 c 128,-1,36
 112 -85 112 -85 146 -49.5 c 128,-1,37
 180 -14 180 -14 239 -14 c 0,38,39
 258 -14 258 -14 258 -25 c 0,40,41
 258 -29 258 -29 246 -41 c 128,-1,42
 234 -53 234 -53 221.5 -77 c 128,-1,43
 209 -101 209 -101 209 -137 c 128,-1,44
 209 -173 209 -173 232.5 -199.5 c 128,-1,45
 256 -226 256 -226 296 -226 c 0,10,11
EndSplineSet
EndChar

StartChar: h
Encoding: 104 104 75
Width: 639
GlyphClass: 2
Flags: W
LayerCount: 2
Fore
SplineSet
108 111 m 2,0,-1
 108 674 l 2,1,2
 108 696 108 696 88 696 c 2,3,-1
 44 696 l 1,4,-1
 35 722 l 1,5,6
 64 748 64 748 101 765 c 128,-1,7
 138 782 138 782 160 782 c 0,8,9
 199 782 199 782 199 750 c 2,10,-1
 199 361 l 1,11,12
 225 426 225 426 277 468 c 128,-1,13
 329 510 329 510 394 510 c 128,-1,14
 459 510 459 510 489.5 467 c 128,-1,15
 520 424 520 424 520 328 c 2,16,-1
 520 86 l 2,17,18
 520 52 520 52 550 52 c 0,19,20
 574 52 574 52 600 73 c 1,21,-1
 619 47 l 1,22,23
 562 -16 562 -16 507 -16 c 0,24,25
 466 -16 466 -16 448 9 c 128,-1,26
 430 34 430 34 430 90 c 2,27,-1
 430 328 l 2,28,29
 430 381 430 381 410.5 406.5 c 128,-1,30
 391 432 391 432 344 432 c 0,31,32
 279 432 279 432 239 356.5 c 128,-1,33
 199 281 199 281 199 160 c 0,34,35
 199 76 199 76 231 31 c 1,36,-1
 243 15 l 1,37,-1
 231 0 l 1,38,-1
 56 0 l 1,39,-1
 45 31 l 1,40,-1
 66 36 l 2,41,42
 91 42 91 42 99.5 57.5 c 128,-1,43
 108 73 108 73 108 111 c 2,0,-1
EndSplineSet
EndChar

StartChar: i
Encoding: 105 105 76
Width: 312
GlyphClass: 2
Flags: W
LayerCount: 2
Fore
SplineSet
92 658 m 128,-1,1
 92 677 92 677 113.5 700.5 c 128,-1,2
 135 724 135 724 153.5 724 c 128,-1,3
 172 724 172 724 194 701 c 128,-1,4
 216 678 216 678 216 658.5 c 128,-1,5
 216 639 216 639 194 616 c 128,-1,6
 172 593 172 593 154 593 c 128,-1,7
 136 593 136 593 114 616 c 128,-1,0
 92 639 92 639 92 658 c 128,-1,1
228 54 m 0,8,9
 252 54 252 54 278 75 c 1,10,-1
 297 49 l 1,11,12
 240 -14 240 -14 185 -14 c 0,13,14
 144 -14 144 -14 126 11 c 128,-1,15
 108 36 108 36 108 92 c 2,16,-1
 108 402 l 2,17,18
 108 424 108 424 88 424 c 2,19,-1
 44 424 l 1,20,-1
 35 450 l 1,21,22
 64 476 64 476 101 493 c 128,-1,23
 138 510 138 510 160 510 c 0,24,25
 199 510 199 510 199 478 c 2,26,-1
 198 88 l 2,27,28
 198 54 198 54 228 54 c 0,8,9
EndSplineSet
EndChar

StartChar: j
Encoding: 106 106 77
Width: 291
GlyphClass: 2
Flags: W
LayerCount: 2
Fore
SplineSet
87 658 m 128,-1,1
 87 677 87 677 108.5 700.5 c 128,-1,2
 130 724 130 724 148.5 724 c 128,-1,3
 167 724 167 724 189 701 c 128,-1,4
 211 678 211 678 211 658.5 c 128,-1,5
 211 639 211 639 189 616 c 128,-1,6
 167 593 167 593 149 593 c 128,-1,7
 131 593 131 593 109 616 c 128,-1,0
 87 639 87 639 87 658 c 128,-1,1
103 -130 m 2,8,-1
 103 402 l 2,9,10
 103 424 103 424 83 424 c 2,11,-1
 39 424 l 1,12,-1
 30 450 l 1,13,14
 59 476 59 476 96.5 493 c 128,-1,15
 134 510 134 510 155 510 c 0,16,17
 194 510 194 510 194 478 c 2,18,-1
 194 -53 l 2,19,20
 194 -157 194 -157 148.5 -217.5 c 128,-1,21
 103 -278 103 -278 13 -278 c 0,22,23
 -41 -278 -41 -278 -76 -250.5 c 128,-1,24
 -111 -223 -111 -223 -111 -180.5 c 128,-1,25
 -111 -138 -111 -138 -83 -112 c 128,-1,26
 -55 -86 -55 -86 -13 -86 c 0,27,28
 6 -86 6 -86 6 -97 c 0,29,30
 6 -100 6 -100 -1 -108 c 0,31,32
 -22 -134 -22 -134 -22 -167 c 128,-1,33
 -22 -200 -22 -200 -6.5 -217.5 c 128,-1,34
 9 -235 9 -235 36 -235 c 128,-1,35
 63 -235 63 -235 83 -208.5 c 128,-1,36
 103 -182 103 -182 103 -130 c 2,8,-1
EndSplineSet
EndChar

StartChar: k
Encoding: 107 107 78
Width: 584
GlyphClass: 2
Flags: W
LayerCount: 2
Fore
SplineSet
253 236 m 1,0,1
 234 241 234 241 234 258.5 c 128,-1,2
 234 276 234 276 249 276 c 0,3,4
 250 276 250 276 269.5 271.5 c 128,-1,5
 289 267 289 267 313 267 c 0,6,7
 367 267 367 267 397.5 298.5 c 128,-1,8
 428 330 428 330 428 365 c 128,-1,9
 428 400 428 400 410.5 420.5 c 128,-1,10
 393 441 393 441 361 441 c 0,11,12
 287 441 287 441 243 363.5 c 128,-1,13
 199 286 199 286 199 160 c 0,14,15
 199 73 199 73 231 31 c 2,16,-1
 243 15 l 1,17,-1
 231 0 l 1,18,-1
 56 0 l 1,19,-1
 45 31 l 1,20,-1
 66 36 l 2,21,22
 91 42 91 42 99.5 57.5 c 128,-1,23
 108 73 108 73 108 111 c 2,24,-1
 108 674 l 2,25,26
 108 696 108 696 88 696 c 2,27,-1
 44 696 l 1,28,-1
 35 722 l 1,29,30
 64 748 64 748 101 765 c 128,-1,31
 138 782 138 782 160 782 c 0,32,33
 199 782 199 782 199 750 c 2,34,-1
 199 361 l 1,35,36
 224 427 224 427 274.5 468.5 c 128,-1,37
 325 510 325 510 385.5 510 c 128,-1,38
 446 510 446 510 482 472 c 128,-1,39
 518 434 518 434 518 379 c 128,-1,40
 518 324 518 324 478 278.5 c 128,-1,41
 438 233 438 233 370 225 c 1,42,-1
 448 77 l 2,43,44
 462 49 462 49 489.5 49 c 128,-1,45
 517 49 517 49 543 75 c 1,46,-1
 564 49 l 1,47,48
 518 -14 518 -14 457 -14 c 0,49,50
 414 -14 414 -14 390.5 9.5 c 128,-1,51
 367 33 367 33 336 92 c 2,52,-1
 262 233 l 1,53,-1
 253 236 l 1,0,1
EndSplineSet
EndChar

StartChar: l
Encoding: 108 108 79
Width: 302
GlyphClass: 2
Flags: W
LayerCount: 2
Fore
SplineSet
218 54 m 0,0,1
 242 54 242 54 268 75 c 1,2,-1
 287 49 l 1,3,4
 230 -14 230 -14 175 -14 c 0,5,6
 134 -14 134 -14 116 11 c 128,-1,7
 98 36 98 36 98 92 c 2,8,-1
 98 674 l 2,9,10
 98 696 98 696 78 696 c 2,11,-1
 34 696 l 1,12,-1
 25 722 l 1,13,14
 54 748 54 748 91 765 c 128,-1,15
 128 782 128 782 150 782 c 0,16,17
 189 782 189 782 189 750 c 2,18,-1
 188 88 l 2,19,20
 188 54 188 54 218 54 c 0,0,1
EndSplineSet
EndChar

StartChar: m
Encoding: 109 109 80
Width: 941
GlyphClass: 2
Flags: W
LayerCount: 2
Fore
SplineSet
204 160 m 0,0,1
 204 76 204 76 236 31 c 1,2,-1
 248 15 l 1,3,-1
 236 0 l 1,4,-1
 61 0 l 1,5,-1
 50 31 l 1,6,-1
 71 36 l 2,7,8
 96 42 96 42 104.5 57.5 c 128,-1,9
 113 73 113 73 113 111 c 2,10,-1
 113 392 l 2,11,12
 113 414 113 414 93 414 c 2,13,-1
 49 414 l 1,14,-1
 40 440 l 1,15,16
 69 466 69 466 106.5 483 c 128,-1,17
 144 500 144 500 165 500 c 0,18,19
 204 500 204 500 204 468 c 2,20,-1
 204 361 l 1,21,22
 230 427 230 427 280 468.5 c 128,-1,23
 330 510 330 510 388 510 c 128,-1,24
 446 510 446 510 477 474 c 128,-1,25
 508 438 508 438 513 361 c 1,26,27
 539 427 539 427 589 468.5 c 128,-1,28
 639 510 639 510 700 510 c 128,-1,29
 761 510 761 510 791.5 467 c 128,-1,30
 822 424 822 424 822 330 c 2,31,-1
 822 88 l 2,32,33
 822 54 822 54 852 54 c 0,34,35
 875 54 875 54 902 75 c 1,36,-1
 921 49 l 1,37,38
 864 -14 864 -14 809 -14 c 0,39,40
 768 -14 768 -14 750 11 c 128,-1,41
 732 36 732 36 732 92 c 2,42,-1
 732 330 l 2,43,44
 732 432 732 432 658 432 c 0,45,46
 595 432 595 432 555 360 c 128,-1,47
 515 288 515 288 513 172 c 1,48,-1
 513 160 l 2,49,50
 513 108 513 108 521.5 77.5 c 128,-1,51
 530 47 530 47 557 15 c 1,52,-1
 545 0 l 1,53,-1
 423 0 l 1,54,-1
 423 330 l 2,55,56
 423 432 423 432 349 432 c 0,57,58
 284 432 284 432 244 356.5 c 128,-1,59
 204 281 204 281 204 160 c 0,0,1
EndSplineSet
EndChar

StartChar: n
Encoding: 110 110 81
Width: 644
GlyphClass: 2
Flags: W
LayerCount: 2
Fore
SplineSet
204 160 m 0,0,1
 204 76 204 76 236 31 c 1,2,-1
 248 15 l 1,3,-1
 236 0 l 1,4,-1
 61 0 l 1,5,-1
 50 31 l 1,6,-1
 71 36 l 2,7,8
 96 42 96 42 104.5 57.5 c 128,-1,9
 113 73 113 73 113 111 c 2,10,-1
 113 392 l 2,11,12
 113 414 113 414 93 414 c 2,13,-1
 49 414 l 1,14,-1
 40 440 l 1,15,16
 69 466 69 466 106.5 483 c 128,-1,17
 144 500 144 500 165 500 c 0,18,19
 204 500 204 500 204 468 c 2,20,-1
 204 361 l 1,21,22
 230 426 230 426 282 468 c 128,-1,23
 334 510 334 510 397.5 510 c 128,-1,24
 461 510 461 510 493 467 c 128,-1,25
 525 424 525 424 525 330 c 2,26,-1
 525 88 l 2,27,28
 525 54 525 54 555 54 c 0,29,30
 578 54 578 54 605 75 c 1,31,-1
 624 49 l 1,32,33
 567 -14 567 -14 512 -14 c 0,34,35
 471 -14 471 -14 453 11 c 128,-1,36
 435 36 435 36 435 92 c 2,37,-1
 435 330 l 2,38,39
 435 432 435 432 349 432 c 0,40,41
 284 432 284 432 244 356.5 c 128,-1,42
 204 281 204 281 204 160 c 0,0,1
EndSplineSet
EndChar

StartChar: o
Encoding: 111 111 82
Width: 578
GlyphClass: 2
Flags: W
LayerCount: 2
Fore
SplineSet
400 381 m 0,0,1
 386 415 386 415 358 436.5 c 128,-1,2
 330 458 330 458 292 458 c 0,3,4
 228 458 228 458 188.5 399.5 c 128,-1,5
 149 341 149 341 149 246.5 c 128,-1,6
 149 152 149 152 186 96 c 128,-1,7
 223 40 223 40 286 40 c 128,-1,8
 349 40 349 40 388.5 96.5 c 128,-1,9
 428 153 428 153 428 235 c 128,-1,10
 428 317 428 317 400 381 c 0,0,1
111 57 m 128,-1,12
 45 128 45 128 45 248.5 c 128,-1,13
 45 369 45 369 111 439.5 c 128,-1,14
 177 510 177 510 289 510 c 128,-1,15
 401 510 401 510 467 439.5 c 128,-1,16
 533 369 533 369 533 248.5 c 128,-1,17
 533 128 533 128 467 57 c 128,-1,18
 401 -14 401 -14 289 -14 c 128,-1,11
 177 -14 177 -14 111 57 c 128,-1,12
EndSplineSet
EndChar

StartChar: p
Encoding: 112 112 83
Width: 595
GlyphClass: 2
Flags: W
LayerCount: 2
Fore
SplineSet
193 452 m 2,0,-1
 193 447 l 1,1,2
 258 510 258 510 344.5 510 c 128,-1,3
 431 510 431 510 490.5 442.5 c 128,-1,4
 550 375 550 375 550 260.5 c 128,-1,5
 550 146 550 146 487.5 66 c 128,-1,6
 425 -14 425 -14 330 -14 c 0,7,8
 270 -14 270 -14 230 13 c 0,9,10
 221 19 221 19 221 31 c 0,11,12
 221 56 221 56 236 56 c 0,13,14
 237 56 237 56 258.5 48 c 128,-1,15
 280 40 280 40 307 40 c 0,16,17
 367 40 367 40 405.5 99 c 128,-1,18
 444 158 444 158 444 246.5 c 128,-1,19
 444 335 444 335 405.5 389.5 c 128,-1,20
 367 444 367 444 305.5 444 c 128,-1,21
 244 444 244 444 193 405 c 1,22,-1
 193 -155 l 2,23,24
 193 -193 193 -193 201.5 -208.5 c 128,-1,25
 210 -224 210 -224 235 -230 c 2,26,-1
 256 -235 l 1,27,-1
 245 -266 l 1,28,-1
 71 -266 l 1,29,-1
 59 -251 l 1,30,-1
 71 -235 l 1,31,32
 103 -190 103 -190 103 -106 c 2,33,-1
 103 381 l 2,34,35
 103 409 103 409 82 414 c 2,36,-1
 30 425 l 1,37,-1
 30 458 l 1,38,39
 46 472 46 472 91 485 c 128,-1,40
 136 498 136 498 169 498 c 0,41,42
 193 498 193 498 193 452 c 2,0,-1
EndSplineSet
EndChar

StartChar: q
Encoding: 113 113 84
Width: 589
GlyphClass: 2
Flags: W
LayerCount: 2
Fore
SplineSet
492 415 m 2,0,-1
 492 -118 l 2,1,2
 492 -201 492 -201 516 -235 c 1,3,-1
 526 -251 l 1,4,-1
 514 -266 l 1,5,-1
 328 -266 l 1,6,-1
 328 -233 l 1,7,-1
 359 -219 l 2,8,9
 383 -208 383 -208 392 -193 c 128,-1,10
 401 -178 401 -178 401 -146 c 2,11,-1
 401 92 l 1,12,13
 325 -14 325 -14 224 -14 c 0,14,15
 149 -14 149 -14 97 49.5 c 128,-1,16
 45 113 45 113 45 236 c 128,-1,17
 45 359 45 359 115 434.5 c 128,-1,18
 185 510 185 510 304 510 c 0,19,20
 338 510 338 510 408 498.5 c 128,-1,21
 478 487 478 487 506 485 c 1,22,-1
 517 472 l 1,23,-1
 505 454 l 1,24,25
 492 432 492 432 492 415 c 2,0,-1
190 400.5 m 128,-1,27
 150 346 150 346 150 249.5 c 128,-1,28
 150 153 150 153 182.5 108 c 128,-1,29
 215 63 215 63 264 63 c 0,30,31
 348 63 348 63 401 154 c 1,32,-1
 401 424 l 1,33,34
 355 455 355 455 303 455 c 0,35,26
 230 455 230 455 190 400.5 c 128,-1,27
EndSplineSet
EndChar

StartChar: r
Encoding: 114 114 85
Width: 437
GlyphClass: 2
Flags: W
LayerCount: 2
Fore
SplineSet
204 468 m 2,0,-1
 204 361 l 1,1,-1
 210 361 l 1,2,3
 227 428 227 428 262.5 469 c 128,-1,4
 298 510 298 510 340 510 c 128,-1,5
 382 510 382 510 409.5 482.5 c 128,-1,6
 437 455 437 455 437 412.5 c 128,-1,7
 437 370 437 370 409 344 c 128,-1,8
 381 318 381 318 339 318 c 0,9,10
 320 318 320 318 320 329 c 0,11,12
 320 330 320 330 334 353 c 128,-1,13
 348 376 348 376 348 396 c 128,-1,14
 348 416 348 416 338.5 426.5 c 128,-1,15
 329 437 329 437 313.5 437 c 128,-1,16
 298 437 298 437 280 422 c 128,-1,17
 262 407 262 407 244 376 c 0,18,19
 204 307 204 307 204 156 c 0,20,21
 204 75 204 75 236 31 c 2,22,-1
 248 15 l 1,23,-1
 236 0 l 1,24,-1
 61 0 l 1,25,-1
 50 31 l 1,26,-1
 71 36 l 2,27,28
 96 42 96 42 104.5 57.5 c 128,-1,29
 113 73 113 73 113 111 c 2,30,-1
 113 392 l 2,31,32
 113 414 113 414 93 414 c 2,33,-1
 49 414 l 1,34,-1
 40 440 l 1,35,36
 69 466 69 466 106.5 483 c 128,-1,37
 144 500 144 500 165 500 c 0,38,39
 204 500 204 500 204 468 c 2,0,-1
EndSplineSet
EndChar

StartChar: s
Encoding: 115 115 86
Width: 481
GlyphClass: 2
Flags: W
LayerCount: 2
Fore
SplineSet
175.5 57 m 128,-1,1
 205 35 205 35 243.5 35 c 128,-1,2
 282 35 282 35 308.5 57.5 c 128,-1,3
 335 80 335 80 335 109 c 128,-1,4
 335 138 335 138 317.5 157 c 128,-1,5
 300 176 300 176 281 186 c 128,-1,6
 262 196 262 196 226 211 c 128,-1,7
 190 226 190 226 168.5 237 c 128,-1,8
 147 248 147 248 120 268 c 0,9,10
 66 306 66 306 66 370.5 c 128,-1,11
 66 435 66 435 117.5 472.5 c 128,-1,12
 169 510 169 510 244 510 c 128,-1,13
 319 510 319 510 366 482 c 128,-1,14
 413 454 413 454 413 411.5 c 128,-1,15
 413 369 413 369 389.5 344.5 c 128,-1,16
 366 320 366 320 329 320 c 0,17,18
 308 320 308 320 308 333 c 0,19,20
 308 336 308 336 315.5 353.5 c 128,-1,21
 323 371 323 371 323 389 c 0,22,23
 323 426 323 426 298 444 c 128,-1,24
 273 462 273 462 236.5 462 c 128,-1,25
 200 462 200 462 176.5 441.5 c 128,-1,26
 153 421 153 421 153 392 c 128,-1,27
 153 363 153 363 171.5 342 c 128,-1,28
 190 321 190 321 211 309.5 c 128,-1,29
 232 298 232 298 269 283 c 128,-1,30
 306 268 306 268 326.5 258 c 128,-1,31
 347 248 347 248 374 230 c 0,32,33
 426 194 426 194 426 131 c 128,-1,34
 426 68 426 68 372 27 c 128,-1,35
 318 -14 318 -14 235 -14 c 128,-1,36
 152 -14 152 -14 103 20 c 128,-1,37
 54 54 54 54 54 111 c 0,38,39
 54 145 54 145 77 167 c 128,-1,40
 100 189 100 189 129 189 c 128,-1,41
 158 189 158 189 158 177 c 0,42,43
 158 176 158 176 152 158.5 c 128,-1,44
 146 141 146 141 146 121 c 0,45,0
 146 79 146 79 175.5 57 c 128,-1,1
EndSplineSet
EndChar

StartChar: t
Encoding: 116 116 87
Width: 341
GlyphClass: 2
Flags: W
LayerCount: 2
Fore
SplineSet
190 632 m 1,0,-1
 190 497 l 1,1,-1
 320 497 l 1,2,3
 320 452 320 452 297 434 c 1,4,-1
 190 434 l 1,5,-1
 190 112 l 2,6,7
 190 81 190 81 199 68 c 128,-1,8
 208 55 208 55 233 55 c 128,-1,9
 258 55 258 55 296 87 c 1,10,-1
 315 61 l 1,11,12
 289 27 289 27 253 6.5 c 128,-1,13
 217 -14 217 -14 180.5 -14 c 128,-1,14
 144 -14 144 -14 121.5 11.5 c 128,-1,15
 99 37 99 37 99 82 c 2,16,-1
 99 434 l 1,17,-1
 11 434 l 1,18,19
 11 461 11 461 15 469 c 128,-1,20
 19 477 19 477 35 481 c 0,21,22
 88 495 88 495 110.5 526.5 c 128,-1,23
 133 558 133 558 143 608 c 0,24,25
 146 624 146 624 153.5 628 c 128,-1,26
 161 632 161 632 190 632 c 1,0,-1
EndSplineSet
EndChar

StartChar: u
Encoding: 117 117 88
Width: 632
GlyphClass: 2
Flags: W
LayerCount: 2
Fore
SplineSet
515 88 m 2,0,1
 515 57 515 57 544 57 c 0,2,3
 567 57 567 57 593 75 c 1,4,-1
 612 49 l 1,5,6
 589 21 589 21 558.5 3.5 c 128,-1,7
 528 -14 528 -14 502 -14 c 0,8,9
 425 -14 425 -14 425 82 c 1,10,11
 402 38 402 38 356.5 12 c 128,-1,12
 311 -14 311 -14 247.5 -14 c 128,-1,13
 184 -14 184 -14 143.5 29.5 c 128,-1,14
 103 73 103 73 103 152 c 2,15,-1
 103 402 l 2,16,17
 103 424 103 424 83 424 c 2,18,-1
 39 424 l 1,19,-1
 30 450 l 1,20,21
 56 476 56 476 93.5 493 c 128,-1,22
 131 510 131 510 154 510 c 0,23,24
 194 510 194 510 194 478 c 2,25,-1
 194 175 l 2,26,27
 194 53 194 53 290 53 c 0,28,29
 357 53 357 53 394.5 111 c 128,-1,30
 432 169 432 169 432 257 c 128,-1,31
 432 345 432 345 423.5 386.5 c 128,-1,32
 415 428 415 428 393 466 c 1,33,-1
 381 482 l 1,34,-1
 393 497 l 1,35,-1
 515 510 l 1,36,-1
 515 88 l 2,0,1
EndSplineSet
EndChar

StartChar: v
Encoding: 118 118 89
Width: 553
GlyphClass: 2
Flags: W
LayerCount: 2
Fore
SplineSet
279 51 m 0,0,1
 341 51 341 51 373.5 122 c 128,-1,2
 406 193 406 193 406 295 c 128,-1,3
 406 397 406 397 362 467 c 2,4,-1
 352 483 l 1,5,-1
 364 496 l 1,6,-1
 483 510 l 1,7,8
 488 448 488 448 488 404 c 0,9,10
 488 207 488 207 424 96.5 c 128,-1,11
 360 -14 360 -14 268 -14 c 0,12,13
 192 -14 192 -14 156.5 30.5 c 128,-1,14
 121 75 121 75 104 190 c 2,15,-1
 73 402 l 2,16,17
 71 415 71 415 67 419.5 c 128,-1,18
 63 424 63 424 53 424 c 2,19,-1
 9 424 l 1,20,-1
 0 450 l 1,21,22
 26 476 26 476 62 493 c 128,-1,23
 98 510 98 510 125.5 510 c 128,-1,24
 153 510 153 510 158 478 c 2,25,-1
 203 166 l 2,26,27
 212 104 212 104 229 77.5 c 128,-1,28
 246 51 246 51 279 51 c 0,0,1
EndSplineSet
EndChar

StartChar: w
Encoding: 119 119 90
Width: 813
GlyphClass: 2
Flags: W
LayerCount: 2
Fore
SplineSet
279 51 m 0,0,1
 327 51 327 51 357.5 124.5 c 128,-1,2
 388 198 388 198 388 298 c 128,-1,3
 388 398 388 398 344 468 c 2,4,-1
 334 484 l 1,5,-1
 346 497 l 1,6,-1
 463 510 l 1,7,8
 468 448 468 448 468 403 c 128,-1,9
 468 358 468 358 463 306 c 1,10,-1
 484 166 l 2,11,12
 493 104 493 104 511 77.5 c 128,-1,13
 529 51 529 51 564 51 c 0,14,15
 612 51 612 51 642.5 124.5 c 128,-1,16
 673 198 673 198 673 298 c 128,-1,17
 673 398 673 398 629 468 c 2,18,-1
 619 484 l 1,19,-1
 631 497 l 1,20,-1
 748 510 l 1,21,22
 753 448 753 448 753 404 c 0,23,24
 753 207 753 207 696 96.5 c 128,-1,25
 639 -14 639 -14 557 -14 c 0,26,27
 499 -14 499 -14 466.5 14.5 c 128,-1,28
 434 43 434 43 416 112 c 1,29,30
 360 -14 360 -14 268 -14 c 0,31,32
 192 -14 192 -14 156.5 30.5 c 128,-1,33
 121 75 121 75 104 190 c 2,34,-1
 73 402 l 2,35,36
 71 415 71 415 67 419.5 c 128,-1,37
 63 424 63 424 53 424 c 2,38,-1
 9 424 l 1,39,-1
 0 450 l 1,40,41
 26 476 26 476 62 493 c 128,-1,42
 98 510 98 510 125.5 510 c 128,-1,43
 153 510 153 510 158 478 c 2,44,-1
 203 166 l 2,45,46
 212 104 212 104 229 77.5 c 128,-1,47
 246 51 246 51 279 51 c 0,0,1
EndSplineSet
EndChar

StartChar: x
Encoding: 120 120 91
Width: 553
GlyphClass: 2
Flags: W
LayerCount: 2
Fore
SplineSet
431 77 m 2,0,1
 448 49 448 49 469.5 49 c 128,-1,2
 491 49 491 49 511 62 c 1,3,-1
 533 32 l 1,4,5
 490 -14 490 -14 440 -14 c 0,6,7
 373 -14 373 -14 333 56 c 2,8,-1
 252 194 l 1,9,10
 164 92 164 92 164 63 c 0,11,12
 164 47 164 47 183 31 c 2,13,-1
 202 15 l 1,14,-1
 190 0 l 1,15,-1
 35 0 l 1,16,-1
 24 21 l 1,17,18
 173 170 173 170 231 231 c 1,19,-1
 122 419 l 2,20,21
 105 447 105 447 83.5 447 c 128,-1,22
 62 447 62 447 42 434 c 1,23,-1
 20 464 l 1,24,25
 63 510 63 510 113 510 c 0,26,27
 180 510 180 510 220 440 c 2,28,-1
 298 304 l 1,29,30
 386 404 386 404 386 434 c 0,31,32
 386 450 386 450 367 466 c 2,33,-1
 348 482 l 1,34,-1
 360 497 l 1,35,-1
 515 497 l 1,36,-1
 526 476 l 1,37,-1
 474 424 l 2,38,39
 371 321 371 321 320 267 c 1,40,-1
 431 77 l 2,0,1
EndSplineSet
EndChar

StartChar: y
Encoding: 121 121 92
Width: 610
GlyphClass: 2
Flags: W
LayerCount: 2
Fore
SplineSet
291 -278 m 0,0,1
 209 -278 209 -278 164.5 -235.5 c 128,-1,2
 120 -193 120 -193 120 -139 c 128,-1,3
 120 -85 120 -85 154 -49.5 c 128,-1,4
 188 -14 188 -14 247 -14 c 0,5,6
 266 -14 266 -14 266 -25 c 0,7,8
 266 -29 266 -29 254 -41 c 128,-1,9
 242 -53 242 -53 229.5 -77 c 128,-1,10
 217 -101 217 -101 217 -137 c 128,-1,11
 217 -173 217 -173 240.5 -199.5 c 128,-1,12
 264 -226 264 -226 304 -226 c 0,13,14
 366 -226 366 -226 395 -175 c 128,-1,15
 424 -124 424 -124 424 -38 c 2,16,-1
 424 110 l 1,17,18
 401 66 401 66 355 40.5 c 128,-1,19
 309 15 309 15 246 15 c 128,-1,20
 183 15 183 15 143 58.5 c 128,-1,21
 103 102 103 102 103 181 c 2,22,-1
 103 403 l 2,23,24
 103 425 103 425 83 425 c 2,25,-1
 39 425 l 1,26,-1
 30 451 l 1,27,28
 56 477 56 477 93.5 494 c 128,-1,29
 131 511 131 511 154 511 c 0,30,31
 194 511 194 511 194 479 c 2,32,-1
 194 204 l 2,33,34
 194 82 194 82 288 82 c 0,35,36
 355 82 355 82 392.5 132.5 c 128,-1,37
 430 183 430 183 430 268.5 c 128,-1,38
 430 354 430 354 423 394 c 128,-1,39
 416 434 416 434 391 467 c 2,40,-1
 379 483 l 1,41,-1
 391 498 l 1,42,-1
 513 511 l 1,43,-1
 513 -22 l 2,44,45
 513 -145 513 -145 453.5 -211.5 c 128,-1,46
 394 -278 394 -278 291 -278 c 0,0,1
EndSplineSet
Substitution2: "Single Substitution lookup 4 subtable" y.calt
EndChar

StartChar: z
Encoding: 122 122 93
Width: 479
GlyphClass: 2
Flags: W
LayerCount: 2
Fore
SplineSet
313 58 m 2,0,1
 351 58 351 58 366.5 66.5 c 128,-1,2
 382 75 382 75 388 100 c 2,3,-1
 400 153 l 1,4,-1
 431 142 l 1,5,-1
 431 -12 l 1,6,-1
 419 -24 l 1,7,8
 382 0 382 0 300 0 c 2,9,-1
 44 0 l 1,10,-1
 33 31 l 1,11,-1
 314 439 l 1,12,-1
 164 439 l 2,13,14
 126 439 126 439 110.5 430.5 c 128,-1,15
 95 422 95 422 89 397 c 2,16,-1
 77 344 l 1,17,-1
 46 355 l 1,18,-1
 46 509 l 1,19,-1
 58 521 l 1,20,21
 95 497 95 497 177 497 c 2,22,-1
 426 497 l 1,23,24
 446 480 446 480 446 454 c 1,25,-1
 419 438 l 1,26,-1
 156 58 l 1,27,-1
 313 58 l 2,0,1
EndSplineSet
Substitution2: "'salt' Stylistic Alternatives in Latin lookup 3 subtable" z.alt
Substitution2: "'ss01' Style Set 1 in Latin lookup 2 subtable" z.alt
EndChar

StartChar: braceleft
Encoding: 123 123 94
Width: 316
GlyphClass: 2
Flags: W
LayerCount: 2
Fore
SplineSet
187 160 m 0,0,1
 187 69 187 69 212.5 7 c 128,-1,2
 238 -55 238 -55 289 -67 c 1,3,-1
 282 -112 l 1,4,5
 176 -99 176 -99 126 -25.5 c 128,-1,6
 76 48 76 48 76 160 c 0,7,8
 76 238 76 238 59.5 271 c 128,-1,9
 43 304 43 304 0 312 c 1,10,-1
 0 350 l 1,11,12
 43 358 43 358 59.5 391 c 128,-1,13
 76 424 76 424 76 502 c 0,14,15
 76 614 76 614 126 687.5 c 128,-1,16
 176 761 176 761 282 774 c 1,17,-1
 289 729 l 1,18,19
 238 717 238 717 212.5 655 c 128,-1,20
 187 593 187 593 187 502 c 0,21,22
 187 355 187 355 77 331 c 1,23,24
 187 309 187 309 187 160 c 0,0,1
EndSplineSet
EndChar

StartChar: bar
Encoding: 124 124 95
Width: 351
GlyphClass: 2
Flags: W
LayerCount: 2
Fore
SplineSet
225 -82 m 1,0,-1
 126 -82 l 1,1,-1
 126 744 l 1,2,-1
 225 744 l 1,3,-1
 225 -82 l 1,0,-1
EndSplineSet
EndChar

StartChar: braceright
Encoding: 125 125 96
Width: 316
GlyphClass: 2
Flags: W
LayerCount: 2
Fore
SplineSet
129 160 m 0,0,1
 129 309 129 309 239 331 c 1,2,3
 129 355 129 355 129 502 c 0,4,5
 129 593 129 593 103.5 655 c 128,-1,6
 78 717 78 717 27 729 c 1,7,-1
 34 774 l 1,8,9
 140 761 140 761 190 687.5 c 128,-1,10
 240 614 240 614 240 502 c 0,11,12
 240 424 240 424 256.5 391 c 128,-1,13
 273 358 273 358 316 350 c 1,14,-1
 316 312 l 1,15,16
 273 304 273 304 256.5 271 c 128,-1,17
 240 238 240 238 240 160 c 0,18,19
 240 48 240 48 190 -25.5 c 128,-1,20
 140 -99 140 -99 34 -112 c 1,21,-1
 27 -67 l 1,22,23
 78 -55 78 -55 103.5 7 c 128,-1,24
 129 69 129 69 129 160 c 0,0,1
EndSplineSet
EndChar

StartChar: asciitilde
Encoding: 126 126 97
Width: 621
GlyphClass: 2
Flags: W
LayerCount: 2
Fore
SplineSet
522 322 m 1,0,1
 475 355 475 355 427.5 355 c 128,-1,2
 380 355 380 355 309.5 322.5 c 128,-1,3
 239 290 239 290 188.5 290 c 128,-1,4
 138 290 138 290 99 322 c 1,5,-1
 99 398 l 1,6,7
 145 366 145 366 193 366 c 128,-1,8
 241 366 241 366 311.5 398 c 128,-1,9
 382 430 382 430 433 430 c 128,-1,10
 484 430 484 430 522 398 c 1,11,-1
 522 322 l 1,0,1
EndSplineSet
EndChar

StartChar: exclamdown
Encoding: 161 161 99
Width: 246
GlyphClass: 2
Flags: W
LayerCount: 2
Fore
SplineSet
184 446 m 128,-1,1
 184 427 184 427 162.5 403.5 c 128,-1,2
 141 380 141 380 122.5 380 c 128,-1,3
 104 380 104 380 82 403 c 128,-1,4
 60 426 60 426 60 445.5 c 128,-1,5
 60 465 60 465 82 488 c 128,-1,6
 104 511 104 511 122 511 c 128,-1,7
 140 511 140 511 162 488 c 128,-1,0
 184 465 184 465 184 446 c 128,-1,1
186 -245 m 1,8,9
 164 -270 164 -270 124 -270 c 128,-1,10
 84 -270 84 -270 60 -245 c 1,11,12
 60 -126 60 -126 98 254 c 0,13,14
 103 299 103 299 123 299 c 128,-1,15
 143 299 143 299 148 254 c 0,16,17
 186 -126 186 -126 186 -245 c 1,8,9
EndSplineSet
EndChar

StartChar: cent
Encoding: 162 162 100
Width: 486
GlyphClass: 2
Flags: W
LayerCount: 2
Fore
SplineSet
186 218 m 128,-1,1
 225 165 225 165 293 165 c 128,-1,2
 361 165 361 165 421 215 c 0,3,4
 424 218 424 218 431 218 c 128,-1,5
 438 218 438 218 446.5 209 c 128,-1,6
 455 200 455 200 455 192 c 128,-1,7
 455 184 455 184 452 181 c 0,8,9
 391 111 391 111 301 100 c 1,10,-1
 301 -59 l 1,11,12
 284 -83 284 -83 238 -83 c 1,13,-1
 238 100 l 1,14,15
 150 113 150 113 96.5 183.5 c 128,-1,16
 43 254 43 254 43 358.5 c 128,-1,17
 43 463 43 463 95.5 532.5 c 128,-1,18
 148 602 148 602 238 618 c 1,19,-1
 238 778 l 1,20,21
 257 802 257 802 301 802 c 1,22,-1
 301 621 l 1,23,24
 372 617 372 617 416.5 580.5 c 128,-1,25
 461 544 461 544 461 494.5 c 128,-1,26
 461 445 461 445 433.5 417.5 c 128,-1,27
 406 390 406 390 363 390 c 0,28,29
 344 390 344 390 344 401 c 0,30,31
 344 403 344 403 350 412 c 0,32,33
 368 441 368 441 368 482 c 128,-1,34
 368 523 368 523 342.5 546.5 c 128,-1,35
 317 570 317 570 274 570 c 0,36,37
 217 570 217 570 182 512 c 128,-1,38
 147 454 147 454 147 362.5 c 128,-1,0
 147 271 147 271 186 218 c 128,-1,1
EndSplineSet
EndChar

StartChar: sterling
Encoding: 163 163 101
Width: 596
GlyphClass: 2
Flags: W
LayerCount: 2
Fore
SplineSet
413 652.5 m 128,-1,1
 382 676 382 676 348 676 c 128,-1,2
 314 676 314 676 292.5 669 c 128,-1,3
 271 662 271 662 250 644 c 0,4,5
 205 608 205 608 205 496 c 0,6,7
 205 469 205 469 224 365 c 1,8,-1
 441 365 l 1,9,10
 441 320 441 320 418 302 c 1,11,-1
 230 302 l 1,12,13
 230 184 230 184 159 91 c 1,14,-1
 556 91 l 1,15,16
 556 27 556 27 522 0 c 1,17,-1
 56 0 l 1,18,-1
 31 43 l 1,19,20
 85 80 85 80 116 136 c 128,-1,21
 147 192 147 192 147 247 c 0,22,23
 147 270 147 270 142 302 c 1,24,-1
 30 302 l 1,25,26
 30 348 30 348 53 365 c 1,27,-1
 127 365 l 1,28,29
 99 475 99 475 99 511 c 0,30,31
 99 611 99 611 158.5 671.5 c 128,-1,32
 218 732 218 732 340 732 c 0,33,34
 423 732 423 732 482.5 696 c 128,-1,35
 542 660 542 660 542 595 c 0,36,37
 542 549 542 549 511 519 c 128,-1,38
 480 489 480 489 435 489 c 2,39,-1
 426 489 l 2,40,41
 414 489 414 489 414 501 c 0,42,43
 414 504 414 504 422 514 c 0,44,45
 444 546 444 546 444 587.5 c 128,-1,0
 444 629 444 629 413 652.5 c 128,-1,1
EndSplineSet
EndChar

StartChar: yen
Encoding: 165 165 102
Width: 626
GlyphClass: 2
Flags: W
LayerCount: 2
Fore
SplineSet
579 458 m 1,0,-1
 413 458 l 1,1,-1
 373 395 l 1,2,-1
 555 395 l 1,3,4
 579 414 579 414 579 458 c 1,0,-1
66 233 m 1,5,6
 66 279 66 279 89 296 c 1,7,-1
 579 296 l 1,8,9
 579 252 579 252 555 233 c 1,10,-1
 66 233 l 1,5,6
66 395 m 1,11,12
 66 441 66 441 89 458 c 1,13,-1
 238 458 l 1,14,-1
 265 395 l 1,15,-1
 66 395 l 1,11,12
448 584 m 2,16,17
 460 606 460 606 460 625.5 c 128,-1,18
 460 645 460 645 447.5 659 c 128,-1,19
 435 673 435 673 418 678 c 2,20,-1
 395 684 l 1,21,-1
 407 718 l 1,22,-1
 597 718 l 1,23,-1
 610 702 l 1,24,-1
 595 684 l 2,25,26
 560 642 560 642 524 578 c 2,27,-1
 369 303 l 1,28,-1
 369 133 l 2,29,30
 369 88 369 88 383 69 c 128,-1,31
 397 50 397 50 435 40 c 2,32,-1
 458 34 l 1,33,-1
 446 0 l 1,34,-1
 227 0 l 1,35,-1
 214 16 l 1,36,-1
 227 34 l 2,37,38
 252 69 252 69 263 105.5 c 128,-1,39
 274 142 274 142 274 201 c 2,40,-1
 274 295 l 1,41,-1
 114 576 l 2,42,43
 65 663 65 663 14 702 c 1,44,-1
 27 718 l 1,45,-1
 252 718 l 1,46,-1
 264 684 l 1,47,-1
 241 678 l 2,48,49
 217 672 217 672 206.5 662 c 128,-1,50
 196 652 196 652 196 638.5 c 128,-1,51
 196 625 196 625 227 571 c 2,52,-1
 335 382 l 1,53,-1
 448 584 l 2,16,17
EndSplineSet
EndChar

StartChar: brokenbar
Encoding: 166 166 103
Width: 351
GlyphClass: 2
Flags: W
LayerCount: 2
Fore
SplineSet
225 453 m 1,0,-1
 126 453 l 1,1,-1
 126 744 l 1,2,-1
 225 744 l 1,3,-1
 225 453 l 1,0,-1
225 -82 m 1,4,-1
 126 -82 l 1,5,-1
 126 210 l 1,6,-1
 225 210 l 1,7,-1
 225 -82 l 1,4,-1
EndSplineSet
EndChar

StartChar: section
Encoding: 167 167 104
Width: 439
GlyphClass: 2
Flags: W
LayerCount: 2
Fore
SplineSet
290.5 666.5 m 128,-1,1
 269 686 269 686 231.5 686 c 128,-1,2
 194 686 194 686 166 660 c 128,-1,3
 138 634 138 634 138 593 c 128,-1,4
 138 552 138 552 158.5 512 c 128,-1,5
 179 472 179 472 231 410 c 0,6,7
 319 306 319 306 319 222 c 0,8,9
 319 195 319 195 312 171 c 1,10,-1
 158 356 l 2,11,12
 72 459 72 459 72 549 c 0,13,14
 72 623 72 623 116.5 677 c 128,-1,15
 161 731 161 731 256 731 c 0,16,17
 321 731 321 731 363 700 c 128,-1,18
 405 669 405 669 405 623 c 128,-1,19
 405 577 405 577 377 549.5 c 128,-1,20
 349 522 349 522 307 522 c 0,21,22
 288 522 288 522 288 533 c 0,23,24
 288 535 288 535 294 544 c 0,25,26
 312 573 312 573 312 610 c 128,-1,0
 312 647 312 647 290.5 666.5 c 128,-1,1
148.5 -191.5 m 128,-1,28
 170 -211 170 -211 207.5 -211 c 128,-1,29
 245 -211 245 -211 273 -185 c 128,-1,30
 301 -159 301 -159 301 -118 c 128,-1,31
 301 -77 301 -77 280.5 -37 c 128,-1,32
 260 3 260 3 208 65 c 0,33,34
 120 169 120 169 120 253 c 0,35,36
 120 280 120 280 127 304 c 1,37,-1
 281 119 l 2,38,39
 367 16 367 16 367 -74 c 0,40,41
 367 -148 367 -148 322.5 -202 c 128,-1,42
 278 -256 278 -256 183 -256 c 0,43,44
 118 -256 118 -256 76 -225 c 128,-1,45
 34 -194 34 -194 34 -148 c 128,-1,46
 34 -102 34 -102 62 -74.5 c 128,-1,47
 90 -47 90 -47 132 -47 c 0,48,49
 151 -47 151 -47 151 -58 c 0,50,51
 151 -60 151 -60 145 -70 c 0,52,53
 127 -98 127 -98 127 -135 c 128,-1,27
 127 -172 127 -172 148.5 -191.5 c 128,-1,28
EndSplineSet
EndChar

StartChar: dieresis
Encoding: 168 168 105
Width: 421
GlyphClass: 2
Flags: W
LayerCount: 2
Fore
SplineSet
54 658 m 128,-1,1
 54 677 54 677 75.5 700.5 c 128,-1,2
 97 724 97 724 115.5 724 c 128,-1,3
 134 724 134 724 156 701 c 128,-1,4
 178 678 178 678 178 658.5 c 128,-1,5
 178 639 178 639 156 616 c 128,-1,6
 134 593 134 593 116 593 c 128,-1,7
 98 593 98 593 76 616 c 128,-1,0
 54 639 54 639 54 658 c 128,-1,1
243 658 m 128,-1,9
 243 677 243 677 264.5 700.5 c 128,-1,10
 286 724 286 724 304.5 724 c 128,-1,11
 323 724 323 724 345 701 c 128,-1,12
 367 678 367 678 367 658.5 c 128,-1,13
 367 639 367 639 345 616 c 128,-1,14
 323 593 323 593 305 593 c 128,-1,15
 287 593 287 593 265 616 c 128,-1,8
 243 639 243 639 243 658 c 128,-1,9
EndSplineSet
EndChar

StartChar: copyright
Encoding: 169 169 106
Width: 778
GlyphClass: 2
Flags: W
LayerCount: 2
Fore
SplineSet
469 626 m 1,0,1
 440 666 440 666 397.5 666 c 128,-1,2
 355 666 355 666 330 640 c 0,3,4
 285 595 285 595 285 501 c 0,5,6
 285 433 285 433 315.5 387.5 c 128,-1,7
 346 342 346 342 397 342 c 0,8,9
 463 342 463 342 499 396 c 1,10,-1
 525 373 l 1,11,12
 476 298 476 298 391.5 298 c 128,-1,13
 307 298 307 298 261.5 355 c 128,-1,14
 216 412 216 412 216 500.5 c 128,-1,15
 216 589 216 589 261.5 646 c 128,-1,16
 307 703 307 703 394 703 c 0,17,18
 443 703 443 703 482 679 c 1,19,-1
 491 697 l 1,20,-1
 516 697 l 1,21,-1
 516 588 l 1,22,23
 508 574 508 574 482 574 c 1,24,-1
 469 626 l 1,0,1
126 498 m 128,-1,26
 126 389 126 389 203 312 c 128,-1,27
 280 235 280 235 389 235 c 128,-1,28
 498 235 498 235 575 312 c 128,-1,29
 652 389 652 389 652 498 c 128,-1,30
 652 607 652 607 575 684 c 128,-1,31
 498 761 498 761 389 761 c 128,-1,32
 280 761 280 761 203 684 c 128,-1,25
 126 607 126 607 126 498 c 128,-1,26
100 498 m 128,-1,34
 100 617 100 617 185 702 c 128,-1,35
 270 787 270 787 389 787 c 128,-1,36
 508 787 508 787 593 702 c 128,-1,37
 678 617 678 617 678 498 c 128,-1,38
 678 379 678 379 593 294 c 128,-1,39
 508 209 508 209 389 209 c 128,-1,40
 270 209 270 209 185 294 c 128,-1,33
 100 379 100 379 100 498 c 128,-1,34
EndSplineSet
EndChar

StartChar: ordfeminine
Encoding: 170 170 107
Width: 398
GlyphClass: 2
Flags: W
LayerCount: 2
Fore
SplineSet
244 615 m 2,0,1
 244 689 244 689 196 689 c 0,2,3
 142 689 142 689 142 613 c 1,4,5
 124 598 124 598 104.5 598 c 128,-1,6
 85 598 85 598 74 608.5 c 128,-1,7
 63 619 63 619 63 636 c 0,8,9
 63 675 63 675 102.5 703 c 128,-1,10
 142 731 142 731 201 731 c 128,-1,11
 260 731 260 731 289.5 700 c 128,-1,12
 319 669 319 669 319 602 c 2,13,-1
 319 437 l 2,14,15
 319 420 319 420 332.5 420 c 128,-1,16
 346 420 346 420 369 435 c 1,17,-1
 388 409 l 1,18,19
 343 361 343 361 303 361 c 0,20,21
 252 361 252 361 245 414 c 1,22,23
 210 361 210 361 142 361 c 0,24,25
 100 361 100 361 72.5 386.5 c 128,-1,26
 45 412 45 412 45 457.5 c 128,-1,27
 45 503 45 503 84 532.5 c 128,-1,28
 123 562 123 562 190 562 c 0,29,30
 223 562 223 562 244 558 c 1,31,-1
 244 615 l 2,0,1
171 416 m 0,32,33
 203 416 203 416 223 444.5 c 128,-1,34
 243 473 243 473 244 518 c 1,35,36
 233 522 233 522 205 522 c 0,37,38
 126 522 126 522 126 462 c 0,39,40
 126 416 126 416 171 416 c 0,32,33
EndSplineSet
EndChar

StartChar: guillemotleft
Encoding: 171 171 108
Width: 506
GlyphClass: 2
Flags: W
LayerCount: 2
Fore
SplineSet
72 221 m 128,-1,1
 50 261 50 261 50 278.5 c 128,-1,2
 50 296 50 296 72.5 337.5 c 128,-1,3
 95 379 95 379 161 486 c 1,4,5
 214 482 214 482 247 440 c 1,6,7
 225 401 225 401 110 279 c 1,8,9
 224 159 224 159 247 118 c 1,10,11
 215 76 215 76 161 72 c 1,12,0
 94 181 94 181 72 221 c 128,-1,1
281 221 m 128,-1,14
 259 261 259 261 259 278.5 c 128,-1,15
 259 296 259 296 281.5 337.5 c 128,-1,16
 304 379 304 379 370 486 c 1,17,18
 423 482 423 482 456 440 c 1,19,20
 434 401 434 401 319 279 c 1,21,22
 433 159 433 159 456 118 c 1,23,24
 424 76 424 76 370 72 c 1,25,13
 303 181 303 181 281 221 c 128,-1,14
EndSplineSet
EndChar

StartChar: logicalnot
Encoding: 172 172 109
Width: 621
GlyphClass: 2
Flags: W
LayerCount: 2
Fore
SplineSet
99 319 m 1,0,-1
 99 395 l 1,1,-1
 522 395 l 1,2,-1
 522 168 l 1,3,-1
 454 168 l 1,4,-1
 454 319 l 1,5,-1
 99 319 l 1,0,-1
EndSplineSet
EndChar

StartChar: registered
Encoding: 174 174 110
Width: 778
GlyphClass: 2
Flags: W
LayerCount: 2
Fore
SplineSet
450 315 m 1,0,1
 459 331 459 331 459 337.5 c 128,-1,2
 459 344 459 344 452 358 c 2,3,-1
 405 448 l 2,4,5
 395 468 395 468 370 468 c 2,6,-1
 341 468 l 1,7,-1
 341 349 l 1,8,-1
 374 338 l 1,9,10
 374 317 374 317 359 305 c 1,11,-1
 243 305 l 1,12,-1
 243 329 l 1,13,-1
 267 342 l 2,14,15
 276 346 276 346 276 358 c 2,16,-1
 276 652 l 1,17,-1
 243 664 l 1,18,19
 243 686 243 686 258 696 c 1,20,-1
 368 696 l 2,21,22
 447 696 447 696 483 667 c 128,-1,23
 519 638 519 638 519 597 c 0,24,25
 519 513 519 513 447 483 c 1,26,27
 464 466 464 466 467 459 c 2,28,-1
 528 346 l 1,29,-1
 559 335 l 1,30,31
 559 315 559 315 546 305 c 1,32,-1
 459 305 l 1,33,-1
 450 315 l 1,0,1
341 640 m 2,34,-1
 341 505 l 1,35,-1
 371 505 l 2,36,37
 412 505 412 505 431.5 527.5 c 128,-1,38
 451 550 451 550 451 586 c 0,39,40
 451 656 451 656 368 656 c 0,41,42
 341 656 341 656 341 640 c 2,34,-1
126 498 m 128,-1,44
 126 389 126 389 203 312 c 128,-1,45
 280 235 280 235 389 235 c 128,-1,46
 498 235 498 235 575 312 c 128,-1,47
 652 389 652 389 652 498 c 128,-1,48
 652 607 652 607 575 684 c 128,-1,49
 498 761 498 761 389 761 c 128,-1,50
 280 761 280 761 203 684 c 128,-1,43
 126 607 126 607 126 498 c 128,-1,44
100 498 m 128,-1,52
 100 617 100 617 185 702 c 128,-1,53
 270 787 270 787 389 787 c 128,-1,54
 508 787 508 787 593 702 c 128,-1,55
 678 617 678 617 678 498 c 128,-1,56
 678 379 678 379 593 294 c 128,-1,57
 508 209 508 209 389 209 c 128,-1,58
 270 209 270 209 185 294 c 128,-1,51
 100 379 100 379 100 498 c 128,-1,52
EndSplineSet
EndChar

StartChar: macron
Encoding: 175 175 111
Width: 408
GlyphClass: 2
Flags: W
LayerCount: 2
Fore
SplineSet
56 617 m 1,0,1
 56 674 56 674 82 697 c 1,2,-1
 351 697 l 1,3,4
 351 639 351 639 325 617 c 1,5,-1
 56 617 l 1,0,1
EndSplineSet
EndChar

StartChar: degree
Encoding: 176 176 112
Width: 435
GlyphClass: 2
Flags: W
LayerCount: 2
Fore
SplineSet
282 446 m 128,-1,1
 309 484 309 484 309 548.5 c 128,-1,2
 309 613 309 613 285.5 648.5 c 128,-1,3
 262 684 262 684 220.5 684 c 128,-1,4
 179 684 179 684 152 646 c 128,-1,5
 125 608 125 608 125 543.5 c 128,-1,6
 125 479 125 479 148.5 443.5 c 128,-1,7
 172 408 172 408 213.5 408 c 128,-1,0
 255 408 255 408 282 446 c 128,-1,1
88 411.5 m 128,-1,9
 40 462 40 462 40 546.5 c 128,-1,10
 40 631 40 631 87.5 681 c 128,-1,11
 135 731 135 731 217 731 c 128,-1,12
 299 731 299 731 347 681 c 128,-1,13
 395 631 395 631 395 546.5 c 128,-1,14
 395 462 395 462 347 411.5 c 128,-1,15
 299 361 299 361 217.5 361 c 128,-1,8
 136 361 136 361 88 411.5 c 128,-1,9
EndSplineSet
EndChar

StartChar: plusminus
Encoding: 177 177 113
Width: 621
GlyphClass: 2
Flags: W
LayerCount: 2
Fore
SplineSet
99 319 m 1,0,-1
 99 395 l 1,1,-1
 273 395 l 1,2,-1
 273 569 l 1,3,-1
 348 569 l 1,4,-1
 348 395 l 1,5,-1
 522 395 l 1,6,-1
 522 319 l 1,7,-1
 348 319 l 1,8,-1
 348 146 l 1,9,-1
 273 146 l 1,10,-1
 273 319 l 1,11,-1
 99 319 l 1,0,-1
99 -1 m 1,12,-1
 99 75 l 1,13,-1
 522 75 l 1,14,-1
 522 -1 l 1,15,-1
 99 -1 l 1,12,-1
EndSplineSet
EndChar

StartChar: twosuperior
Encoding: 178 178 114
Width: 388
GlyphClass: 2
Flags: W
LayerCount: 2
Fore
SplineSet
254 616 m 0,0,1
 254 649 254 649 234.5 667 c 128,-1,2
 215 685 215 685 188 685 c 128,-1,3
 161 685 161 685 141 667 c 128,-1,4
 121 649 121 649 121 618 c 0,5,6
 121 606 121 606 129.5 587.5 c 128,-1,7
 138 569 138 569 138 564 c 0,8,9
 138 553 138 553 111 553 c 128,-1,10
 84 553 84 553 63 572.5 c 128,-1,11
 42 592 42 592 42 622 c 0,12,13
 42 674 42 674 85 703 c 128,-1,14
 128 732 128 732 194.5 732 c 128,-1,15
 261 732 261 732 302 701.5 c 128,-1,16
 343 671 343 671 343 615 c 128,-1,17
 343 559 343 559 289.5 495.5 c 128,-1,18
 236 432 236 432 142 356 c 1,19,-1
 355 356 l 1,20,21
 355 310 355 310 329 288 c 1,22,-1
 46 288 l 1,23,-1
 27 326 l 1,24,25
 164 438 164 438 209 498.5 c 128,-1,26
 254 559 254 559 254 616 c 0,0,1
EndSplineSet
EndChar

StartChar: threesuperior
Encoding: 179 179 115
Width: 388
GlyphClass: 2
Flags: W
LayerCount: 2
Fore
SplineSet
303.5 313 m 128,-1,1
 261 281 261 281 193.5 281 c 128,-1,2
 126 281 126 281 82.5 308 c 128,-1,3
 39 335 39 335 39 383 c 0,4,5
 39 413 39 413 60.5 432.5 c 128,-1,6
 82 452 82 452 104.5 452 c 128,-1,7
 127 452 127 452 131.5 450 c 128,-1,8
 136 448 136 448 136 438 c 1,9,10
 134 438 134 438 126.5 419.5 c 128,-1,11
 119 401 119 401 119 381.5 c 128,-1,12
 119 362 119 362 138.5 346.5 c 128,-1,13
 158 331 158 331 187 331 c 128,-1,14
 216 331 216 331 238 351 c 128,-1,15
 260 371 260 371 260 405 c 128,-1,16
 260 439 260 439 241 464.5 c 128,-1,17
 222 490 222 490 171 490 c 0,18,19
 152 490 152 490 141 487 c 128,-1,20
 130 484 130 484 123 484 c 0,21,22
 104 484 104 484 104 501 c 0,23,24
 104 513 104 513 110.5 517.5 c 128,-1,25
 117 522 117 522 145 527 c 0,26,27
 248 547 248 547 248 621 c 0,28,29
 248 652 248 652 229 669 c 128,-1,30
 210 686 210 686 186 686 c 128,-1,31
 162 686 162 686 146 672 c 128,-1,32
 130 658 130 658 130 634.5 c 128,-1,33
 130 611 130 611 138.5 597 c 128,-1,34
 147 583 147 583 147 581 c 0,35,36
 147 568 147 568 120 568 c 128,-1,37
 93 568 93 568 72 587 c 128,-1,38
 51 606 51 606 51 636 c 0,39,40
 51 682 51 682 90 707 c 128,-1,41
 129 732 129 732 187 732 c 128,-1,42
 245 732 245 732 289.5 703.5 c 128,-1,43
 334 675 334 675 334 623 c 0,44,45
 334 555 334 555 258 519 c 1,46,47
 301 504 301 504 323.5 473.5 c 128,-1,48
 346 443 346 443 346 404 c 0,49,0
 346 345 346 345 303.5 313 c 128,-1,1
EndSplineSet
EndChar

StartChar: acute
Encoding: 180 180 116
Width: 288
GlyphClass: 2
Flags: W
LayerCount: 2
Fore
SplineSet
219 760 m 1,0,1
 261 740 261 740 261 696 c 128,-1,2
 261 652 261 652 205 625 c 2,3,-1
 92 569 l 1,4,-1
 63 604 l 1,5,-1
 219 760 l 1,0,1
EndSplineSet
EndChar

StartChar: mu
Encoding: 181 181 117
Width: 614
GlyphClass: 2
Flags: W
LayerCount: 2
Fore
SplineSet
359 13 m 128,-1,1
 317 -14 317 -14 268.5 -14 c 128,-1,2
 220 -14 220 -14 185 20 c 1,3,-1
 185 -209 l 1,4,-1
 82 -196 l 1,5,-1
 70 -183 l 1,6,-1
 82 -165 l 2,7,8
 96 -145 96 -145 96 -114 c 2,9,-1
 96 381 l 2,10,11
 96 409 96 409 74 414 c 2,12,-1
 22 425 l 1,13,-1
 22 458 l 1,14,15
 40 472 40 472 85.5 485 c 128,-1,16
 131 498 131 498 162 498 c 0,17,18
 185 498 185 498 185 452 c 2,19,-1
 185 175 l 2,20,21
 185 53 185 53 286 53 c 0,22,23
 345 53 345 53 383 100 c 128,-1,24
 421 147 421 147 421 220 c 2,25,-1
 421 409 l 1,26,27
 419 435 419 435 407 454 c 2,28,-1
 395 472 l 1,29,-1
 407 485 l 1,30,-1
 511 498 l 1,31,-1
 511 0 l 1,32,-1
 499 -14 l 1,33,34
 421 -14 421 -14 421 82 c 1,35,0
 401 40 401 40 359 13 c 128,-1,1
EndSplineSet
EndChar

StartChar: paragraph
Encoding: 182 182 118
Width: 616
GlyphClass: 2
Flags: W
LayerCount: 2
Fore
SplineSet
306 -202 m 0,0,1
 241 -202 241 -202 199 -171 c 128,-1,2
 157 -140 157 -140 157 -94 c 128,-1,3
 157 -48 157 -48 185 -20.5 c 128,-1,4
 213 7 213 7 255 7 c 0,5,6
 274 7 274 7 274 -4 c 0,7,8
 274 -6 274 -6 268 -16 c 0,9,10
 250 -44 250 -44 250 -81 c 128,-1,11
 250 -118 250 -118 271.5 -137.5 c 128,-1,12
 293 -157 293 -157 330.5 -157 c 128,-1,13
 368 -157 368 -157 396 -131 c 128,-1,14
 424 -105 424 -105 424 -59 c 0,15,16
 424 12 424 12 331 119 c 2,17,-1
 171 304 l 2,18,19
 67 425 67 425 67 541 c 0,20,21
 67 627 67 627 126 679.5 c 128,-1,22
 185 732 185 732 278 732 c 0,23,24
 327 732 327 732 404.5 720 c 128,-1,25
 482 708 482 708 504 706 c 1,26,-1
 515 693 l 1,27,-1
 503 675 l 1,28,29
 490 653 490 653 490 636 c 2,30,-1
 490 -20 l 2,31,32
 490 -94 490 -94 445.5 -148 c 128,-1,33
 401 -202 401 -202 306 -202 c 0,0,1
398 497 m 2,34,35
 398 580 398 580 360.5 628 c 128,-1,36
 323 676 323 676 249 676 c 0,37,38
 207 676 207 676 175.5 647 c 128,-1,39
 144 618 144 618 144 567 c 0,40,41
 144 474 144 474 244 358 c 2,42,-1
 398 180 l 1,43,-1
 398 497 l 2,34,35
EndSplineSet
EndChar

StartChar: periodcentered
Encoding: 183 183 119
Width: 191
GlyphClass: 2
Flags: W
LayerCount: 2
Fore
SplineSet
33 321 m 128,-1,1
 33 340 33 340 54.5 363.5 c 128,-1,2
 76 387 76 387 94.5 387 c 128,-1,3
 113 387 113 387 135 364 c 128,-1,4
 157 341 157 341 157 321.5 c 128,-1,5
 157 302 157 302 135 279 c 128,-1,6
 113 256 113 256 95 256 c 128,-1,7
 77 256 77 256 55 279 c 128,-1,0
 33 302 33 302 33 321 c 128,-1,1
EndSplineSet
EndChar

StartChar: cedilla
Encoding: 184 184 120
Width: 350
GlyphClass: 2
Flags: W
LayerCount: 2
Fore
SplineSet
134 -242 m 128,-1,1
 146 -253 146 -253 169 -253 c 128,-1,2
 192 -253 192 -253 209 -230.5 c 128,-1,3
 226 -208 226 -208 226 -177.5 c 128,-1,4
 226 -147 226 -147 208.5 -125 c 128,-1,5
 191 -103 191 -103 161.5 -103 c 128,-1,6
 132 -103 132 -103 104 -120 c 1,7,-1
 84 -102 l 1,8,-1
 202 51 l 1,9,-1
 226 29 l 1,10,-1
 149 -70 l 1,11,12
 166 -66 166 -66 187 -66 c 0,13,14
 235 -66 235 -66 267.5 -95 c 128,-1,15
 300 -124 300 -124 300 -175.5 c 128,-1,16
 300 -227 300 -227 261 -261 c 128,-1,17
 222 -295 222 -295 171 -295 c 128,-1,18
 120 -295 120 -295 87.5 -274.5 c 128,-1,19
 55 -254 55 -254 55 -223 c 128,-1,20
 55 -192 55 -192 73.5 -176 c 128,-1,21
 92 -160 92 -160 114 -160 c 128,-1,22
 136 -160 136 -160 136 -170 c 0,23,24
 136 -172 136 -172 129 -184 c 128,-1,25
 122 -196 122 -196 122 -213.5 c 128,-1,0
 122 -231 122 -231 134 -242 c 128,-1,1
EndSplineSet
EndChar

StartChar: onesuperior
Encoding: 185 185 121
Width: 319
GlyphClass: 2
Flags: W
LayerCount: 2
Fore
SplineSet
208 421 m 2,0,1
 208 355 208 355 233 325 c 2,2,-1
 244 312 l 1,3,-1
 231 295 l 1,4,-1
 76 295 l 1,5,-1
 65 326 l 1,6,-1
 99 335 l 2,7,8
 117 340 117 340 123 348 c 128,-1,9
 129 356 129 356 129 380 c 2,10,-1
 129 642 l 1,11,-1
 70 604 l 1,12,13
 34 612 34 612 14 655 c 1,14,-1
 189 735 l 1,15,16
 211 730 211 730 226 704 c 1,17,-1
 208 693 l 1,18,-1
 208 421 l 2,0,1
EndSplineSet
EndChar

StartChar: ordmasculine
Encoding: 186 186 122
Width: 435
GlyphClass: 2
Flags: W
LayerCount: 2
Fore
SplineSet
148 648.5 m 128,-1,1
 125 611 125 611 125 547.5 c 128,-1,2
 125 484 125 484 152.5 446 c 128,-1,3
 180 408 180 408 221 408 c 128,-1,4
 262 408 262 408 285.5 443.5 c 128,-1,5
 309 479 309 479 309 542 c 128,-1,6
 309 605 309 605 281.5 645.5 c 128,-1,7
 254 686 254 686 212.5 686 c 128,-1,0
 171 686 171 686 148 648.5 c 128,-1,1
88 411.5 m 128,-1,9
 40 462 40 462 40 546.5 c 128,-1,10
 40 631 40 631 87.5 681 c 128,-1,11
 135 731 135 731 217 731 c 128,-1,12
 299 731 299 731 347 681 c 128,-1,13
 395 631 395 631 395 546.5 c 128,-1,14
 395 462 395 462 347 411.5 c 128,-1,15
 299 361 299 361 217.5 361 c 128,-1,8
 136 361 136 361 88 411.5 c 128,-1,9
EndSplineSet
EndChar

StartChar: guillemotright
Encoding: 187 187 123
Width: 506
GlyphClass: 2
Flags: W
LayerCount: 2
Fore
SplineSet
433.5 337.5 m 128,-1,1
 456 296 456 296 456 278.5 c 128,-1,2
 456 261 456 261 434 221 c 128,-1,3
 412 181 412 181 345 72 c 1,4,5
 291 76 291 76 259 118 c 1,6,7
 282 159 282 159 396 279 c 1,8,9
 281 401 281 401 259 440 c 1,10,11
 292 482 292 482 345 486 c 1,12,0
 411 379 411 379 433.5 337.5 c 128,-1,1
224.5 337.5 m 128,-1,14
 247 296 247 296 247 278.5 c 128,-1,15
 247 261 247 261 225 221 c 128,-1,16
 203 181 203 181 136 72 c 1,17,18
 82 76 82 76 50 118 c 1,19,20
 73 159 73 159 187 279 c 1,21,22
 72 401 72 401 50 440 c 1,23,24
 83 482 83 482 136 486 c 1,25,13
 202 379 202 379 224.5 337.5 c 128,-1,14
EndSplineSet
EndChar

StartChar: onequarter
Encoding: 188 188 124
Width: 1018
GlyphClass: 2
Flags: W
LayerCount: 2
Fore
SplineSet
365 0 m 1,0,-1
 294 0 l 1,1,-1
 593 718 l 1,2,-1
 665 718 l 1,3,-1
 365 0 l 1,0,-1
780 85 m 2,4,-1
 780 95 l 1,5,-1
 568 95 l 1,6,-1
 710 436 l 1,7,-1
 761 436 l 1,8,-1
 778 421 l 1,9,-1
 654 146 l 1,10,-1
 780 146 l 1,11,-1
 780 220 l 2,12,13
 780 251 780 251 766 273 c 1,14,-1
 778 287 l 1,15,-1
 860 296 l 1,16,-1
 860 146 l 1,17,-1
 915 146 l 1,18,19
 915 111 915 111 895 95 c 1,20,-1
 861 95 l 1,21,22
 866 51 866 51 884 30 c 2,23,-1
 895 17 l 1,24,-1
 883 0 l 1,25,-1
 728 0 l 1,26,-1
 716 31 l 1,27,-1
 750 40 l 2,28,29
 768 45 768 45 774 53 c 128,-1,30
 780 61 780 61 780 85 c 2,4,-1
273 421 m 2,31,32
 273 355 273 355 298 325 c 2,33,-1
 309 312 l 1,34,-1
 296 295 l 1,35,-1
 141 295 l 1,36,-1
 130 326 l 1,37,-1
 164 335 l 2,38,39
 182 340 182 340 188 348 c 128,-1,40
 194 356 194 356 194 380 c 2,41,-1
 194 642 l 1,42,-1
 135 604 l 1,43,44
 99 612 99 612 79 655 c 1,45,-1
 254 735 l 1,46,47
 276 730 276 730 291 704 c 1,48,-1
 273 693 l 1,49,-1
 273 421 l 2,31,32
EndSplineSet
EndChar

StartChar: onehalf
Encoding: 189 189 125
Width: 1018
GlyphClass: 2
Flags: W
LayerCount: 2
Fore
SplineSet
345 0 m 1,0,-1
 274 0 l 1,1,-1
 573 718 l 1,2,-1
 645 718 l 1,3,-1
 345 0 l 1,0,-1
807 328 m 0,4,5
 807 361 807 361 787.5 379 c 128,-1,6
 768 397 768 397 741 397 c 128,-1,7
 714 397 714 397 694 379 c 128,-1,8
 674 361 674 361 674 330 c 0,9,10
 674 318 674 318 682.5 299.5 c 128,-1,11
 691 281 691 281 691 276 c 0,12,13
 691 265 691 265 664 265 c 128,-1,14
 637 265 637 265 616 284.5 c 128,-1,15
 595 304 595 304 595 334 c 0,16,17
 595 386 595 386 638 415 c 128,-1,18
 681 444 681 444 747.5 444 c 128,-1,19
 814 444 814 444 855 413.5 c 128,-1,20
 896 383 896 383 896 327 c 128,-1,21
 896 271 896 271 842.5 207.5 c 128,-1,22
 789 144 789 144 695 68 c 1,23,-1
 908 68 l 1,24,25
 908 22 908 22 882 0 c 1,26,-1
 599 0 l 1,27,-1
 580 38 l 1,28,29
 717 150 717 150 762 210.5 c 128,-1,30
 807 271 807 271 807 328 c 0,4,5
273 421 m 2,31,32
 273 355 273 355 298 325 c 2,33,-1
 309 312 l 1,34,-1
 296 295 l 1,35,-1
 141 295 l 1,36,-1
 130 326 l 1,37,-1
 164 335 l 2,38,39
 182 340 182 340 188 348 c 128,-1,40
 194 356 194 356 194 380 c 2,41,-1
 194 642 l 1,42,-1
 135 604 l 1,43,44
 99 612 99 612 79 655 c 1,45,-1
 254 735 l 1,46,47
 276 730 276 730 291 704 c 1,48,-1
 273 693 l 1,49,-1
 273 421 l 2,31,32
EndSplineSet
EndChar

StartChar: threequarters
Encoding: 190 190 126
Width: 1018
GlyphClass: 2
Flags: W
LayerCount: 2
Fore
SplineSet
395 0 m 1,0,-1
 324 0 l 1,1,-1
 623 718 l 1,2,-1
 695 718 l 1,3,-1
 395 0 l 1,0,-1
780 85 m 2,4,-1
 780 95 l 1,5,-1
 568 95 l 1,6,-1
 710 436 l 1,7,-1
 761 436 l 1,8,-1
 778 421 l 1,9,-1
 654 146 l 1,10,-1
 780 146 l 1,11,-1
 780 220 l 2,12,13
 780 251 780 251 766 273 c 1,14,-1
 778 287 l 1,15,-1
 860 296 l 1,16,-1
 860 146 l 1,17,-1
 915 146 l 1,18,19
 915 111 915 111 895 95 c 1,20,-1
 861 95 l 1,21,22
 866 51 866 51 884 30 c 2,23,-1
 895 17 l 1,24,-1
 883 0 l 1,25,-1
 728 0 l 1,26,-1
 716 31 l 1,27,-1
 750 40 l 2,28,29
 768 45 768 45 774 53 c 128,-1,30
 780 61 780 61 780 85 c 2,4,-1
335.5 313 m 128,-1,32
 293 281 293 281 225.5 281 c 128,-1,33
 158 281 158 281 114.5 308 c 128,-1,34
 71 335 71 335 71 383 c 0,35,36
 71 413 71 413 92.5 432.5 c 128,-1,37
 114 452 114 452 136.5 452 c 128,-1,38
 159 452 159 452 163.5 450 c 128,-1,39
 168 448 168 448 168 438 c 1,40,41
 166 438 166 438 158.5 419.5 c 128,-1,42
 151 401 151 401 151 381.5 c 128,-1,43
 151 362 151 362 170.5 346.5 c 128,-1,44
 190 331 190 331 219 331 c 128,-1,45
 248 331 248 331 270 351 c 128,-1,46
 292 371 292 371 292 405 c 128,-1,47
 292 439 292 439 273 464.5 c 128,-1,48
 254 490 254 490 203 490 c 0,49,50
 184 490 184 490 173 487 c 128,-1,51
 162 484 162 484 155 484 c 0,52,53
 136 484 136 484 136 501 c 0,54,55
 136 513 136 513 142.5 517.5 c 128,-1,56
 149 522 149 522 177 527 c 0,57,58
 280 547 280 547 280 621 c 0,59,60
 280 652 280 652 261 669 c 128,-1,61
 242 686 242 686 218 686 c 128,-1,62
 194 686 194 686 178 672 c 128,-1,63
 162 658 162 658 162 634.5 c 128,-1,64
 162 611 162 611 170.5 597 c 128,-1,65
 179 583 179 583 179 581 c 0,66,67
 179 568 179 568 152 568 c 128,-1,68
 125 568 125 568 104 587 c 128,-1,69
 83 606 83 606 83 636 c 0,70,71
 83 682 83 682 122 707 c 128,-1,72
 161 732 161 732 219 732 c 128,-1,73
 277 732 277 732 321.5 703.5 c 128,-1,74
 366 675 366 675 366 623 c 0,75,76
 366 555 366 555 290 519 c 1,77,78
 333 504 333 504 355.5 473.5 c 128,-1,79
 378 443 378 443 378 404 c 0,80,31
 378 345 378 345 335.5 313 c 128,-1,32
EndSplineSet
EndChar

StartChar: questiondown
Encoding: 191 191 127
Width: 538
GlyphClass: 2
Flags: W
LayerCount: 2
Fore
SplineSet
366 446 m 128,-1,1
 366 427 366 427 344.5 403.5 c 128,-1,2
 323 380 323 380 304.5 380 c 128,-1,3
 286 380 286 380 264 403 c 128,-1,4
 242 426 242 426 242 445.5 c 128,-1,5
 242 465 242 465 264 488 c 128,-1,6
 286 511 286 511 304 511 c 128,-1,7
 322 511 322 511 344 488 c 128,-1,0
 366 465 366 465 366 446 c 128,-1,1
216.5 48.5 m 128,-1,9
 178 -19 178 -19 178 -80.5 c 128,-1,10
 178 -142 178 -142 211 -173.5 c 128,-1,11
 244 -205 244 -205 293.5 -205 c 128,-1,12
 343 -205 343 -205 368.5 -181.5 c 128,-1,13
 394 -158 394 -158 394 -125.5 c 128,-1,14
 394 -93 394 -93 388 -75 c 128,-1,15
 382 -57 382 -57 376 -47.5 c 128,-1,16
 370 -38 370 -38 370 -36 c 0,17,18
 370 -25 370 -25 389 -25 c 0,19,20
 432 -25 432 -25 459.5 -52.5 c 128,-1,21
 487 -80 487 -80 487 -123 c 0,22,23
 487 -184 487 -184 428 -223 c 128,-1,24
 369 -262 369 -262 277.5 -262 c 128,-1,25
 186 -262 186 -262 125 -215.5 c 128,-1,26
 64 -169 64 -169 64 -87 c 0,27,28
 64 19 64 19 205 154 c 0,29,30
 244 191 244 191 262 212.5 c 128,-1,31
 280 234 280 234 288 262 c 2,32,-1
 293 281 l 1,33,-1
 312 281 l 1,34,-1
 373 219 l 1,35,8
 255 116 255 116 216.5 48.5 c 128,-1,9
EndSplineSet
EndChar

StartChar: Agrave
Encoding: 192 192 128
Width: 706
GlyphClass: 2
Flags: W
LayerCount: 2
Fore
SplineSet
502.5 56 m 128,-1,1
 513 66 513 66 513 83 c 128,-1,2
 513 100 513 100 502 133 c 2,3,-1
 454 273 l 1,4,-1
 223 273 l 1,5,-1
 199 200 l 2,6,7
 176 131 176 131 176 96 c 128,-1,8
 176 61 176 61 190 34 c 2,9,-1
 199 16 l 1,10,-1
 180 0 l 1,11,-1
 -4 0 l 1,12,-1
 -16 34 l 1,13,-1
 7 40 l 2,14,15
 47 51 47 51 65 69 c 128,-1,16
 83 87 83 87 99 133 c 2,17,-1
 256 585 l 2,18,19
 267 618 267 618 267 635 c 128,-1,20
 267 652 267 652 256.5 662 c 128,-1,21
 246 672 246 672 222 678 c 2,22,-1
 199 684 l 1,23,-1
 211 718 l 1,24,-1
 404 718 l 1,25,-1
 605 138 l 2,26,27
 621 92 621 92 640 68 c 128,-1,28
 659 44 659 44 695 16 c 1,29,-1
 682 0 l 1,30,-1
 457 0 l 1,31,-1
 445 34 l 1,32,-1
 468 40 l 2,33,0
 492 46 492 46 502.5 56 c 128,-1,1
337 615 m 1,34,-1
 244 335 l 1,35,-1
 433 335 l 1,36,-1
 337 615 l 1,34,-1
310 846 m 2,37,38
 254 873 254 873 254 917 c 128,-1,39
 254 961 254 961 296 981 c 1,40,-1
 452 825 l 1,41,-1
 423 790 l 1,42,-1
 310 846 l 2,37,38
EndSplineSet
EndChar

StartChar: Aacute
Encoding: 193 193 129
Width: 706
GlyphClass: 2
Flags: W
LayerCount: 2
Fore
SplineSet
502.5 56 m 128,-1,1
 513 66 513 66 513 83 c 128,-1,2
 513 100 513 100 502 133 c 2,3,-1
 454 273 l 1,4,-1
 223 273 l 1,5,-1
 199 200 l 2,6,7
 176 131 176 131 176 96 c 128,-1,8
 176 61 176 61 190 34 c 2,9,-1
 199 16 l 1,10,-1
 180 0 l 1,11,-1
 -4 0 l 1,12,-1
 -16 34 l 1,13,-1
 7 40 l 2,14,15
 47 51 47 51 65 69 c 128,-1,16
 83 87 83 87 99 133 c 2,17,-1
 256 585 l 2,18,19
 267 618 267 618 267 635 c 128,-1,20
 267 652 267 652 256.5 662 c 128,-1,21
 246 672 246 672 222 678 c 2,22,-1
 199 684 l 1,23,-1
 211 718 l 1,24,-1
 404 718 l 1,25,-1
 605 138 l 2,26,27
 621 92 621 92 640 68 c 128,-1,28
 659 44 659 44 695 16 c 1,29,-1
 682 0 l 1,30,-1
 457 0 l 1,31,-1
 445 34 l 1,32,-1
 468 40 l 2,33,0
 492 46 492 46 502.5 56 c 128,-1,1
337 615 m 1,34,-1
 244 335 l 1,35,-1
 433 335 l 1,36,-1
 337 615 l 1,34,-1
410 981 m 1,37,38
 452 961 452 961 452 917 c 128,-1,39
 452 873 452 873 396 846 c 2,40,-1
 283 790 l 1,41,-1
 254 825 l 1,42,-1
 410 981 l 1,37,38
EndSplineSet
EndChar

StartChar: Acircumflex
Encoding: 194 194 130
Width: 706
GlyphClass: 2
Flags: W
LayerCount: 2
Fore
SplineSet
502.5 56 m 128,-1,1
 513 66 513 66 513 83 c 128,-1,2
 513 100 513 100 502 133 c 2,3,-1
 454 273 l 1,4,-1
 223 273 l 1,5,-1
 199 200 l 2,6,7
 176 131 176 131 176 96 c 128,-1,8
 176 61 176 61 190 34 c 2,9,-1
 199 16 l 1,10,-1
 180 0 l 1,11,-1
 -4 0 l 1,12,-1
 -16 34 l 1,13,-1
 7 40 l 2,14,15
 47 51 47 51 65 69 c 128,-1,16
 83 87 83 87 99 133 c 2,17,-1
 256 585 l 2,18,19
 267 618 267 618 267 635 c 128,-1,20
 267 652 267 652 256.5 662 c 128,-1,21
 246 672 246 672 222 678 c 2,22,-1
 199 684 l 1,23,-1
 211 718 l 1,24,-1
 404 718 l 1,25,-1
 605 138 l 2,26,27
 621 92 621 92 640 68 c 128,-1,28
 659 44 659 44 695 16 c 1,29,-1
 682 0 l 1,30,-1
 457 0 l 1,31,-1
 445 34 l 1,32,-1
 468 40 l 2,33,0
 492 46 492 46 502.5 56 c 128,-1,1
337 615 m 1,34,-1
 244 335 l 1,35,-1
 433 335 l 1,36,-1
 337 615 l 1,34,-1
340 976 m 1,37,-1
 367 976 l 1,38,39
 385 965 385 965 422 919 c 128,-1,40
 459 873 459 873 490 818 c 1,41,-1
 458 790 l 1,42,-1
 353 873 l 1,43,-1
 249 790 l 1,44,-1
 216 818 l 1,45,46
 248 874 248 874 284 919 c 128,-1,47
 320 964 320 964 340 976 c 1,37,-1
EndSplineSet
EndChar

StartChar: Atilde
Encoding: 195 195 131
Width: 706
GlyphClass: 2
Flags: W
LayerCount: 2
Fore
SplineSet
502.5 56 m 128,-1,1
 513 66 513 66 513 83 c 128,-1,2
 513 100 513 100 502 133 c 2,3,-1
 454 273 l 1,4,-1
 223 273 l 1,5,-1
 199 200 l 2,6,7
 176 131 176 131 176 96 c 128,-1,8
 176 61 176 61 190 34 c 2,9,-1
 199 16 l 1,10,-1
 180 0 l 1,11,-1
 -4 0 l 1,12,-1
 -16 34 l 1,13,-1
 7 40 l 2,14,15
 47 51 47 51 65 69 c 128,-1,16
 83 87 83 87 99 133 c 2,17,-1
 256 585 l 2,18,19
 267 618 267 618 267 635 c 128,-1,20
 267 652 267 652 256.5 662 c 128,-1,21
 246 672 246 672 222 678 c 2,22,-1
 199 684 l 1,23,-1
 211 718 l 1,24,-1
 404 718 l 1,25,-1
 605 138 l 2,26,27
 621 92 621 92 640 68 c 128,-1,28
 659 44 659 44 695 16 c 1,29,-1
 682 0 l 1,30,-1
 457 0 l 1,31,-1
 445 34 l 1,32,-1
 468 40 l 2,33,0
 492 46 492 46 502.5 56 c 128,-1,1
337 615 m 1,34,-1
 244 335 l 1,35,-1
 433 335 l 1,36,-1
 337 615 l 1,34,-1
386 816 m 0,37,38
 362 816 362 816 333.5 833.5 c 128,-1,39
 305 851 305 851 291 851 c 0,40,41
 263 851 263 851 224 812 c 1,42,-1
 189 843 l 1,43,44
 260 940 260 940 318 940 c 0,45,46
 341 940 341 940 369 922.5 c 128,-1,47
 397 905 397 905 412 905 c 0,48,49
 440 905 440 905 480 944 c 1,50,-1
 514 913 l 1,51,52
 445 816 445 816 386 816 c 0,37,38
EndSplineSet
EndChar

StartChar: Adieresis
Encoding: 196 196 132
Width: 706
GlyphClass: 2
Flags: W
LayerCount: 2
Fore
SplineSet
502.5 56 m 128,-1,1
 513 66 513 66 513 83 c 128,-1,2
 513 100 513 100 502 133 c 2,3,-1
 454 273 l 1,4,-1
 223 273 l 1,5,-1
 199 200 l 2,6,7
 176 131 176 131 176 96 c 128,-1,8
 176 61 176 61 190 34 c 2,9,-1
 199 16 l 1,10,-1
 180 0 l 1,11,-1
 -4 0 l 1,12,-1
 -16 34 l 1,13,-1
 7 40 l 2,14,15
 47 51 47 51 65 69 c 128,-1,16
 83 87 83 87 99 133 c 2,17,-1
 256 585 l 2,18,19
 267 618 267 618 267 635 c 128,-1,20
 267 652 267 652 256.5 662 c 128,-1,21
 246 672 246 672 222 678 c 2,22,-1
 199 684 l 1,23,-1
 211 718 l 1,24,-1
 404 718 l 1,25,-1
 605 138 l 2,26,27
 621 92 621 92 640 68 c 128,-1,28
 659 44 659 44 695 16 c 1,29,-1
 682 0 l 1,30,-1
 457 0 l 1,31,-1
 445 34 l 1,32,-1
 468 40 l 2,33,0
 492 46 492 46 502.5 56 c 128,-1,1
337 615 m 1,34,-1
 244 335 l 1,35,-1
 433 335 l 1,36,-1
 337 615 l 1,34,-1
196 879 m 128,-1,38
 196 898 196 898 217.5 921.5 c 128,-1,39
 239 945 239 945 257.5 945 c 128,-1,40
 276 945 276 945 298 922 c 128,-1,41
 320 899 320 899 320 879.5 c 128,-1,42
 320 860 320 860 298 837 c 128,-1,43
 276 814 276 814 258 814 c 128,-1,44
 240 814 240 814 218 837 c 128,-1,37
 196 860 196 860 196 879 c 128,-1,38
385 879 m 128,-1,46
 385 898 385 898 406.5 921.5 c 128,-1,47
 428 945 428 945 446.5 945 c 128,-1,48
 465 945 465 945 487 922 c 128,-1,49
 509 899 509 899 509 879.5 c 128,-1,50
 509 860 509 860 487 837 c 128,-1,51
 465 814 465 814 447 814 c 128,-1,52
 429 814 429 814 407 837 c 128,-1,45
 385 860 385 860 385 879 c 128,-1,46
EndSplineSet
EndChar

StartChar: Aring
Encoding: 197 197 133
Width: 706
GlyphClass: 2
Flags: W
LayerCount: 2
Fore
SplineSet
502.5 56 m 128,-1,1
 513 66 513 66 513 83 c 128,-1,2
 513 100 513 100 502 133 c 2,3,-1
 454 273 l 1,4,-1
 223 273 l 1,5,-1
 199 200 l 2,6,7
 176 131 176 131 176 96 c 128,-1,8
 176 61 176 61 190 34 c 2,9,-1
 199 16 l 1,10,-1
 180 0 l 1,11,-1
 -4 0 l 1,12,-1
 -16 34 l 1,13,-1
 7 40 l 2,14,15
 47 51 47 51 65 69 c 128,-1,16
 83 87 83 87 99 133 c 2,17,-1
 256 585 l 2,18,19
 267 618 267 618 267 635 c 128,-1,20
 267 652 267 652 256.5 662 c 128,-1,21
 246 672 246 672 222 678 c 2,22,-1
 199 684 l 1,23,-1
 211 718 l 1,24,-1
 404 718 l 1,25,-1
 605 138 l 2,26,27
 621 92 621 92 640 68 c 128,-1,28
 659 44 659 44 695 16 c 1,29,-1
 682 0 l 1,30,-1
 457 0 l 1,31,-1
 445 34 l 1,32,-1
 468 40 l 2,33,0
 492 46 492 46 502.5 56 c 128,-1,1
337 615 m 1,34,-1
 244 335 l 1,35,-1
 433 335 l 1,36,-1
 337 615 l 1,34,-1
309 879 m 128,-1,38
 309 854 309 854 320 837.5 c 128,-1,39
 331 821 331 821 351.5 821 c 128,-1,40
 372 821 372 821 383.5 837.5 c 128,-1,41
 395 854 395 854 395 879 c 128,-1,42
 395 904 395 904 383.5 920.5 c 128,-1,43
 372 937 372 937 351.5 937 c 128,-1,44
 331 937 331 937 320 920.5 c 128,-1,37
 309 904 309 904 309 879 c 128,-1,38
239 879 m 128,-1,46
 239 926 239 926 268 956 c 128,-1,47
 297 986 297 986 352 986 c 128,-1,48
 407 986 407 986 436.5 956 c 128,-1,49
 466 926 466 926 466 879 c 128,-1,50
 466 832 466 832 436.5 802.5 c 128,-1,51
 407 773 407 773 352 773 c 128,-1,52
 297 773 297 773 268 802.5 c 128,-1,45
 239 832 239 832 239 879 c 128,-1,46
EndSplineSet
EndChar

StartChar: AE
Encoding: 198 198 134
Width: 964
GlyphClass: 2
Flags: W
LayerCount: 2
Fore
SplineSet
665 306 m 2,0,-1
 580 306 l 1,1,-1
 580 133 l 2,2,3
 580 87 580 87 592.5 72 c 128,-1,4
 605 57 605 57 644 57 c 2,5,-1
 752 57 l 2,6,7
 805 57 805 57 826 74.5 c 128,-1,8
 847 92 847 92 861 146 c 2,9,-1
 867 169 l 1,10,-1
 901 157 l 1,11,-1
 901 -14 l 1,12,-1
 881 -25 l 1,13,-1
 873 -14 l 2,14,15
 862 0 862 0 831 0 c 2,16,-1
 410 0 l 1,17,-1
 399 32 l 1,18,-1
 420 38 l 2,19,20
 457 49 457 49 469 66 c 128,-1,21
 481 83 481 83 481 126 c 2,22,-1
 481 306 l 1,23,-1
 283 306 l 1,24,-1
 200 154 l 2,25,26
 179 115 179 115 179 89 c 128,-1,27
 179 63 179 63 192 34 c 1,28,-1
 201 16 l 1,29,-1
 182 0 l 1,30,-1
 -2 0 l 1,31,-1
 -14 34 l 1,32,-1
 9 40 l 2,33,34
 65 55 65 55 87 94 c 2,35,-1
 435 718 l 1,36,-1
 742 718 l 2,37,38
 828 718 828 718 856 739 c 2,39,-1
 874 752 l 1,40,-1
 890 739 l 1,41,-1
 890 561 l 1,42,-1
 856 549 l 1,43,-1
 850 572 l 2,44,45
 836 626 836 626 815 643.5 c 128,-1,46
 794 661 794 661 741 661 c 2,47,-1
 644 661 l 2,48,49
 605 661 605 661 592.5 646 c 128,-1,50
 580 631 580 631 580 585 c 2,51,-1
 580 363 l 1,52,-1
 707 363 l 2,53,54
 753 363 753 363 786 409 c 2,55,-1
 794 420 l 1,56,-1
 814 409 l 1,57,-1
 814 238 l 1,58,-1
 780 226 l 1,59,-1
 774 249 l 2,60,61
 765 283 765 283 742.5 294.5 c 128,-1,62
 720 306 720 306 665 306 c 2,0,-1
481 363 m 1,63,-1
 481 665 l 1,64,-1
 315 363 l 1,65,-1
 481 363 l 1,63,-1
EndSplineSet
EndChar

StartChar: Ccedilla
Encoding: 199 199 135
Width: 617
GlyphClass: 2
Flags: W
LayerCount: 2
Fore
SplineSet
358 732 m 0,0,1
 201 732 201 732 118 626.5 c 128,-1,2
 35 521 35 521 35 358.5 c 128,-1,3
 35 196 35 196 117.5 91 c 128,-1,4
 200 -14 200 -14 351 -14 c 128,-1,5
 502 -14 502 -14 588 113 c 0,6,7
 591 118 591 118 591 124 c 128,-1,8
 591 130 591 130 579.5 139.5 c 128,-1,9
 568 149 568 149 561.5 149 c 128,-1,10
 555 149 555 149 552 145 c 0,11,12
 490 55 490 55 364 55 c 0,13,14
 266 55 266 55 207 142.5 c 128,-1,15
 148 230 148 230 148 355.5 c 128,-1,16
 148 481 148 481 194 572 c 1,17,18
 217 620 217 620 259.5 648 c 128,-1,19
 302 676 302 676 358.5 676 c 128,-1,20
 415 676 415 676 450 647 c 128,-1,21
 485 618 485 618 485 573.5 c 128,-1,22
 485 529 485 529 462 494 c 0,23,24
 455 483 455 483 455 480 c 0,25,26
 455 468 455 468 476 468 c 0,27,28
 522 468 522 468 552.5 501 c 128,-1,29
 583 534 583 534 583 585 c 0,30,31
 583 650 583 650 520 691 c 128,-1,32
 457 732 457 732 358 732 c 0,0,1
267 -242 m 128,-1,34
 279 -253 279 -253 302 -253 c 128,-1,35
 325 -253 325 -253 342 -230.5 c 128,-1,36
 359 -208 359 -208 359 -177.5 c 128,-1,37
 359 -147 359 -147 341.5 -125 c 128,-1,38
 324 -103 324 -103 294.5 -103 c 128,-1,39
 265 -103 265 -103 237 -120 c 1,40,-1
 217 -102 l 1,41,-1
 335 51 l 1,42,-1
 359 29 l 1,43,-1
 282 -70 l 1,44,45
 299 -66 299 -66 320 -66 c 0,46,47
 368 -66 368 -66 400.5 -95 c 128,-1,48
 433 -124 433 -124 433 -175.5 c 128,-1,49
 433 -227 433 -227 394 -261 c 128,-1,50
 355 -295 355 -295 304 -295 c 128,-1,51
 253 -295 253 -295 220.5 -274.5 c 128,-1,52
 188 -254 188 -254 188 -223 c 128,-1,53
 188 -192 188 -192 206.5 -176 c 128,-1,54
 225 -160 225 -160 247 -160 c 128,-1,55
 269 -160 269 -160 269 -170 c 0,56,57
 269 -172 269 -172 262 -184 c 128,-1,58
 255 -196 255 -196 255 -213.5 c 128,-1,33
 255 -231 255 -231 267 -242 c 128,-1,34
EndSplineSet
EndChar

StartChar: Egrave
Encoding: 200 200 136
Width: 610
GlyphClass: 2
Flags: W
LayerCount: 2
Fore
SplineSet
311 336 m 2,0,-1
 226 336 l 1,1,-1
 226 133 l 2,2,3
 226 87 226 87 238.5 72 c 128,-1,4
 251 57 251 57 290 57 c 2,5,-1
 398 57 l 2,6,7
 451 57 451 57 472 74.5 c 128,-1,8
 493 92 493 92 507 146 c 2,9,-1
 513 169 l 1,10,-1
 547 157 l 1,11,-1
 547 -14 l 1,12,-1
 527 -25 l 1,13,-1
 519 -14 l 2,14,15
 508 0 508 0 477 0 c 2,16,-1
 56 0 l 1,17,-1
 45 32 l 1,18,-1
 66 38 l 2,19,20
 103 49 103 49 115 66 c 128,-1,21
 127 83 127 83 127 126 c 2,22,-1
 127 517 l 2,23,24
 127 577 127 577 117 614 c 128,-1,25
 107 651 107 651 82 684 c 2,26,-1
 69 702 l 1,27,-1
 82 718 l 1,28,-1
 388 718 l 2,29,30
 474 718 474 718 502 739 c 2,31,-1
 520 752 l 1,32,-1
 536 739 l 1,33,-1
 536 561 l 1,34,-1
 502 549 l 1,35,-1
 496 572 l 2,36,37
 482 626 482 626 461 643.5 c 128,-1,38
 440 661 440 661 387 661 c 2,39,-1
 290 661 l 2,40,41
 251 661 251 661 238.5 646 c 128,-1,42
 226 631 226 631 226 585 c 2,43,-1
 226 393 l 1,44,-1
 353 393 l 2,45,46
 399 393 399 393 432 439 c 2,47,-1
 440 450 l 1,48,-1
 460 439 l 1,49,-1
 460 268 l 1,50,-1
 426 256 l 1,51,-1
 420 279 l 2,52,53
 411 313 411 313 388.5 324.5 c 128,-1,54
 366 336 366 336 311 336 c 2,0,-1
266 846 m 2,55,56
 210 873 210 873 210 917 c 128,-1,57
 210 961 210 961 252 981 c 1,58,-1
 408 825 l 1,59,-1
 379 790 l 1,60,-1
 266 846 l 2,55,56
EndSplineSet
EndChar

StartChar: Eacute
Encoding: 201 201 137
Width: 610
GlyphClass: 2
Flags: W
LayerCount: 2
Fore
SplineSet
311 336 m 2,0,-1
 226 336 l 1,1,-1
 226 133 l 2,2,3
 226 87 226 87 238.5 72 c 128,-1,4
 251 57 251 57 290 57 c 2,5,-1
 398 57 l 2,6,7
 451 57 451 57 472 74.5 c 128,-1,8
 493 92 493 92 507 146 c 2,9,-1
 513 169 l 1,10,-1
 547 157 l 1,11,-1
 547 -14 l 1,12,-1
 527 -25 l 1,13,-1
 519 -14 l 2,14,15
 508 0 508 0 477 0 c 2,16,-1
 56 0 l 1,17,-1
 45 32 l 1,18,-1
 66 38 l 2,19,20
 103 49 103 49 115 66 c 128,-1,21
 127 83 127 83 127 126 c 2,22,-1
 127 517 l 2,23,24
 127 577 127 577 117 614 c 128,-1,25
 107 651 107 651 82 684 c 2,26,-1
 69 702 l 1,27,-1
 82 718 l 1,28,-1
 388 718 l 2,29,30
 474 718 474 718 502 739 c 2,31,-1
 520 752 l 1,32,-1
 536 739 l 1,33,-1
 536 561 l 1,34,-1
 502 549 l 1,35,-1
 496 572 l 2,36,37
 482 626 482 626 461 643.5 c 128,-1,38
 440 661 440 661 387 661 c 2,39,-1
 290 661 l 2,40,41
 251 661 251 661 238.5 646 c 128,-1,42
 226 631 226 631 226 585 c 2,43,-1
 226 393 l 1,44,-1
 353 393 l 2,45,46
 399 393 399 393 432 439 c 2,47,-1
 440 450 l 1,48,-1
 460 439 l 1,49,-1
 460 268 l 1,50,-1
 426 256 l 1,51,-1
 420 279 l 2,52,53
 411 313 411 313 388.5 324.5 c 128,-1,54
 366 336 366 336 311 336 c 2,0,-1
396 981 m 1,55,56
 438 961 438 961 438 917 c 128,-1,57
 438 873 438 873 382 846 c 2,58,-1
 269 790 l 1,59,-1
 240 825 l 1,60,-1
 396 981 l 1,55,56
EndSplineSet
EndChar

StartChar: Ecircumflex
Encoding: 202 202 138
Width: 610
GlyphClass: 2
Flags: W
LayerCount: 2
Fore
SplineSet
311 336 m 2,0,-1
 226 336 l 1,1,-1
 226 133 l 2,2,3
 226 87 226 87 238.5 72 c 128,-1,4
 251 57 251 57 290 57 c 2,5,-1
 398 57 l 2,6,7
 451 57 451 57 472 74.5 c 128,-1,8
 493 92 493 92 507 146 c 2,9,-1
 513 169 l 1,10,-1
 547 157 l 1,11,-1
 547 -14 l 1,12,-1
 527 -25 l 1,13,-1
 519 -14 l 2,14,15
 508 0 508 0 477 0 c 2,16,-1
 56 0 l 1,17,-1
 45 32 l 1,18,-1
 66 38 l 2,19,20
 103 49 103 49 115 66 c 128,-1,21
 127 83 127 83 127 126 c 2,22,-1
 127 517 l 2,23,24
 127 577 127 577 117 614 c 128,-1,25
 107 651 107 651 82 684 c 2,26,-1
 69 702 l 1,27,-1
 82 718 l 1,28,-1
 388 718 l 2,29,30
 474 718 474 718 502 739 c 2,31,-1
 520 752 l 1,32,-1
 536 739 l 1,33,-1
 536 561 l 1,34,-1
 502 549 l 1,35,-1
 496 572 l 2,36,37
 482 626 482 626 461 643.5 c 128,-1,38
 440 661 440 661 387 661 c 2,39,-1
 290 661 l 2,40,41
 251 661 251 661 238.5 646 c 128,-1,42
 226 631 226 631 226 585 c 2,43,-1
 226 393 l 1,44,-1
 353 393 l 2,45,46
 399 393 399 393 432 439 c 2,47,-1
 440 450 l 1,48,-1
 460 439 l 1,49,-1
 460 268 l 1,50,-1
 426 256 l 1,51,-1
 420 279 l 2,52,53
 411 313 411 313 388.5 324.5 c 128,-1,54
 366 336 366 336 311 336 c 2,0,-1
306 976 m 1,55,-1
 333 976 l 1,56,57
 351 965 351 965 388 919 c 128,-1,58
 425 873 425 873 456 818 c 1,59,-1
 424 790 l 1,60,-1
 319 873 l 1,61,-1
 215 790 l 1,62,-1
 182 818 l 1,63,64
 214 874 214 874 250 919 c 128,-1,65
 286 964 286 964 306 976 c 1,55,-1
EndSplineSet
EndChar

StartChar: Edieresis
Encoding: 203 203 139
Width: 610
GlyphClass: 2
Flags: W
LayerCount: 2
Fore
SplineSet
311 336 m 2,0,-1
 226 336 l 1,1,-1
 226 133 l 2,2,3
 226 87 226 87 238.5 72 c 128,-1,4
 251 57 251 57 290 57 c 2,5,-1
 398 57 l 2,6,7
 451 57 451 57 472 74.5 c 128,-1,8
 493 92 493 92 507 146 c 2,9,-1
 513 169 l 1,10,-1
 547 157 l 1,11,-1
 547 -14 l 1,12,-1
 527 -25 l 1,13,-1
 519 -14 l 2,14,15
 508 0 508 0 477 0 c 2,16,-1
 56 0 l 1,17,-1
 45 32 l 1,18,-1
 66 38 l 2,19,20
 103 49 103 49 115 66 c 128,-1,21
 127 83 127 83 127 126 c 2,22,-1
 127 517 l 2,23,24
 127 577 127 577 117 614 c 128,-1,25
 107 651 107 651 82 684 c 2,26,-1
 69 702 l 1,27,-1
 82 718 l 1,28,-1
 388 718 l 2,29,30
 474 718 474 718 502 739 c 2,31,-1
 520 752 l 1,32,-1
 536 739 l 1,33,-1
 536 561 l 1,34,-1
 502 549 l 1,35,-1
 496 572 l 2,36,37
 482 626 482 626 461 643.5 c 128,-1,38
 440 661 440 661 387 661 c 2,39,-1
 290 661 l 2,40,41
 251 661 251 661 238.5 646 c 128,-1,42
 226 631 226 631 226 585 c 2,43,-1
 226 393 l 1,44,-1
 353 393 l 2,45,46
 399 393 399 393 432 439 c 2,47,-1
 440 450 l 1,48,-1
 460 439 l 1,49,-1
 460 268 l 1,50,-1
 426 256 l 1,51,-1
 420 279 l 2,52,53
 411 313 411 313 388.5 324.5 c 128,-1,54
 366 336 366 336 311 336 c 2,0,-1
162 879 m 128,-1,56
 162 898 162 898 183.5 921.5 c 128,-1,57
 205 945 205 945 223.5 945 c 128,-1,58
 242 945 242 945 264 922 c 128,-1,59
 286 899 286 899 286 879.5 c 128,-1,60
 286 860 286 860 264 837 c 128,-1,61
 242 814 242 814 224 814 c 128,-1,62
 206 814 206 814 184 837 c 128,-1,55
 162 860 162 860 162 879 c 128,-1,56
351 879 m 128,-1,64
 351 898 351 898 372.5 921.5 c 128,-1,65
 394 945 394 945 412.5 945 c 128,-1,66
 431 945 431 945 453 922 c 128,-1,67
 475 899 475 899 475 879.5 c 128,-1,68
 475 860 475 860 453 837 c 128,-1,69
 431 814 431 814 413 814 c 128,-1,70
 395 814 395 814 373 837 c 128,-1,63
 351 860 351 860 351 879 c 128,-1,64
EndSplineSet
EndChar

StartChar: Igrave
Encoding: 204 204 140
Width: 353
GlyphClass: 2
Flags: W
LayerCount: 2
Fore
SplineSet
127 133 m 2,0,-1
 127 585 l 2,1,2
 127 631 127 631 114 649 c 128,-1,3
 101 667 101 667 63 678 c 1,4,-1
 40 684 l 1,5,-1
 52 718 l 1,6,-1
 271 718 l 1,7,-1
 284 702 l 1,8,-1
 271 684 l 2,9,10
 246 651 246 651 236 614 c 128,-1,11
 226 577 226 577 226 517 c 2,12,-1
 226 126 l 2,13,14
 226 83 226 83 238 66 c 128,-1,15
 250 49 250 49 287 38 c 2,16,-1
 308 32 l 1,17,-1
 297 0 l 1,18,-1
 52 0 l 1,19,-1
 40 34 l 1,20,-1
 63 40 l 1,21,22
 101 51 101 51 114 69 c 128,-1,23
 127 87 127 87 127 133 c 2,0,-1
133 846 m 2,24,25
 77 873 77 873 77 917 c 128,-1,26
 77 961 77 961 119 981 c 1,27,-1
 275 825 l 1,28,-1
 246 790 l 1,29,-1
 133 846 l 2,24,25
EndSplineSet
EndChar

StartChar: Iacute
Encoding: 205 205 141
Width: 353
GlyphClass: 2
Flags: W
LayerCount: 2
Fore
SplineSet
127 133 m 2,0,-1
 127 585 l 2,1,2
 127 631 127 631 114 649 c 128,-1,3
 101 667 101 667 63 678 c 1,4,-1
 40 684 l 1,5,-1
 52 718 l 1,6,-1
 271 718 l 1,7,-1
 284 702 l 1,8,-1
 271 684 l 2,9,10
 246 651 246 651 236 614 c 128,-1,11
 226 577 226 577 226 517 c 2,12,-1
 226 126 l 2,13,14
 226 83 226 83 238 66 c 128,-1,15
 250 49 250 49 287 38 c 2,16,-1
 308 32 l 1,17,-1
 297 0 l 1,18,-1
 52 0 l 1,19,-1
 40 34 l 1,20,-1
 63 40 l 1,21,22
 101 51 101 51 114 69 c 128,-1,23
 127 87 127 87 127 133 c 2,0,-1
243 981 m 1,24,25
 285 961 285 961 285 917 c 128,-1,26
 285 873 285 873 229 846 c 2,27,-1
 116 790 l 1,28,-1
 87 825 l 1,29,-1
 243 981 l 1,24,25
EndSplineSet
EndChar

StartChar: Icircumflex
Encoding: 206 206 142
Width: 353
GlyphClass: 2
Flags: W
LayerCount: 2
Fore
SplineSet
127 133 m 2,0,-1
 127 585 l 2,1,2
 127 631 127 631 114 649 c 128,-1,3
 101 667 101 667 63 678 c 1,4,-1
 40 684 l 1,5,-1
 52 718 l 1,6,-1
 271 718 l 1,7,-1
 284 702 l 1,8,-1
 271 684 l 2,9,10
 246 651 246 651 236 614 c 128,-1,11
 226 577 226 577 226 517 c 2,12,-1
 226 126 l 2,13,14
 226 83 226 83 238 66 c 128,-1,15
 250 49 250 49 287 38 c 2,16,-1
 308 32 l 1,17,-1
 297 0 l 1,18,-1
 52 0 l 1,19,-1
 40 34 l 1,20,-1
 63 40 l 1,21,22
 101 51 101 51 114 69 c 128,-1,23
 127 87 127 87 127 133 c 2,0,-1
163 976 m 1,24,-1
 190 976 l 1,25,26
 208 965 208 965 245 919 c 128,-1,27
 282 873 282 873 313 818 c 1,28,-1
 281 790 l 1,29,-1
 176 873 l 1,30,-1
 72 790 l 1,31,-1
 39 818 l 1,32,33
 71 874 71 874 107 919 c 128,-1,34
 143 964 143 964 163 976 c 1,24,-1
EndSplineSet
EndChar

StartChar: Idieresis
Encoding: 207 207 143
Width: 353
GlyphClass: 2
Flags: W
LayerCount: 2
Fore
SplineSet
127 133 m 2,0,-1
 127 585 l 2,1,2
 127 631 127 631 114 649 c 128,-1,3
 101 667 101 667 63 678 c 1,4,-1
 40 684 l 1,5,-1
 52 718 l 1,6,-1
 271 718 l 1,7,-1
 284 702 l 1,8,-1
 271 684 l 2,9,10
 246 651 246 651 236 614 c 128,-1,11
 226 577 226 577 226 517 c 2,12,-1
 226 126 l 2,13,14
 226 83 226 83 238 66 c 128,-1,15
 250 49 250 49 287 38 c 2,16,-1
 308 32 l 1,17,-1
 297 0 l 1,18,-1
 52 0 l 1,19,-1
 40 34 l 1,20,-1
 63 40 l 1,21,22
 101 51 101 51 114 69 c 128,-1,23
 127 87 127 87 127 133 c 2,0,-1
20 879 m 128,-1,25
 20 898 20 898 41.5 921.5 c 128,-1,26
 63 945 63 945 81.5 945 c 128,-1,27
 100 945 100 945 122 922 c 128,-1,28
 144 899 144 899 144 879.5 c 128,-1,29
 144 860 144 860 122 837 c 128,-1,30
 100 814 100 814 82 814 c 128,-1,31
 64 814 64 814 42 837 c 128,-1,24
 20 860 20 860 20 879 c 128,-1,25
209 879 m 128,-1,33
 209 898 209 898 230.5 921.5 c 128,-1,34
 252 945 252 945 270.5 945 c 128,-1,35
 289 945 289 945 311 922 c 128,-1,36
 333 899 333 899 333 879.5 c 128,-1,37
 333 860 333 860 311 837 c 128,-1,38
 289 814 289 814 271 814 c 128,-1,39
 253 814 253 814 231 837 c 128,-1,32
 209 860 209 860 209 879 c 128,-1,33
EndSplineSet
EndChar

StartChar: Eth
Encoding: 208 208 144
Width: 733
GlyphClass: 2
Flags: W
LayerCount: 2
Fore
SplineSet
10 332 m 1,0,1
 10 378 10 378 33 395 c 1,2,-1
 421 395 l 1,3,4
 421 350 421 350 398 332 c 1,5,-1
 10 332 l 1,0,1
366 0 m 2,6,-1
 52 0 l 1,7,-1
 40 34 l 1,8,-1
 63 40 l 2,9,10
 95 49 95 49 111 66.5 c 128,-1,11
 127 84 127 84 127 122 c 2,12,-1
 127 627 l 2,13,14
 127 651 127 651 105 651 c 2,15,-1
 47 651 l 1,16,-1
 35 688 l 1,17,18
 83 705 83 705 159 718.5 c 128,-1,19
 235 732 235 732 314 732 c 128,-1,20
 393 732 393 732 461 712 c 128,-1,21
 529 692 529 692 573 658 c 128,-1,22
 617 624 617 624 646 576 c 1,23,24
 698 486 698 486 698 358 c 0,25,26
 698 201 698 201 612.5 100.5 c 128,-1,27
 527 0 527 0 366 0 c 2,6,-1
226 630 m 2,28,-1
 226 175 l 2,29,30
 226 104 226 104 255.5 77.5 c 128,-1,31
 285 51 285 51 334 51 c 0,32,33
 589 51 589 51 589 360 c 0,34,35
 589 487 589 487 526 578 c 0,36,37
 495 623 495 623 443 649.5 c 128,-1,38
 391 676 391 676 324 676 c 0,39,40
 226 676 226 676 226 630 c 2,28,-1
EndSplineSet
EndChar

StartChar: Ntilde
Encoding: 209 209 145
Width: 779
GlyphClass: 2
Flags: W
LayerCount: 2
Fore
SplineSet
191 201 m 2,0,1
 191 141 191 141 201 104 c 128,-1,2
 211 67 211 67 236 34 c 2,3,-1
 249 16 l 1,4,-1
 236 0 l 1,5,-1
 46 0 l 1,6,-1
 34 34 l 1,7,-1
 57 40 l 1,8,9
 95 51 95 51 108 69 c 128,-1,10
 121 87 121 87 121 133 c 2,11,-1
 121 585 l 2,12,13
 121 631 121 631 108 649 c 128,-1,14
 95 667 95 667 57 678 c 1,15,-1
 34 684 l 1,16,-1
 46 718 l 1,17,-1
 207 718 l 1,18,-1
 589 151 l 1,19,-1
 589 585 l 2,20,21
 589 631 589 631 576 649 c 128,-1,22
 563 667 563 667 525 678 c 1,23,-1
 502 684 l 1,24,-1
 514 718 l 1,25,-1
 704 718 l 1,26,-1
 717 702 l 1,27,-1
 704 684 l 2,28,29
 679 651 679 651 669 614 c 128,-1,30
 659 577 659 577 659 517 c 2,31,-1
 659 88 l 2,32,33
 659 54 659 54 673 34 c 2,34,-1
 686 16 l 1,35,-1
 673 0 l 1,36,-1
 572 0 l 1,37,-1
 191 565 l 1,38,-1
 191 201 l 2,0,1
432 816 m 0,39,40
 408 816 408 816 379.5 833.5 c 128,-1,41
 351 851 351 851 337 851 c 0,42,43
 309 851 309 851 270 812 c 1,44,-1
 235 843 l 1,45,46
 306 940 306 940 364 940 c 0,47,48
 387 940 387 940 415 922.5 c 128,-1,49
 443 905 443 905 458 905 c 0,50,51
 486 905 486 905 526 944 c 1,52,-1
 560 913 l 1,53,54
 491 816 491 816 432 816 c 0,39,40
EndSplineSet
EndChar

StartChar: Ograve
Encoding: 210 210 146
Width: 733
GlyphClass: 2
Flags: W
LayerCount: 2
Fore
SplineSet
544 561 m 0,0,1
 521 612 521 612 476 643.5 c 128,-1,2
 431 675 431 675 371 675 c 0,3,4
 265 675 265 675 204 581.5 c 128,-1,5
 143 488 143 488 143 352.5 c 128,-1,6
 143 217 143 217 200 131 c 128,-1,7
 257 45 257 45 362 45 c 128,-1,8
 467 45 467 45 528 133 c 128,-1,9
 589 221 589 221 589 342.5 c 128,-1,10
 589 464 589 464 544 561 c 0,0,1
35 358 m 128,-1,12
 35 521 35 521 120 626.5 c 128,-1,13
 205 732 205 732 365.5 732 c 128,-1,14
 526 732 526 732 612 626.5 c 128,-1,15
 698 521 698 521 698 358 c 128,-1,16
 698 195 698 195 612 90.5 c 128,-1,17
 526 -14 526 -14 365.5 -14 c 128,-1,18
 205 -14 205 -14 120 90.5 c 128,-1,11
 35 195 35 195 35 358 c 128,-1,12
323 846 m 2,19,20
 267 873 267 873 267 917 c 128,-1,21
 267 961 267 961 309 981 c 1,22,-1
 465 825 l 1,23,-1
 436 790 l 1,24,-1
 323 846 l 2,19,20
EndSplineSet
EndChar

StartChar: Oacute
Encoding: 211 211 147
Width: 733
GlyphClass: 2
Flags: W
LayerCount: 2
Fore
SplineSet
544 561 m 0,0,1
 521 612 521 612 476 643.5 c 128,-1,2
 431 675 431 675 371 675 c 0,3,4
 265 675 265 675 204 581.5 c 128,-1,5
 143 488 143 488 143 352.5 c 128,-1,6
 143 217 143 217 200 131 c 128,-1,7
 257 45 257 45 362 45 c 128,-1,8
 467 45 467 45 528 133 c 128,-1,9
 589 221 589 221 589 342.5 c 128,-1,10
 589 464 589 464 544 561 c 0,0,1
35 358 m 128,-1,12
 35 521 35 521 120 626.5 c 128,-1,13
 205 732 205 732 365.5 732 c 128,-1,14
 526 732 526 732 612 626.5 c 128,-1,15
 698 521 698 521 698 358 c 128,-1,16
 698 195 698 195 612 90.5 c 128,-1,17
 526 -14 526 -14 365.5 -14 c 128,-1,18
 205 -14 205 -14 120 90.5 c 128,-1,11
 35 195 35 195 35 358 c 128,-1,12
423 981 m 1,19,20
 465 961 465 961 465 917 c 128,-1,21
 465 873 465 873 409 846 c 2,22,-1
 296 790 l 1,23,-1
 267 825 l 1,24,-1
 423 981 l 1,19,20
EndSplineSet
EndChar

StartChar: Ocircumflex
Encoding: 212 212 148
Width: 733
GlyphClass: 2
Flags: W
LayerCount: 2
Fore
SplineSet
544 561 m 0,0,1
 521 612 521 612 476 643.5 c 128,-1,2
 431 675 431 675 371 675 c 0,3,4
 265 675 265 675 204 581.5 c 128,-1,5
 143 488 143 488 143 352.5 c 128,-1,6
 143 217 143 217 200 131 c 128,-1,7
 257 45 257 45 362 45 c 128,-1,8
 467 45 467 45 528 133 c 128,-1,9
 589 221 589 221 589 342.5 c 128,-1,10
 589 464 589 464 544 561 c 0,0,1
35 358 m 128,-1,12
 35 521 35 521 120 626.5 c 128,-1,13
 205 732 205 732 365.5 732 c 128,-1,14
 526 732 526 732 612 626.5 c 128,-1,15
 698 521 698 521 698 358 c 128,-1,16
 698 195 698 195 612 90.5 c 128,-1,17
 526 -14 526 -14 365.5 -14 c 128,-1,18
 205 -14 205 -14 120 90.5 c 128,-1,11
 35 195 35 195 35 358 c 128,-1,12
353 976 m 1,19,-1
 380 976 l 1,20,21
 398 965 398 965 435 919 c 128,-1,22
 472 873 472 873 503 818 c 1,23,-1
 471 790 l 1,24,-1
 366 873 l 1,25,-1
 262 790 l 1,26,-1
 229 818 l 1,27,28
 261 874 261 874 297 919 c 128,-1,29
 333 964 333 964 353 976 c 1,19,-1
EndSplineSet
EndChar

StartChar: Otilde
Encoding: 213 213 149
Width: 733
GlyphClass: 2
Flags: W
LayerCount: 2
Fore
SplineSet
544 561 m 0,0,1
 521 612 521 612 476 643.5 c 128,-1,2
 431 675 431 675 371 675 c 0,3,4
 265 675 265 675 204 581.5 c 128,-1,5
 143 488 143 488 143 352.5 c 128,-1,6
 143 217 143 217 200 131 c 128,-1,7
 257 45 257 45 362 45 c 128,-1,8
 467 45 467 45 528 133 c 128,-1,9
 589 221 589 221 589 342.5 c 128,-1,10
 589 464 589 464 544 561 c 0,0,1
35 358 m 128,-1,12
 35 521 35 521 120 626.5 c 128,-1,13
 205 732 205 732 365.5 732 c 128,-1,14
 526 732 526 732 612 626.5 c 128,-1,15
 698 521 698 521 698 358 c 128,-1,16
 698 195 698 195 612 90.5 c 128,-1,17
 526 -14 526 -14 365.5 -14 c 128,-1,18
 205 -14 205 -14 120 90.5 c 128,-1,11
 35 195 35 195 35 358 c 128,-1,12
401 816 m 0,19,20
 377 816 377 816 348.5 833.5 c 128,-1,21
 320 851 320 851 306 851 c 0,22,23
 278 851 278 851 239 812 c 1,24,-1
 204 843 l 1,25,26
 275 940 275 940 333 940 c 0,27,28
 356 940 356 940 384 922.5 c 128,-1,29
 412 905 412 905 427 905 c 0,30,31
 455 905 455 905 495 944 c 1,32,-1
 529 913 l 1,33,34
 460 816 460 816 401 816 c 0,19,20
EndSplineSet
EndChar

StartChar: Odieresis
Encoding: 214 214 150
Width: 733
GlyphClass: 2
Flags: W
LayerCount: 2
Fore
SplineSet
544 561 m 0,0,1
 521 612 521 612 476 643.5 c 128,-1,2
 431 675 431 675 371 675 c 0,3,4
 265 675 265 675 204 581.5 c 128,-1,5
 143 488 143 488 143 352.5 c 128,-1,6
 143 217 143 217 200 131 c 128,-1,7
 257 45 257 45 362 45 c 128,-1,8
 467 45 467 45 528 133 c 128,-1,9
 589 221 589 221 589 342.5 c 128,-1,10
 589 464 589 464 544 561 c 0,0,1
35 358 m 128,-1,12
 35 521 35 521 120 626.5 c 128,-1,13
 205 732 205 732 365.5 732 c 128,-1,14
 526 732 526 732 612 626.5 c 128,-1,15
 698 521 698 521 698 358 c 128,-1,16
 698 195 698 195 612 90.5 c 128,-1,17
 526 -14 526 -14 365.5 -14 c 128,-1,18
 205 -14 205 -14 120 90.5 c 128,-1,11
 35 195 35 195 35 358 c 128,-1,12
210 879 m 128,-1,20
 210 898 210 898 231.5 921.5 c 128,-1,21
 253 945 253 945 271.5 945 c 128,-1,22
 290 945 290 945 312 922 c 128,-1,23
 334 899 334 899 334 879.5 c 128,-1,24
 334 860 334 860 312 837 c 128,-1,25
 290 814 290 814 272 814 c 128,-1,26
 254 814 254 814 232 837 c 128,-1,19
 210 860 210 860 210 879 c 128,-1,20
399 879 m 128,-1,28
 399 898 399 898 420.5 921.5 c 128,-1,29
 442 945 442 945 460.5 945 c 128,-1,30
 479 945 479 945 501 922 c 128,-1,31
 523 899 523 899 523 879.5 c 128,-1,32
 523 860 523 860 501 837 c 128,-1,33
 479 814 479 814 461 814 c 128,-1,34
 443 814 443 814 421 837 c 128,-1,27
 399 860 399 860 399 879 c 128,-1,28
EndSplineSet
EndChar

StartChar: multiply
Encoding: 215 215 151
Width: 621
GlyphClass: 2
Flags: W
LayerCount: 2
Fore
SplineSet
166 158 m 1,0,-1
 112 212 l 1,1,-1
 256 357 l 1,2,-1
 112 502 l 1,3,-1
 166 556 l 1,4,-1
 310 411 l 1,5,-1
 455 556 l 1,6,-1
 509 502 l 1,7,-1
 364 357 l 1,8,-1
 509 212 l 1,9,-1
 455 158 l 1,10,-1
 310 303 l 1,11,-1
 166 158 l 1,0,-1
EndSplineSet
EndChar

StartChar: Oslash
Encoding: 216 216 152
Width: 733
GlyphClass: 2
Flags: W
LayerCount: 2
Fore
SplineSet
544 561 m 0,0,1
 521 612 521 612 476 643.5 c 128,-1,2
 431 675 431 675 371 675 c 0,3,4
 265 675 265 675 204 581.5 c 128,-1,5
 143 488 143 488 143 352.5 c 128,-1,6
 143 217 143 217 200 131 c 128,-1,7
 257 45 257 45 362 45 c 128,-1,8
 467 45 467 45 528 133 c 128,-1,9
 589 221 589 221 589 342.5 c 128,-1,10
 589 464 589 464 544 561 c 0,0,1
35 358 m 128,-1,12
 35 521 35 521 120 626.5 c 128,-1,13
 205 732 205 732 365.5 732 c 128,-1,14
 526 732 526 732 612 626.5 c 128,-1,15
 698 521 698 521 698 358 c 128,-1,16
 698 195 698 195 612 90.5 c 128,-1,17
 526 -14 526 -14 365.5 -14 c 128,-1,18
 205 -14 205 -14 120 90.5 c 128,-1,11
 35 195 35 195 35 358 c 128,-1,12
252 -63 m 1,19,-1
 181 -63 l 1,20,-1
 480 781 l 1,21,-1
 552 781 l 1,22,-1
 252 -63 l 1,19,-1
EndSplineSet
EndChar

StartChar: Ugrave
Encoding: 217 217 153
Width: 739
GlyphClass: 2
Flags: W
LayerCount: 2
Fore
SplineSet
210 517 m 2,0,-1
 210 220 l 2,1,2
 210 141 210 141 260 95 c 128,-1,3
 310 49 310 49 386 49 c 128,-1,4
 462 49 462 49 512 95 c 128,-1,5
 562 141 562 141 562 220 c 2,6,-1
 562 585 l 2,7,8
 562 631 562 631 549 649 c 128,-1,9
 536 667 536 667 498 678 c 1,10,-1
 475 684 l 1,11,-1
 487 718 l 1,12,-1
 677 718 l 1,13,-1
 690 702 l 1,14,-1
 677 684 l 2,15,16
 652 651 652 651 642 614 c 128,-1,17
 632 577 632 577 632 517 c 2,18,-1
 632 220 l 2,19,20
 632 102 632 102 560 44 c 128,-1,21
 488 -14 488 -14 372 -14 c 128,-1,22
 256 -14 256 -14 183.5 44 c 128,-1,23
 111 102 111 102 111 220 c 2,24,-1
 111 585 l 2,25,26
 111 631 111 631 98 649 c 128,-1,27
 85 667 85 667 47 678 c 1,28,-1
 24 684 l 1,29,-1
 36 718 l 1,30,-1
 255 718 l 1,31,-1
 268 702 l 1,32,-1
 255 684 l 2,33,34
 230 651 230 651 220 614 c 128,-1,35
 210 577 210 577 210 517 c 2,0,-1
326 846 m 2,36,37
 270 873 270 873 270 917 c 128,-1,38
 270 961 270 961 312 981 c 1,39,-1
 468 825 l 1,40,-1
 439 790 l 1,41,-1
 326 846 l 2,36,37
EndSplineSet
EndChar

StartChar: Uacute
Encoding: 218 218 154
Width: 739
GlyphClass: 2
Flags: W
LayerCount: 2
Fore
SplineSet
210 517 m 2,0,-1
 210 220 l 2,1,2
 210 141 210 141 260 95 c 128,-1,3
 310 49 310 49 386 49 c 128,-1,4
 462 49 462 49 512 95 c 128,-1,5
 562 141 562 141 562 220 c 2,6,-1
 562 585 l 2,7,8
 562 631 562 631 549 649 c 128,-1,9
 536 667 536 667 498 678 c 1,10,-1
 475 684 l 1,11,-1
 487 718 l 1,12,-1
 677 718 l 1,13,-1
 690 702 l 1,14,-1
 677 684 l 2,15,16
 652 651 652 651 642 614 c 128,-1,17
 632 577 632 577 632 517 c 2,18,-1
 632 220 l 2,19,20
 632 102 632 102 560 44 c 128,-1,21
 488 -14 488 -14 372 -14 c 128,-1,22
 256 -14 256 -14 183.5 44 c 128,-1,23
 111 102 111 102 111 220 c 2,24,-1
 111 585 l 2,25,26
 111 631 111 631 98 649 c 128,-1,27
 85 667 85 667 47 678 c 1,28,-1
 24 684 l 1,29,-1
 36 718 l 1,30,-1
 255 718 l 1,31,-1
 268 702 l 1,32,-1
 255 684 l 2,33,34
 230 651 230 651 220 614 c 128,-1,35
 210 577 210 577 210 517 c 2,0,-1
462 981 m 1,36,37
 504 961 504 961 504 917 c 128,-1,38
 504 873 504 873 448 846 c 2,39,-1
 335 790 l 1,40,-1
 306 825 l 1,41,-1
 462 981 l 1,36,37
EndSplineSet
EndChar

StartChar: Ucircumflex
Encoding: 219 219 155
Width: 739
GlyphClass: 2
Flags: W
LayerCount: 2
Fore
SplineSet
210 517 m 2,0,-1
 210 220 l 2,1,2
 210 141 210 141 260 95 c 128,-1,3
 310 49 310 49 386 49 c 128,-1,4
 462 49 462 49 512 95 c 128,-1,5
 562 141 562 141 562 220 c 2,6,-1
 562 585 l 2,7,8
 562 631 562 631 549 649 c 128,-1,9
 536 667 536 667 498 678 c 1,10,-1
 475 684 l 1,11,-1
 487 718 l 1,12,-1
 677 718 l 1,13,-1
 690 702 l 1,14,-1
 677 684 l 2,15,16
 652 651 652 651 642 614 c 128,-1,17
 632 577 632 577 632 517 c 2,18,-1
 632 220 l 2,19,20
 632 102 632 102 560 44 c 128,-1,21
 488 -14 488 -14 372 -14 c 128,-1,22
 256 -14 256 -14 183.5 44 c 128,-1,23
 111 102 111 102 111 220 c 2,24,-1
 111 585 l 2,25,26
 111 631 111 631 98 649 c 128,-1,27
 85 667 85 667 47 678 c 1,28,-1
 24 684 l 1,29,-1
 36 718 l 1,30,-1
 255 718 l 1,31,-1
 268 702 l 1,32,-1
 255 684 l 2,33,34
 230 651 230 651 220 614 c 128,-1,35
 210 577 210 577 210 517 c 2,0,-1
373 976 m 1,36,-1
 400 976 l 1,37,38
 418 965 418 965 455 919 c 128,-1,39
 492 873 492 873 523 818 c 1,40,-1
 491 790 l 1,41,-1
 386 873 l 1,42,-1
 282 790 l 1,43,-1
 249 818 l 1,44,45
 281 874 281 874 317 919 c 128,-1,46
 353 964 353 964 373 976 c 1,36,-1
EndSplineSet
EndChar

StartChar: Udieresis
Encoding: 220 220 156
Width: 739
GlyphClass: 2
Flags: W
LayerCount: 2
Fore
SplineSet
210 517 m 2,0,-1
 210 220 l 2,1,2
 210 141 210 141 260 95 c 128,-1,3
 310 49 310 49 386 49 c 128,-1,4
 462 49 462 49 512 95 c 128,-1,5
 562 141 562 141 562 220 c 2,6,-1
 562 585 l 2,7,8
 562 631 562 631 549 649 c 128,-1,9
 536 667 536 667 498 678 c 1,10,-1
 475 684 l 1,11,-1
 487 718 l 1,12,-1
 677 718 l 1,13,-1
 690 702 l 1,14,-1
 677 684 l 2,15,16
 652 651 652 651 642 614 c 128,-1,17
 632 577 632 577 632 517 c 2,18,-1
 632 220 l 2,19,20
 632 102 632 102 560 44 c 128,-1,21
 488 -14 488 -14 372 -14 c 128,-1,22
 256 -14 256 -14 183.5 44 c 128,-1,23
 111 102 111 102 111 220 c 2,24,-1
 111 585 l 2,25,26
 111 631 111 631 98 649 c 128,-1,27
 85 667 85 667 47 678 c 1,28,-1
 24 684 l 1,29,-1
 36 718 l 1,30,-1
 255 718 l 1,31,-1
 268 702 l 1,32,-1
 255 684 l 2,33,34
 230 651 230 651 220 614 c 128,-1,35
 210 577 210 577 210 517 c 2,0,-1
226 879 m 128,-1,37
 226 898 226 898 247.5 921.5 c 128,-1,38
 269 945 269 945 287.5 945 c 128,-1,39
 306 945 306 945 328 922 c 128,-1,40
 350 899 350 899 350 879.5 c 128,-1,41
 350 860 350 860 328 837 c 128,-1,42
 306 814 306 814 288 814 c 128,-1,43
 270 814 270 814 248 837 c 128,-1,36
 226 860 226 860 226 879 c 128,-1,37
415 879 m 128,-1,45
 415 898 415 898 436.5 921.5 c 128,-1,46
 458 945 458 945 476.5 945 c 128,-1,47
 495 945 495 945 517 922 c 128,-1,48
 539 899 539 899 539 879.5 c 128,-1,49
 539 860 539 860 517 837 c 128,-1,50
 495 814 495 814 477 814 c 128,-1,51
 459 814 459 814 437 837 c 128,-1,44
 415 860 415 860 415 879 c 128,-1,45
EndSplineSet
EndChar

StartChar: Yacute
Encoding: 221 221 157
Width: 626
GlyphClass: 2
Flags: W
LayerCount: 2
Fore
SplineSet
439 584 m 2,0,1
 451 606 451 606 451 625.5 c 128,-1,2
 451 645 451 645 438.5 659 c 128,-1,3
 426 673 426 673 409 678 c 2,4,-1
 386 684 l 1,5,-1
 398 718 l 1,6,-1
 588 718 l 1,7,-1
 601 702 l 1,8,-1
 586 684 l 2,9,10
 551 642 551 642 515 578 c 2,11,-1
 360 303 l 1,12,-1
 360 133 l 2,13,14
 360 88 360 88 374 69 c 128,-1,15
 388 50 388 50 426 40 c 2,16,-1
 449 34 l 1,17,-1
 437 0 l 1,18,-1
 218 0 l 1,19,-1
 205 16 l 1,20,-1
 218 34 l 2,21,22
 243 69 243 69 254 105.5 c 128,-1,23
 265 142 265 142 265 201 c 2,24,-1
 265 295 l 1,25,-1
 105 576 l 2,26,27
 56 663 56 663 5 702 c 1,28,-1
 18 718 l 1,29,-1
 243 718 l 1,30,-1
 255 684 l 1,31,-1
 232 678 l 2,32,33
 208 672 208 672 197.5 662 c 128,-1,34
 187 652 187 652 187 638.5 c 128,-1,35
 187 625 187 625 218 571 c 2,36,-1
 326 382 l 1,37,-1
 439 584 l 2,0,1
417 981 m 1,38,39
 459 961 459 961 459 917 c 128,-1,40
 459 873 459 873 403 846 c 2,41,-1
 290 790 l 1,42,-1
 261 825 l 1,43,-1
 417 981 l 1,38,39
EndSplineSet
EndChar

StartChar: Thorn
Encoding: 222 222 158
Width: 596
GlyphClass: 2
Flags: W
LayerCount: 2
Fore
SplineSet
127 133 m 2,0,-1
 127 585 l 2,1,2
 127 631 127 631 114 649 c 128,-1,3
 101 667 101 667 63 678 c 1,4,-1
 40 684 l 1,5,-1
 52 718 l 1,6,-1
 271 718 l 1,7,-1
 284 702 l 1,8,-1
 271 684 l 2,9,10
 237 638 237 638 229 581 c 1,11,12
 285 601 285 601 340 601 c 0,13,14
 442 601 442 601 509 532.5 c 128,-1,15
 576 464 576 464 576 363 c 128,-1,16
 576 262 576 262 515 196 c 128,-1,17
 454 130 454 130 336 130 c 0,18,19
 299 130 299 130 273.5 139 c 128,-1,20
 248 148 248 148 248 168.5 c 128,-1,21
 248 189 248 189 264 189 c 0,22,23
 265 189 265 189 280 185.5 c 128,-1,24
 295 182 295 182 313 182 c 0,25,26
 388 182 388 182 430 230 c 128,-1,27
 472 278 472 278 472 360.5 c 128,-1,28
 472 443 472 443 430.5 495.5 c 128,-1,29
 389 548 389 548 307.5 548 c 128,-1,30
 226 548 226 548 226 498 c 2,31,-1
 226 126 l 2,32,33
 226 83 226 83 238 66 c 128,-1,34
 250 49 250 49 287 38 c 2,35,-1
 308 32 l 1,36,-1
 297 0 l 1,37,-1
 52 0 l 1,38,-1
 40 34 l 1,39,-1
 63 40 l 1,40,41
 101 51 101 51 114 69 c 128,-1,42
 127 87 127 87 127 133 c 2,0,-1
EndSplineSet
EndChar

StartChar: germandbls
Encoding: 223 223 159
Width: 635
GlyphClass: 2
Flags: W
LayerCount: 2
Fore
SplineSet
361 46 m 128,-1,1
 394 36 394 36 433.5 36 c 128,-1,2
 473 36 473 36 501 56 c 128,-1,3
 529 76 529 76 529 117 c 0,4,5
 529 188 529 188 430 238 c 2,6,-1
 355 276 l 1,7,8
 314 302 314 302 295.5 327.5 c 128,-1,9
 277 353 277 353 277 390.5 c 128,-1,10
 277 428 277 428 309.5 471.5 c 128,-1,11
 342 515 342 515 375 563 c 128,-1,12
 408 611 408 611 408 654 c 0,13,14
 408 730 408 730 326 730 c 0,15,16
 261 730 261 730 230 679 c 128,-1,17
 199 628 199 628 199 542 c 2,18,-1
 199 201 l 2,19,20
 199 141 199 141 209 104 c 128,-1,21
 219 67 219 67 244 34 c 2,22,-1
 257 16 l 1,23,-1
 244 0 l 1,24,-1
 25 0 l 1,25,-1
 13 34 l 1,26,-1
 36 40 l 1,27,28
 74 51 74 51 87 69 c 128,-1,29
 100 87 100 87 100 133 c 2,30,-1
 100 526 l 2,31,32
 100 648 100 648 169 715 c 128,-1,33
 238 782 238 782 350 782 c 0,34,35
 415 782 415 782 457 749 c 128,-1,36
 499 716 499 716 499 654 c 0,37,38
 499 621 499 621 478 588 c 128,-1,39
 457 555 457 555 432 532 c 0,40,41
 366 470 366 470 366 422.5 c 128,-1,42
 366 375 366 375 419 348 c 2,43,-1
 490 312 l 2,44,45
 617 247 617 247 617 145 c 0,46,47
 617 80 617 80 565.5 33 c 128,-1,48
 514 -14 514 -14 440.5 -14 c 128,-1,49
 367 -14 367 -14 320 11 c 1,50,51
 311 17 311 17 311 36.5 c 128,-1,52
 311 56 311 56 326 56 c 0,53,0
 328 56 328 56 361 46 c 128,-1,1
EndSplineSet
EndChar

StartChar: agrave
Encoding: 224 224 160
Width: 604
GlyphClass: 2
Flags: W
LayerCount: 2
Fore
SplineSet
224 -14 m 0,0,1
 149 -14 149 -14 97 49.5 c 128,-1,2
 45 113 45 113 45 236 c 128,-1,3
 45 359 45 359 115 434.5 c 128,-1,4
 185 510 185 510 304 510 c 0,5,6
 338 510 338 510 406.5 498.5 c 128,-1,7
 475 487 475 487 504 485 c 1,8,-1
 515 472 l 1,9,-1
 503 454 l 2,10,11
 490 434 490 434 490 415 c 2,12,-1
 490 88 l 2,13,14
 490 57 490 57 520 57 c 0,15,16
 544 57 544 57 570 75 c 1,17,-1
 589 49 l 1,18,19
 532 -14 532 -14 478 -14 c 0,20,21
 437 -14 437 -14 419 11 c 128,-1,22
 401 36 401 36 401 92 c 1,23,24
 325 -14 325 -14 224 -14 c 0,0,1
190 400.5 m 128,-1,26
 150 346 150 346 150 249.5 c 128,-1,27
 150 153 150 153 182.5 108 c 128,-1,28
 215 63 215 63 264 63 c 0,29,30
 348 63 348 63 401 154 c 1,31,-1
 401 424 l 1,32,33
 355 455 355 455 303 455 c 0,34,25
 230 455 230 455 190 400.5 c 128,-1,26
259 625 m 2,35,36
 203 652 203 652 203 696 c 128,-1,37
 203 740 203 740 245 760 c 1,38,-1
 401 604 l 1,39,-1
 372 569 l 1,40,-1
 259 625 l 2,35,36
EndSplineSet
EndChar

StartChar: aacute
Encoding: 225 225 161
Width: 604
GlyphClass: 2
Flags: W
LayerCount: 2
Fore
SplineSet
224 -14 m 0,0,1
 149 -14 149 -14 97 49.5 c 128,-1,2
 45 113 45 113 45 236 c 128,-1,3
 45 359 45 359 115 434.5 c 128,-1,4
 185 510 185 510 304 510 c 0,5,6
 338 510 338 510 406.5 498.5 c 128,-1,7
 475 487 475 487 504 485 c 1,8,-1
 515 472 l 1,9,-1
 503 454 l 2,10,11
 490 434 490 434 490 415 c 2,12,-1
 490 88 l 2,13,14
 490 57 490 57 520 57 c 0,15,16
 544 57 544 57 570 75 c 1,17,-1
 589 49 l 1,18,19
 532 -14 532 -14 478 -14 c 0,20,21
 437 -14 437 -14 419 11 c 128,-1,22
 401 36 401 36 401 92 c 1,23,24
 325 -14 325 -14 224 -14 c 0,0,1
190 400.5 m 128,-1,26
 150 346 150 346 150 249.5 c 128,-1,27
 150 153 150 153 182.5 108 c 128,-1,28
 215 63 215 63 264 63 c 0,29,30
 348 63 348 63 401 154 c 1,31,-1
 401 424 l 1,32,33
 355 455 355 455 303 455 c 0,34,25
 230 455 230 455 190 400.5 c 128,-1,26
359 760 m 1,35,36
 401 740 401 740 401 696 c 128,-1,37
 401 652 401 652 345 625 c 2,38,-1
 232 569 l 1,39,-1
 203 604 l 1,40,-1
 359 760 l 1,35,36
EndSplineSet
EndChar

StartChar: acircumflex
Encoding: 226 226 162
Width: 604
GlyphClass: 2
Flags: W
LayerCount: 2
Fore
SplineSet
224 -14 m 0,0,1
 149 -14 149 -14 97 49.5 c 128,-1,2
 45 113 45 113 45 236 c 128,-1,3
 45 359 45 359 115 434.5 c 128,-1,4
 185 510 185 510 304 510 c 0,5,6
 338 510 338 510 406.5 498.5 c 128,-1,7
 475 487 475 487 504 485 c 1,8,-1
 515 472 l 1,9,-1
 503 454 l 2,10,11
 490 434 490 434 490 415 c 2,12,-1
 490 88 l 2,13,14
 490 57 490 57 520 57 c 0,15,16
 544 57 544 57 570 75 c 1,17,-1
 589 49 l 1,18,19
 532 -14 532 -14 478 -14 c 0,20,21
 437 -14 437 -14 419 11 c 128,-1,22
 401 36 401 36 401 92 c 1,23,24
 325 -14 325 -14 224 -14 c 0,0,1
190 400.5 m 128,-1,26
 150 346 150 346 150 249.5 c 128,-1,27
 150 153 150 153 182.5 108 c 128,-1,28
 215 63 215 63 264 63 c 0,29,30
 348 63 348 63 401 154 c 1,31,-1
 401 424 l 1,32,33
 355 455 355 455 303 455 c 0,34,25
 230 455 230 455 190 400.5 c 128,-1,26
289 755 m 1,35,-1
 316 755 l 1,36,37
 334 744 334 744 371 698 c 128,-1,38
 408 652 408 652 439 597 c 1,39,-1
 407 569 l 1,40,-1
 302 652 l 1,41,-1
 198 569 l 1,42,-1
 165 597 l 1,43,44
 197 653 197 653 233 698 c 128,-1,45
 269 743 269 743 289 755 c 1,35,-1
EndSplineSet
EndChar

StartChar: atilde
Encoding: 227 227 163
Width: 604
GlyphClass: 2
Flags: W
LayerCount: 2
Fore
SplineSet
224 -14 m 0,0,1
 149 -14 149 -14 97 49.5 c 128,-1,2
 45 113 45 113 45 236 c 128,-1,3
 45 359 45 359 115 434.5 c 128,-1,4
 185 510 185 510 304 510 c 0,5,6
 338 510 338 510 406.5 498.5 c 128,-1,7
 475 487 475 487 504 485 c 1,8,-1
 515 472 l 1,9,-1
 503 454 l 2,10,11
 490 434 490 434 490 415 c 2,12,-1
 490 88 l 2,13,14
 490 57 490 57 520 57 c 0,15,16
 544 57 544 57 570 75 c 1,17,-1
 589 49 l 1,18,19
 532 -14 532 -14 478 -14 c 0,20,21
 437 -14 437 -14 419 11 c 128,-1,22
 401 36 401 36 401 92 c 1,23,24
 325 -14 325 -14 224 -14 c 0,0,1
190 400.5 m 128,-1,26
 150 346 150 346 150 249.5 c 128,-1,27
 150 153 150 153 182.5 108 c 128,-1,28
 215 63 215 63 264 63 c 0,29,30
 348 63 348 63 401 154 c 1,31,-1
 401 424 l 1,32,33
 355 455 355 455 303 455 c 0,34,25
 230 455 230 455 190 400.5 c 128,-1,26
336 595 m 0,35,36
 312 595 312 595 283.5 612.5 c 128,-1,37
 255 630 255 630 241 630 c 0,38,39
 213 630 213 630 174 591 c 1,40,-1
 139 622 l 1,41,42
 210 719 210 719 268 719 c 0,43,44
 291 719 291 719 319 701.5 c 128,-1,45
 347 684 347 684 362 684 c 0,46,47
 390 684 390 684 430 723 c 1,48,-1
 464 692 l 1,49,50
 395 595 395 595 336 595 c 0,35,36
EndSplineSet
EndChar

StartChar: adieresis
Encoding: 228 228 164
Width: 604
GlyphClass: 2
Flags: W
LayerCount: 2
Fore
SplineSet
224 -14 m 0,0,1
 149 -14 149 -14 97 49.5 c 128,-1,2
 45 113 45 113 45 236 c 128,-1,3
 45 359 45 359 115 434.5 c 128,-1,4
 185 510 185 510 304 510 c 0,5,6
 338 510 338 510 406.5 498.5 c 128,-1,7
 475 487 475 487 504 485 c 1,8,-1
 515 472 l 1,9,-1
 503 454 l 2,10,11
 490 434 490 434 490 415 c 2,12,-1
 490 88 l 2,13,14
 490 57 490 57 520 57 c 0,15,16
 544 57 544 57 570 75 c 1,17,-1
 589 49 l 1,18,19
 532 -14 532 -14 478 -14 c 0,20,21
 437 -14 437 -14 419 11 c 128,-1,22
 401 36 401 36 401 92 c 1,23,24
 325 -14 325 -14 224 -14 c 0,0,1
190 400.5 m 128,-1,26
 150 346 150 346 150 249.5 c 128,-1,27
 150 153 150 153 182.5 108 c 128,-1,28
 215 63 215 63 264 63 c 0,29,30
 348 63 348 63 401 154 c 1,31,-1
 401 424 l 1,32,33
 355 455 355 455 303 455 c 0,34,25
 230 455 230 455 190 400.5 c 128,-1,26
145 658 m 128,-1,36
 145 677 145 677 166.5 700.5 c 128,-1,37
 188 724 188 724 206.5 724 c 128,-1,38
 225 724 225 724 247 701 c 128,-1,39
 269 678 269 678 269 658.5 c 128,-1,40
 269 639 269 639 247 616 c 128,-1,41
 225 593 225 593 207 593 c 128,-1,42
 189 593 189 593 167 616 c 128,-1,35
 145 639 145 639 145 658 c 128,-1,36
334 658 m 128,-1,44
 334 677 334 677 355.5 700.5 c 128,-1,45
 377 724 377 724 395.5 724 c 128,-1,46
 414 724 414 724 436 701 c 128,-1,47
 458 678 458 678 458 658.5 c 128,-1,48
 458 639 458 639 436 616 c 128,-1,49
 414 593 414 593 396 593 c 128,-1,50
 378 593 378 593 356 616 c 128,-1,43
 334 639 334 639 334 658 c 128,-1,44
EndSplineSet
EndChar

StartChar: aring
Encoding: 229 229 165
Width: 604
GlyphClass: 2
Flags: W
LayerCount: 2
Fore
SplineSet
224 -14 m 0,0,1
 149 -14 149 -14 97 49.5 c 128,-1,2
 45 113 45 113 45 236 c 128,-1,3
 45 359 45 359 115 434.5 c 128,-1,4
 185 510 185 510 304 510 c 0,5,6
 338 510 338 510 406.5 498.5 c 128,-1,7
 475 487 475 487 504 485 c 1,8,-1
 515 472 l 1,9,-1
 503 454 l 2,10,11
 490 434 490 434 490 415 c 2,12,-1
 490 88 l 2,13,14
 490 57 490 57 520 57 c 0,15,16
 544 57 544 57 570 75 c 1,17,-1
 589 49 l 1,18,19
 532 -14 532 -14 478 -14 c 0,20,21
 437 -14 437 -14 419 11 c 128,-1,22
 401 36 401 36 401 92 c 1,23,24
 325 -14 325 -14 224 -14 c 0,0,1
190 400.5 m 128,-1,26
 150 346 150 346 150 249.5 c 128,-1,27
 150 153 150 153 182.5 108 c 128,-1,28
 215 63 215 63 264 63 c 0,29,30
 348 63 348 63 401 154 c 1,31,-1
 401 424 l 1,32,33
 355 455 355 455 303 455 c 0,34,25
 230 455 230 455 190 400.5 c 128,-1,26
258 658 m 128,-1,36
 258 633 258 633 269 616.5 c 128,-1,37
 280 600 280 600 300.5 600 c 128,-1,38
 321 600 321 600 332.5 616.5 c 128,-1,39
 344 633 344 633 344 658 c 128,-1,40
 344 683 344 683 332.5 699.5 c 128,-1,41
 321 716 321 716 300.5 716 c 128,-1,42
 280 716 280 716 269 699.5 c 128,-1,35
 258 683 258 683 258 658 c 128,-1,36
188 658 m 128,-1,44
 188 705 188 705 217 735 c 128,-1,45
 246 765 246 765 301 765 c 128,-1,46
 356 765 356 765 385.5 735 c 128,-1,47
 415 705 415 705 415 658 c 128,-1,48
 415 611 415 611 385.5 581.5 c 128,-1,49
 356 552 356 552 301 552 c 128,-1,50
 246 552 246 552 217 581.5 c 128,-1,43
 188 611 188 611 188 658 c 128,-1,44
EndSplineSet
EndChar

StartChar: ae
Encoding: 230 230 166
Width: 865
GlyphClass: 2
Flags: W
LayerCount: 2
Fore
SplineSet
254 510 m 0,0,1
 373 510 373 510 437 419 c 1,2,3
 509 510 509 510 640 510 c 0,4,5
 722 510 722 510 766 467 c 128,-1,6
 810 424 810 424 810 360 c 128,-1,7
 810 296 810 296 758.5 245 c 128,-1,8
 707 194 707 194 619 194 c 0,9,10
 587 194 587 194 548 206 c 128,-1,11
 509 218 509 218 509 241 c 0,12,13
 509 249 509 249 513.5 256 c 128,-1,14
 518 263 518 263 521.5 263 c 128,-1,15
 525 263 525 263 544.5 256.5 c 128,-1,16
 564 250 564 250 588 250 c 0,17,18
 648 250 648 250 681.5 284 c 128,-1,19
 715 318 715 318 715 360.5 c 128,-1,20
 715 403 715 403 690 431.5 c 128,-1,21
 665 460 665 460 620 460 c 0,22,23
 556 460 556 460 520 403.5 c 128,-1,24
 484 347 484 347 484 250 c 128,-1,25
 484 153 484 153 522 102.5 c 128,-1,26
 560 52 560 52 640 52 c 128,-1,27
 720 52 720 52 778 109 c 0,28,29
 782 113 782 113 788.5 113 c 128,-1,30
 795 113 795 113 804 103.5 c 128,-1,31
 813 94 813 94 813 86.5 c 128,-1,32
 813 79 813 79 809 75 c 0,33,34
 732 -14 732 -14 611 -14 c 0,35,36
 542 -14 542 -14 490 17.5 c 128,-1,37
 438 49 438 49 410 106 c 1,38,39
 384 49 384 49 334 17.5 c 128,-1,40
 284 -14 284 -14 208.5 -14 c 128,-1,41
 133 -14 133 -14 89 29 c 128,-1,42
 45 72 45 72 45 136.5 c 128,-1,43
 45 201 45 201 96.5 253.5 c 128,-1,44
 148 306 148 306 236 306 c 0,45,46
 271 306 271 306 313.5 294 c 128,-1,47
 356 282 356 282 356 259 c 0,48,49
 356 251 356 251 351.5 244 c 128,-1,50
 347 237 347 237 343 237 c 128,-1,51
 339 237 339 237 317 243.5 c 128,-1,52
 295 250 295 250 267 250 c 0,53,54
 207 250 207 250 173.5 215 c 128,-1,55
 140 180 140 180 140 137 c 128,-1,56
 140 94 140 94 165 67 c 128,-1,57
 190 40 190 40 235 40 c 0,58,59
 304 40 304 40 342.5 95.5 c 128,-1,60
 381 151 381 151 381 247 c 128,-1,61
 381 343 381 343 343 393.5 c 128,-1,62
 305 444 305 444 233 444 c 0,63,64
 185 444 185 444 151.5 433 c 128,-1,65
 118 422 118 422 103 410.5 c 128,-1,66
 88 399 88 399 82.5 399 c 128,-1,67
 77 399 77 399 68 408.5 c 128,-1,68
 59 418 59 418 59 428.5 c 128,-1,69
 59 439 59 439 82.5 458 c 128,-1,70
 106 477 106 477 153.5 493.5 c 128,-1,71
 201 510 201 510 254 510 c 0,0,1
EndSplineSet
EndChar

StartChar: ccedilla
Encoding: 231 231 167
Width: 509
GlyphClass: 2
Flags: W
LayerCount: 2
Fore
SplineSet
435 103 m 0,0,1
 438 106 438 106 445 106 c 128,-1,2
 452 106 452 106 460.5 97 c 128,-1,3
 469 88 469 88 469 80 c 128,-1,4
 469 72 469 72 466 69 c 0,5,6
 394 -14 394 -14 287.5 -14 c 128,-1,7
 181 -14 181 -14 113 60 c 128,-1,8
 45 134 45 134 45 250.5 c 128,-1,9
 45 367 45 367 111 438.5 c 128,-1,10
 177 510 177 510 287 510 c 0,11,12
 364 510 364 510 413.5 472.5 c 128,-1,13
 463 435 463 435 463 376 c 0,14,15
 463 333 463 333 435.5 305.5 c 128,-1,16
 408 278 408 278 365 278 c 0,17,18
 346 278 346 278 346 289 c 0,19,20
 346 291 346 291 352 300 c 0,21,22
 370 329 370 329 370 370 c 128,-1,23
 370 411 370 411 344.5 434.5 c 128,-1,24
 319 458 319 458 276 458 c 0,25,26
 219 458 219 458 184 402 c 128,-1,27
 149 346 149 346 149 254 c 128,-1,28
 149 162 149 162 190.5 107.5 c 128,-1,29
 232 53 232 53 303.5 53 c 128,-1,30
 375 53 375 53 435 103 c 0,0,1
202 -242 m 128,-1,32
 214 -253 214 -253 237 -253 c 128,-1,33
 260 -253 260 -253 277 -230.5 c 128,-1,34
 294 -208 294 -208 294 -177.5 c 128,-1,35
 294 -147 294 -147 276.5 -125 c 128,-1,36
 259 -103 259 -103 229.5 -103 c 128,-1,37
 200 -103 200 -103 172 -120 c 1,38,-1
 152 -102 l 1,39,-1
 270 51 l 1,40,-1
 294 29 l 1,41,-1
 217 -70 l 1,42,43
 234 -66 234 -66 255 -66 c 0,44,45
 303 -66 303 -66 335.5 -95 c 128,-1,46
 368 -124 368 -124 368 -175.5 c 128,-1,47
 368 -227 368 -227 329 -261 c 128,-1,48
 290 -295 290 -295 239 -295 c 128,-1,49
 188 -295 188 -295 155.5 -274.5 c 128,-1,50
 123 -254 123 -254 123 -223 c 128,-1,51
 123 -192 123 -192 141.5 -176 c 128,-1,52
 160 -160 160 -160 182 -160 c 128,-1,53
 204 -160 204 -160 204 -170 c 0,54,55
 204 -172 204 -172 197 -184 c 128,-1,56
 190 -196 190 -196 190 -213.5 c 128,-1,31
 190 -231 190 -231 202 -242 c 128,-1,32
EndSplineSet
EndChar

StartChar: egrave
Encoding: 232 232 168
Width: 529
GlyphClass: 2
Flags: W
LayerCount: 2
Fore
SplineSet
275 -14 m 0,0,1
 170 -14 170 -14 107.5 56 c 128,-1,2
 45 126 45 126 45 244.5 c 128,-1,3
 45 363 45 363 116 436.5 c 128,-1,4
 187 510 187 510 304 510 c 0,5,6
 386 510 386 510 430 467 c 128,-1,7
 474 424 474 424 474 360 c 128,-1,8
 474 296 474 296 422.5 245 c 128,-1,9
 371 194 371 194 283 194 c 0,10,11
 251 194 251 194 212 206 c 128,-1,12
 173 218 173 218 173 241 c 0,13,14
 173 249 173 249 177.5 256 c 128,-1,15
 182 263 182 263 185.5 263 c 128,-1,16
 189 263 189 263 208.5 256.5 c 128,-1,17
 228 250 228 250 252 250 c 0,18,19
 312 250 312 250 345.5 284 c 128,-1,20
 379 318 379 318 379 360.5 c 128,-1,21
 379 403 379 403 354 431.5 c 128,-1,22
 329 460 329 460 284 460 c 0,23,24
 220 460 220 460 184 403.5 c 128,-1,25
 148 347 148 347 148 250 c 128,-1,26
 148 153 148 153 186 102.5 c 128,-1,27
 224 52 224 52 304 52 c 128,-1,28
 384 52 384 52 442 109 c 0,29,30
 446 113 446 113 452.5 113 c 128,-1,31
 459 113 459 113 468 103.5 c 128,-1,32
 477 94 477 94 477 86.5 c 128,-1,33
 477 79 477 79 473 75 c 0,34,35
 396 -14 396 -14 275 -14 c 0,0,1
221 625 m 2,36,37
 165 652 165 652 165 696 c 128,-1,38
 165 740 165 740 207 760 c 1,39,-1
 363 604 l 1,40,-1
 334 569 l 1,41,-1
 221 625 l 2,36,37
EndSplineSet
EndChar

StartChar: eacute
Encoding: 233 233 169
Width: 529
GlyphClass: 2
Flags: W
LayerCount: 2
Fore
SplineSet
275 -14 m 0,0,1
 170 -14 170 -14 107.5 56 c 128,-1,2
 45 126 45 126 45 244.5 c 128,-1,3
 45 363 45 363 116 436.5 c 128,-1,4
 187 510 187 510 304 510 c 0,5,6
 386 510 386 510 430 467 c 128,-1,7
 474 424 474 424 474 360 c 128,-1,8
 474 296 474 296 422.5 245 c 128,-1,9
 371 194 371 194 283 194 c 0,10,11
 251 194 251 194 212 206 c 128,-1,12
 173 218 173 218 173 241 c 0,13,14
 173 249 173 249 177.5 256 c 128,-1,15
 182 263 182 263 185.5 263 c 128,-1,16
 189 263 189 263 208.5 256.5 c 128,-1,17
 228 250 228 250 252 250 c 0,18,19
 312 250 312 250 345.5 284 c 128,-1,20
 379 318 379 318 379 360.5 c 128,-1,21
 379 403 379 403 354 431.5 c 128,-1,22
 329 460 329 460 284 460 c 0,23,24
 220 460 220 460 184 403.5 c 128,-1,25
 148 347 148 347 148 250 c 128,-1,26
 148 153 148 153 186 102.5 c 128,-1,27
 224 52 224 52 304 52 c 128,-1,28
 384 52 384 52 442 109 c 0,29,30
 446 113 446 113 452.5 113 c 128,-1,31
 459 113 459 113 468 103.5 c 128,-1,32
 477 94 477 94 477 86.5 c 128,-1,33
 477 79 477 79 473 75 c 0,34,35
 396 -14 396 -14 275 -14 c 0,0,1
321 760 m 1,36,37
 363 740 363 740 363 696 c 128,-1,38
 363 652 363 652 307 625 c 2,39,-1
 194 569 l 1,40,-1
 165 604 l 1,41,-1
 321 760 l 1,36,37
EndSplineSet
EndChar

StartChar: ecircumflex
Encoding: 234 234 170
Width: 529
GlyphClass: 2
Flags: W
LayerCount: 2
Fore
SplineSet
275 -14 m 0,0,1
 170 -14 170 -14 107.5 56 c 128,-1,2
 45 126 45 126 45 244.5 c 128,-1,3
 45 363 45 363 116 436.5 c 128,-1,4
 187 510 187 510 304 510 c 0,5,6
 386 510 386 510 430 467 c 128,-1,7
 474 424 474 424 474 360 c 128,-1,8
 474 296 474 296 422.5 245 c 128,-1,9
 371 194 371 194 283 194 c 0,10,11
 251 194 251 194 212 206 c 128,-1,12
 173 218 173 218 173 241 c 0,13,14
 173 249 173 249 177.5 256 c 128,-1,15
 182 263 182 263 185.5 263 c 128,-1,16
 189 263 189 263 208.5 256.5 c 128,-1,17
 228 250 228 250 252 250 c 0,18,19
 312 250 312 250 345.5 284 c 128,-1,20
 379 318 379 318 379 360.5 c 128,-1,21
 379 403 379 403 354 431.5 c 128,-1,22
 329 460 329 460 284 460 c 0,23,24
 220 460 220 460 184 403.5 c 128,-1,25
 148 347 148 347 148 250 c 128,-1,26
 148 153 148 153 186 102.5 c 128,-1,27
 224 52 224 52 304 52 c 128,-1,28
 384 52 384 52 442 109 c 0,29,30
 446 113 446 113 452.5 113 c 128,-1,31
 459 113 459 113 468 103.5 c 128,-1,32
 477 94 477 94 477 86.5 c 128,-1,33
 477 79 477 79 473 75 c 0,34,35
 396 -14 396 -14 275 -14 c 0,0,1
251 755 m 1,36,-1
 278 755 l 1,37,38
 296 744 296 744 333 698 c 128,-1,39
 370 652 370 652 401 597 c 1,40,-1
 369 569 l 1,41,-1
 264 652 l 1,42,-1
 160 569 l 1,43,-1
 127 597 l 1,44,45
 159 653 159 653 195 698 c 128,-1,46
 231 743 231 743 251 755 c 1,36,-1
EndSplineSet
EndChar

StartChar: edieresis
Encoding: 235 235 171
Width: 529
GlyphClass: 2
Flags: W
LayerCount: 2
Fore
SplineSet
275 -14 m 0,0,1
 170 -14 170 -14 107.5 56 c 128,-1,2
 45 126 45 126 45 244.5 c 128,-1,3
 45 363 45 363 116 436.5 c 128,-1,4
 187 510 187 510 304 510 c 0,5,6
 386 510 386 510 430 467 c 128,-1,7
 474 424 474 424 474 360 c 128,-1,8
 474 296 474 296 422.5 245 c 128,-1,9
 371 194 371 194 283 194 c 0,10,11
 251 194 251 194 212 206 c 128,-1,12
 173 218 173 218 173 241 c 0,13,14
 173 249 173 249 177.5 256 c 128,-1,15
 182 263 182 263 185.5 263 c 128,-1,16
 189 263 189 263 208.5 256.5 c 128,-1,17
 228 250 228 250 252 250 c 0,18,19
 312 250 312 250 345.5 284 c 128,-1,20
 379 318 379 318 379 360.5 c 128,-1,21
 379 403 379 403 354 431.5 c 128,-1,22
 329 460 329 460 284 460 c 0,23,24
 220 460 220 460 184 403.5 c 128,-1,25
 148 347 148 347 148 250 c 128,-1,26
 148 153 148 153 186 102.5 c 128,-1,27
 224 52 224 52 304 52 c 128,-1,28
 384 52 384 52 442 109 c 0,29,30
 446 113 446 113 452.5 113 c 128,-1,31
 459 113 459 113 468 103.5 c 128,-1,32
 477 94 477 94 477 86.5 c 128,-1,33
 477 79 477 79 473 75 c 0,34,35
 396 -14 396 -14 275 -14 c 0,0,1
108 658 m 128,-1,37
 108 677 108 677 129.5 700.5 c 128,-1,38
 151 724 151 724 169.5 724 c 128,-1,39
 188 724 188 724 210 701 c 128,-1,40
 232 678 232 678 232 658.5 c 128,-1,41
 232 639 232 639 210 616 c 128,-1,42
 188 593 188 593 170 593 c 128,-1,43
 152 593 152 593 130 616 c 128,-1,36
 108 639 108 639 108 658 c 128,-1,37
297 658 m 128,-1,45
 297 677 297 677 318.5 700.5 c 128,-1,46
 340 724 340 724 358.5 724 c 128,-1,47
 377 724 377 724 399 701 c 128,-1,48
 421 678 421 678 421 658.5 c 128,-1,49
 421 639 421 639 399 616 c 128,-1,50
 377 593 377 593 359 593 c 128,-1,51
 341 593 341 593 319 616 c 128,-1,44
 297 639 297 639 297 658 c 128,-1,45
EndSplineSet
EndChar

StartChar: igrave
Encoding: 236 236 172
Width: 312
GlyphClass: 2
Flags: W
LayerCount: 2
Fore
SplineSet
228 54 m 0,0,1
 252 54 252 54 278 75 c 1,2,-1
 297 49 l 1,3,4
 240 -14 240 -14 185 -14 c 0,5,6
 144 -14 144 -14 126 11 c 128,-1,7
 108 36 108 36 108 92 c 2,8,-1
 108 402 l 2,9,10
 108 424 108 424 88 424 c 2,11,-1
 44 424 l 1,12,-1
 35 450 l 1,13,14
 64 476 64 476 101 493 c 128,-1,15
 138 510 138 510 160 510 c 0,16,17
 199 510 199 510 199 478 c 2,18,-1
 198 88 l 2,19,20
 198 54 198 54 228 54 c 0,0,1
113 625 m 2,21,22
 57 652 57 652 57 696 c 128,-1,23
 57 740 57 740 99 760 c 1,24,-1
 255 604 l 1,25,-1
 226 569 l 1,26,-1
 113 625 l 2,21,22
EndSplineSet
EndChar

StartChar: iacute
Encoding: 237 237 173
Width: 312
GlyphClass: 2
Flags: W
LayerCount: 2
Fore
SplineSet
228 54 m 0,0,1
 252 54 252 54 278 75 c 1,2,-1
 297 49 l 1,3,4
 240 -14 240 -14 185 -14 c 0,5,6
 144 -14 144 -14 126 11 c 128,-1,7
 108 36 108 36 108 92 c 2,8,-1
 108 402 l 2,9,10
 108 424 108 424 88 424 c 2,11,-1
 44 424 l 1,12,-1
 35 450 l 1,13,14
 64 476 64 476 101 493 c 128,-1,15
 138 510 138 510 160 510 c 0,16,17
 199 510 199 510 199 478 c 2,18,-1
 198 88 l 2,19,20
 198 54 198 54 228 54 c 0,0,1
213 760 m 1,21,22
 255 740 255 740 255 696 c 128,-1,23
 255 652 255 652 199 625 c 2,24,-1
 86 569 l 1,25,-1
 57 604 l 1,26,-1
 213 760 l 1,21,22
EndSplineSet
EndChar

StartChar: icircumflex
Encoding: 238 238 174
Width: 312
GlyphClass: 2
Flags: W
LayerCount: 2
Fore
SplineSet
228 54 m 0,0,1
 252 54 252 54 278 75 c 1,2,-1
 297 49 l 1,3,4
 240 -14 240 -14 185 -14 c 0,5,6
 144 -14 144 -14 126 11 c 128,-1,7
 108 36 108 36 108 92 c 2,8,-1
 108 402 l 2,9,10
 108 424 108 424 88 424 c 2,11,-1
 44 424 l 1,12,-1
 35 450 l 1,13,14
 64 476 64 476 101 493 c 128,-1,15
 138 510 138 510 160 510 c 0,16,17
 199 510 199 510 199 478 c 2,18,-1
 198 88 l 2,19,20
 198 54 198 54 228 54 c 0,0,1
143 755 m 1,21,-1
 170 755 l 1,22,23
 188 744 188 744 225 698 c 128,-1,24
 262 652 262 652 293 597 c 1,25,-1
 261 569 l 1,26,-1
 156 652 l 1,27,-1
 52 569 l 1,28,-1
 19 597 l 1,29,30
 51 653 51 653 87 698 c 128,-1,31
 123 743 123 743 143 755 c 1,21,-1
EndSplineSet
EndChar

StartChar: idieresis
Encoding: 239 239 175
Width: 312
GlyphClass: 2
Flags: W
LayerCount: 2
Fore
SplineSet
228 54 m 0,0,1
 252 54 252 54 278 75 c 1,2,-1
 297 49 l 1,3,4
 240 -14 240 -14 185 -14 c 0,5,6
 144 -14 144 -14 126 11 c 128,-1,7
 108 36 108 36 108 92 c 2,8,-1
 108 402 l 2,9,10
 108 424 108 424 88 424 c 2,11,-1
 44 424 l 1,12,-1
 35 450 l 1,13,14
 64 476 64 476 101 493 c 128,-1,15
 138 510 138 510 160 510 c 0,16,17
 199 510 199 510 199 478 c 2,18,-1
 198 88 l 2,19,20
 198 54 198 54 228 54 c 0,0,1
0 658 m 128,-1,22
 0 677 0 677 21.5 700.5 c 128,-1,23
 43 724 43 724 61.5 724 c 128,-1,24
 80 724 80 724 102 701 c 128,-1,25
 124 678 124 678 124 658.5 c 128,-1,26
 124 639 124 639 102 616 c 128,-1,27
 80 593 80 593 62 593 c 128,-1,28
 44 593 44 593 22 616 c 128,-1,21
 0 639 0 639 0 658 c 128,-1,22
189 658 m 128,-1,30
 189 677 189 677 210.5 700.5 c 128,-1,31
 232 724 232 724 250.5 724 c 128,-1,32
 269 724 269 724 291 701 c 128,-1,33
 313 678 313 678 313 658.5 c 128,-1,34
 313 639 313 639 291 616 c 128,-1,35
 269 593 269 593 251 593 c 128,-1,36
 233 593 233 593 211 616 c 128,-1,29
 189 639 189 639 189 658 c 128,-1,30
EndSplineSet
EndChar

StartChar: eth
Encoding: 240 240 176
Width: 584
GlyphClass: 2
Flags: W
LayerCount: 2
Fore
SplineSet
116.5 753 m 128,-1,1
 159 790 159 790 231.5 790 c 128,-1,2
 304 790 304 790 358.5 749 c 128,-1,3
 413 708 413 708 446 646 c 128,-1,4
 479 584 479 584 502 506 c 0,5,6
 541 370 541 370 541 246.5 c 128,-1,7
 541 123 541 123 473.5 54.5 c 128,-1,8
 406 -14 406 -14 291.5 -14 c 128,-1,9
 177 -14 177 -14 110 54 c 128,-1,10
 43 122 43 122 43 238 c 128,-1,11
 43 354 43 354 110 422 c 128,-1,12
 177 490 177 490 292 490 c 0,13,14
 377 490 377 490 431 430 c 1,15,16
 406 568 406 568 354 656.5 c 128,-1,17
 302 745 302 745 236 745 c 0,18,19
 200 745 200 745 179.5 721.5 c 128,-1,20
 159 698 159 698 159 670 c 128,-1,21
 159 642 159 642 165.5 623.5 c 128,-1,22
 172 605 172 605 180 596 c 0,23,24
 202 573 202 573 202 569 c 0,25,26
 202 559 202 559 186 559 c 0,27,28
 134 559 134 559 104 590.5 c 128,-1,29
 74 622 74 622 74 669 c 128,-1,0
 74 716 74 716 116.5 753 c 128,-1,1
185.5 384 m 128,-1,31
 147 330 147 330 147 239.5 c 128,-1,32
 147 149 147 149 191 94.5 c 128,-1,33
 235 40 235 40 302.5 40 c 128,-1,34
 370 40 370 40 409 91 c 128,-1,35
 448 142 448 142 448 231.5 c 128,-1,36
 448 321 448 321 403.5 379.5 c 128,-1,37
 359 438 359 438 291.5 438 c 128,-1,30
 224 438 224 438 185.5 384 c 128,-1,31
538 670 m 2,38,-1
 286 544 l 1,39,40
 286 584 286 584 290 601.5 c 128,-1,41
 294 619 294 619 307 625 c 2,42,-1
 559 751 l 1,43,44
 559 710 559 710 555 693.5 c 128,-1,45
 551 677 551 677 538 670 c 2,38,-1
EndSplineSet
EndChar

StartChar: ntilde
Encoding: 241 241 177
Width: 644
GlyphClass: 2
Flags: W
LayerCount: 2
Fore
SplineSet
204 160 m 0,0,1
 204 76 204 76 236 31 c 1,2,-1
 248 15 l 1,3,-1
 236 0 l 1,4,-1
 61 0 l 1,5,-1
 50 31 l 1,6,-1
 71 36 l 2,7,8
 96 42 96 42 104.5 57.5 c 128,-1,9
 113 73 113 73 113 111 c 2,10,-1
 113 392 l 2,11,12
 113 414 113 414 93 414 c 2,13,-1
 49 414 l 1,14,-1
 40 440 l 1,15,16
 69 466 69 466 106.5 483 c 128,-1,17
 144 500 144 500 165 500 c 0,18,19
 204 500 204 500 204 468 c 2,20,-1
 204 361 l 1,21,22
 230 426 230 426 282 468 c 128,-1,23
 334 510 334 510 397.5 510 c 128,-1,24
 461 510 461 510 493 467 c 128,-1,25
 525 424 525 424 525 330 c 2,26,-1
 525 88 l 2,27,28
 525 54 525 54 555 54 c 0,29,30
 578 54 578 54 605 75 c 1,31,-1
 624 49 l 1,32,33
 567 -14 567 -14 512 -14 c 0,34,35
 471 -14 471 -14 453 11 c 128,-1,36
 435 36 435 36 435 92 c 2,37,-1
 435 330 l 2,38,39
 435 432 435 432 349 432 c 0,40,41
 284 432 284 432 244 356.5 c 128,-1,42
 204 281 204 281 204 160 c 0,0,1
356 595 m 0,43,44
 332 595 332 595 303.5 612.5 c 128,-1,45
 275 630 275 630 261 630 c 0,46,47
 233 630 233 630 194 591 c 1,48,-1
 159 622 l 1,49,50
 230 719 230 719 288 719 c 0,51,52
 311 719 311 719 339 701.5 c 128,-1,53
 367 684 367 684 382 684 c 0,54,55
 410 684 410 684 450 723 c 1,56,-1
 484 692 l 1,57,58
 415 595 415 595 356 595 c 0,43,44
EndSplineSet
EndChar

StartChar: ograve
Encoding: 242 242 178
Width: 578
GlyphClass: 2
Flags: W
LayerCount: 2
Fore
SplineSet
400 381 m 0,0,1
 386 415 386 415 358 436.5 c 128,-1,2
 330 458 330 458 292 458 c 0,3,4
 228 458 228 458 188.5 399.5 c 128,-1,5
 149 341 149 341 149 246.5 c 128,-1,6
 149 152 149 152 186 96 c 128,-1,7
 223 40 223 40 286 40 c 128,-1,8
 349 40 349 40 388.5 96.5 c 128,-1,9
 428 153 428 153 428 235 c 128,-1,10
 428 317 428 317 400 381 c 0,0,1
111 57 m 128,-1,12
 45 128 45 128 45 248.5 c 128,-1,13
 45 369 45 369 111 439.5 c 128,-1,14
 177 510 177 510 289 510 c 128,-1,15
 401 510 401 510 467 439.5 c 128,-1,16
 533 369 533 369 533 248.5 c 128,-1,17
 533 128 533 128 467 57 c 128,-1,18
 401 -14 401 -14 289 -14 c 128,-1,11
 177 -14 177 -14 111 57 c 128,-1,12
240 625 m 2,19,20
 184 652 184 652 184 696 c 128,-1,21
 184 740 184 740 226 760 c 1,22,-1
 382 604 l 1,23,-1
 353 569 l 1,24,-1
 240 625 l 2,19,20
EndSplineSet
EndChar

StartChar: oacute
Encoding: 243 243 179
Width: 578
GlyphClass: 2
Flags: W
LayerCount: 2
Fore
SplineSet
400 381 m 0,0,1
 386 415 386 415 358 436.5 c 128,-1,2
 330 458 330 458 292 458 c 0,3,4
 228 458 228 458 188.5 399.5 c 128,-1,5
 149 341 149 341 149 246.5 c 128,-1,6
 149 152 149 152 186 96 c 128,-1,7
 223 40 223 40 286 40 c 128,-1,8
 349 40 349 40 388.5 96.5 c 128,-1,9
 428 153 428 153 428 235 c 128,-1,10
 428 317 428 317 400 381 c 0,0,1
111 57 m 128,-1,12
 45 128 45 128 45 248.5 c 128,-1,13
 45 369 45 369 111 439.5 c 128,-1,14
 177 510 177 510 289 510 c 128,-1,15
 401 510 401 510 467 439.5 c 128,-1,16
 533 369 533 369 533 248.5 c 128,-1,17
 533 128 533 128 467 57 c 128,-1,18
 401 -14 401 -14 289 -14 c 128,-1,11
 177 -14 177 -14 111 57 c 128,-1,12
367 760 m 1,19,20
 409 740 409 740 409 696 c 128,-1,21
 409 652 409 652 353 625 c 2,22,-1
 240 569 l 1,23,-1
 211 604 l 1,24,-1
 367 760 l 1,19,20
EndSplineSet
EndChar

StartChar: ocircumflex
Encoding: 244 244 180
Width: 578
GlyphClass: 2
Flags: W
LayerCount: 2
Fore
SplineSet
400 381 m 0,0,1
 386 415 386 415 358 436.5 c 128,-1,2
 330 458 330 458 292 458 c 0,3,4
 228 458 228 458 188.5 399.5 c 128,-1,5
 149 341 149 341 149 246.5 c 128,-1,6
 149 152 149 152 186 96 c 128,-1,7
 223 40 223 40 286 40 c 128,-1,8
 349 40 349 40 388.5 96.5 c 128,-1,9
 428 153 428 153 428 235 c 128,-1,10
 428 317 428 317 400 381 c 0,0,1
111 57 m 128,-1,12
 45 128 45 128 45 248.5 c 128,-1,13
 45 369 45 369 111 439.5 c 128,-1,14
 177 510 177 510 289 510 c 128,-1,15
 401 510 401 510 467 439.5 c 128,-1,16
 533 369 533 369 533 248.5 c 128,-1,17
 533 128 533 128 467 57 c 128,-1,18
 401 -14 401 -14 289 -14 c 128,-1,11
 177 -14 177 -14 111 57 c 128,-1,12
278 755 m 1,19,-1
 305 755 l 1,20,21
 323 744 323 744 360 698 c 128,-1,22
 397 652 397 652 428 597 c 1,23,-1
 396 569 l 1,24,-1
 291 652 l 1,25,-1
 187 569 l 1,26,-1
 154 597 l 1,27,28
 186 653 186 653 222 698 c 128,-1,29
 258 743 258 743 278 755 c 1,19,-1
EndSplineSet
EndChar

StartChar: otilde
Encoding: 245 245 181
Width: 578
GlyphClass: 2
Flags: W
LayerCount: 2
Fore
SplineSet
400 381 m 0,0,1
 386 415 386 415 358 436.5 c 128,-1,2
 330 458 330 458 292 458 c 0,3,4
 228 458 228 458 188.5 399.5 c 128,-1,5
 149 341 149 341 149 246.5 c 128,-1,6
 149 152 149 152 186 96 c 128,-1,7
 223 40 223 40 286 40 c 128,-1,8
 349 40 349 40 388.5 96.5 c 128,-1,9
 428 153 428 153 428 235 c 128,-1,10
 428 317 428 317 400 381 c 0,0,1
111 57 m 128,-1,12
 45 128 45 128 45 248.5 c 128,-1,13
 45 369 45 369 111 439.5 c 128,-1,14
 177 510 177 510 289 510 c 128,-1,15
 401 510 401 510 467 439.5 c 128,-1,16
 533 369 533 369 533 248.5 c 128,-1,17
 533 128 533 128 467 57 c 128,-1,18
 401 -14 401 -14 289 -14 c 128,-1,11
 177 -14 177 -14 111 57 c 128,-1,12
326 595 m 0,19,20
 302 595 302 595 273.5 612.5 c 128,-1,21
 245 630 245 630 231 630 c 0,22,23
 203 630 203 630 164 591 c 1,24,-1
 129 622 l 1,25,26
 200 719 200 719 258 719 c 0,27,28
 281 719 281 719 309 701.5 c 128,-1,29
 337 684 337 684 352 684 c 0,30,31
 380 684 380 684 420 723 c 1,32,-1
 454 692 l 1,33,34
 385 595 385 595 326 595 c 0,19,20
EndSplineSet
EndChar

StartChar: odieresis
Encoding: 246 246 182
Width: 578
GlyphClass: 2
Flags: W
LayerCount: 2
Fore
SplineSet
400 381 m 0,0,1
 386 415 386 415 358 436.5 c 128,-1,2
 330 458 330 458 292 458 c 0,3,4
 228 458 228 458 188.5 399.5 c 128,-1,5
 149 341 149 341 149 246.5 c 128,-1,6
 149 152 149 152 186 96 c 128,-1,7
 223 40 223 40 286 40 c 128,-1,8
 349 40 349 40 388.5 96.5 c 128,-1,9
 428 153 428 153 428 235 c 128,-1,10
 428 317 428 317 400 381 c 0,0,1
111 57 m 128,-1,12
 45 128 45 128 45 248.5 c 128,-1,13
 45 369 45 369 111 439.5 c 128,-1,14
 177 510 177 510 289 510 c 128,-1,15
 401 510 401 510 467 439.5 c 128,-1,16
 533 369 533 369 533 248.5 c 128,-1,17
 533 128 533 128 467 57 c 128,-1,18
 401 -14 401 -14 289 -14 c 128,-1,11
 177 -14 177 -14 111 57 c 128,-1,12
135 658 m 128,-1,20
 135 677 135 677 156.5 700.5 c 128,-1,21
 178 724 178 724 196.5 724 c 128,-1,22
 215 724 215 724 237 701 c 128,-1,23
 259 678 259 678 259 658.5 c 128,-1,24
 259 639 259 639 237 616 c 128,-1,25
 215 593 215 593 197 593 c 128,-1,26
 179 593 179 593 157 616 c 128,-1,19
 135 639 135 639 135 658 c 128,-1,20
324 658 m 128,-1,28
 324 677 324 677 345.5 700.5 c 128,-1,29
 367 724 367 724 385.5 724 c 128,-1,30
 404 724 404 724 426 701 c 128,-1,31
 448 678 448 678 448 658.5 c 128,-1,32
 448 639 448 639 426 616 c 128,-1,33
 404 593 404 593 386 593 c 128,-1,34
 368 593 368 593 346 616 c 128,-1,27
 324 639 324 639 324 658 c 128,-1,28
EndSplineSet
EndChar

StartChar: divide
Encoding: 247 247 183
Width: 621
GlyphClass: 2
Flags: W
LayerCount: 2
Fore
SplineSet
99 319 m 1,0,-1
 99 395 l 1,1,-1
 522 395 l 1,2,-1
 522 319 l 1,3,-1
 99 319 l 1,0,-1
248 523 m 128,-1,5
 248 542 248 542 269.5 565.5 c 128,-1,6
 291 589 291 589 309.5 589 c 128,-1,7
 328 589 328 589 350 566 c 128,-1,8
 372 543 372 543 372 523.5 c 128,-1,9
 372 504 372 504 350 481 c 128,-1,10
 328 458 328 458 310 458 c 128,-1,11
 292 458 292 458 270 481 c 128,-1,4
 248 504 248 504 248 523 c 128,-1,5
248 190 m 128,-1,13
 248 209 248 209 269.5 232.5 c 128,-1,14
 291 256 291 256 309.5 256 c 128,-1,15
 328 256 328 256 350 233 c 128,-1,16
 372 210 372 210 372 190.5 c 128,-1,17
 372 171 372 171 350 148 c 128,-1,18
 328 125 328 125 310 125 c 128,-1,19
 292 125 292 125 270 148 c 128,-1,12
 248 171 248 171 248 190 c 128,-1,13
EndSplineSet
EndChar

StartChar: oslash
Encoding: 248 248 184
Width: 578
GlyphClass: 2
Flags: W
LayerCount: 2
Fore
SplineSet
400 381 m 0,0,1
 386 415 386 415 358 436.5 c 128,-1,2
 330 458 330 458 292 458 c 0,3,4
 228 458 228 458 188.5 399.5 c 128,-1,5
 149 341 149 341 149 246.5 c 128,-1,6
 149 152 149 152 186 96 c 128,-1,7
 223 40 223 40 286 40 c 128,-1,8
 349 40 349 40 388.5 96.5 c 128,-1,9
 428 153 428 153 428 235 c 128,-1,10
 428 317 428 317 400 381 c 0,0,1
111 57 m 128,-1,12
 45 128 45 128 45 248.5 c 128,-1,13
 45 369 45 369 111 439.5 c 128,-1,14
 177 510 177 510 289 510 c 128,-1,15
 401 510 401 510 467 439.5 c 128,-1,16
 533 369 533 369 533 248.5 c 128,-1,17
 533 128 533 128 467 57 c 128,-1,18
 401 -14 401 -14 289 -14 c 128,-1,11
 177 -14 177 -14 111 57 c 128,-1,12
206 -68 m 1,19,-1
 153 -68 l 1,20,-1
 377 565 l 1,21,-1
 431 565 l 1,22,-1
 206 -68 l 1,19,-1
EndSplineSet
EndChar

StartChar: ugrave
Encoding: 249 249 185
Width: 614
GlyphClass: 2
Flags: W
LayerCount: 2
Fore
SplineSet
515 88 m 2,0,1
 515 57 515 57 544 57 c 0,2,3
 567 57 567 57 593 75 c 1,4,-1
 612 49 l 1,5,6
 589 21 589 21 558.5 3.5 c 128,-1,7
 528 -14 528 -14 502 -14 c 0,8,9
 425 -14 425 -14 425 82 c 1,10,11
 402 38 402 38 356.5 12 c 128,-1,12
 311 -14 311 -14 247.5 -14 c 128,-1,13
 184 -14 184 -14 143.5 29.5 c 128,-1,14
 103 73 103 73 103 152 c 2,15,-1
 103 402 l 2,16,17
 103 424 103 424 83 424 c 2,18,-1
 39 424 l 1,19,-1
 30 450 l 1,20,21
 56 476 56 476 93.5 493 c 128,-1,22
 131 510 131 510 154 510 c 0,23,24
 194 510 194 510 194 478 c 2,25,-1
 194 175 l 2,26,27
 194 53 194 53 290 53 c 0,28,29
 357 53 357 53 394.5 111 c 128,-1,30
 432 169 432 169 432 257 c 128,-1,31
 432 345 432 345 423.5 386.5 c 128,-1,32
 415 428 415 428 393 466 c 1,33,-1
 381 482 l 1,34,-1
 393 497 l 1,35,-1
 515 510 l 1,36,-1
 515 88 l 2,0,1
255 625 m 2,37,38
 199 652 199 652 199 696 c 128,-1,39
 199 740 199 740 241 760 c 1,40,-1
 397 604 l 1,41,-1
 368 569 l 1,42,-1
 255 625 l 2,37,38
EndSplineSet
EndChar

StartChar: uacute
Encoding: 250 250 186
Width: 614
GlyphClass: 2
Flags: W
LayerCount: 2
Fore
SplineSet
515 88 m 2,0,1
 515 57 515 57 544 57 c 0,2,3
 567 57 567 57 593 75 c 1,4,-1
 612 49 l 1,5,6
 589 21 589 21 558.5 3.5 c 128,-1,7
 528 -14 528 -14 502 -14 c 0,8,9
 425 -14 425 -14 425 82 c 1,10,11
 402 38 402 38 356.5 12 c 128,-1,12
 311 -14 311 -14 247.5 -14 c 128,-1,13
 184 -14 184 -14 143.5 29.5 c 128,-1,14
 103 73 103 73 103 152 c 2,15,-1
 103 402 l 2,16,17
 103 424 103 424 83 424 c 2,18,-1
 39 424 l 1,19,-1
 30 450 l 1,20,21
 56 476 56 476 93.5 493 c 128,-1,22
 131 510 131 510 154 510 c 0,23,24
 194 510 194 510 194 478 c 2,25,-1
 194 175 l 2,26,27
 194 53 194 53 290 53 c 0,28,29
 357 53 357 53 394.5 111 c 128,-1,30
 432 169 432 169 432 257 c 128,-1,31
 432 345 432 345 423.5 386.5 c 128,-1,32
 415 428 415 428 393 466 c 1,33,-1
 381 482 l 1,34,-1
 393 497 l 1,35,-1
 515 510 l 1,36,-1
 515 88 l 2,0,1
392 760 m 1,37,38
 434 740 434 740 434 696 c 128,-1,39
 434 652 434 652 378 625 c 2,40,-1
 265 569 l 1,41,-1
 236 604 l 1,42,-1
 392 760 l 1,37,38
EndSplineSet
EndChar

StartChar: ucircumflex
Encoding: 251 251 187
Width: 614
GlyphClass: 2
Flags: W
LayerCount: 2
Fore
SplineSet
515 88 m 2,0,1
 515 57 515 57 544 57 c 0,2,3
 567 57 567 57 593 75 c 1,4,-1
 612 49 l 1,5,6
 589 21 589 21 558.5 3.5 c 128,-1,7
 528 -14 528 -14 502 -14 c 0,8,9
 425 -14 425 -14 425 82 c 1,10,11
 402 38 402 38 356.5 12 c 128,-1,12
 311 -14 311 -14 247.5 -14 c 128,-1,13
 184 -14 184 -14 143.5 29.5 c 128,-1,14
 103 73 103 73 103 152 c 2,15,-1
 103 402 l 2,16,17
 103 424 103 424 83 424 c 2,18,-1
 39 424 l 1,19,-1
 30 450 l 1,20,21
 56 476 56 476 93.5 493 c 128,-1,22
 131 510 131 510 154 510 c 0,23,24
 194 510 194 510 194 478 c 2,25,-1
 194 175 l 2,26,27
 194 53 194 53 290 53 c 0,28,29
 357 53 357 53 394.5 111 c 128,-1,30
 432 169 432 169 432 257 c 128,-1,31
 432 345 432 345 423.5 386.5 c 128,-1,32
 415 428 415 428 393 466 c 1,33,-1
 381 482 l 1,34,-1
 393 497 l 1,35,-1
 515 510 l 1,36,-1
 515 88 l 2,0,1
294 755 m 1,37,-1
 321 755 l 1,38,39
 339 744 339 744 376 698 c 128,-1,40
 413 652 413 652 444 597 c 1,41,-1
 412 569 l 1,42,-1
 307 652 l 1,43,-1
 203 569 l 1,44,-1
 170 597 l 1,45,46
 202 653 202 653 238 698 c 128,-1,47
 274 743 274 743 294 755 c 1,37,-1
EndSplineSet
EndChar

StartChar: udieresis
Encoding: 252 252 188
Width: 614
GlyphClass: 2
Flags: W
LayerCount: 2
Fore
SplineSet
515 88 m 2,0,1
 515 57 515 57 544 57 c 0,2,3
 567 57 567 57 593 75 c 1,4,-1
 612 49 l 1,5,6
 589 21 589 21 558.5 3.5 c 128,-1,7
 528 -14 528 -14 502 -14 c 0,8,9
 425 -14 425 -14 425 82 c 1,10,11
 402 38 402 38 356.5 12 c 128,-1,12
 311 -14 311 -14 247.5 -14 c 128,-1,13
 184 -14 184 -14 143.5 29.5 c 128,-1,14
 103 73 103 73 103 152 c 2,15,-1
 103 402 l 2,16,17
 103 424 103 424 83 424 c 2,18,-1
 39 424 l 1,19,-1
 30 450 l 1,20,21
 56 476 56 476 93.5 493 c 128,-1,22
 131 510 131 510 154 510 c 0,23,24
 194 510 194 510 194 478 c 2,25,-1
 194 175 l 2,26,27
 194 53 194 53 290 53 c 0,28,29
 357 53 357 53 394.5 111 c 128,-1,30
 432 169 432 169 432 257 c 128,-1,31
 432 345 432 345 423.5 386.5 c 128,-1,32
 415 428 415 428 393 466 c 1,33,-1
 381 482 l 1,34,-1
 393 497 l 1,35,-1
 515 510 l 1,36,-1
 515 88 l 2,0,1
150 658 m 128,-1,38
 150 677 150 677 171.5 700.5 c 128,-1,39
 193 724 193 724 211.5 724 c 128,-1,40
 230 724 230 724 252 701 c 128,-1,41
 274 678 274 678 274 658.5 c 128,-1,42
 274 639 274 639 252 616 c 128,-1,43
 230 593 230 593 212 593 c 128,-1,44
 194 593 194 593 172 616 c 128,-1,37
 150 639 150 639 150 658 c 128,-1,38
339 658 m 128,-1,46
 339 677 339 677 360.5 700.5 c 128,-1,47
 382 724 382 724 400.5 724 c 128,-1,48
 419 724 419 724 441 701 c 128,-1,49
 463 678 463 678 463 658.5 c 128,-1,50
 463 639 463 639 441 616 c 128,-1,51
 419 593 419 593 401 593 c 128,-1,52
 383 593 383 593 361 616 c 128,-1,45
 339 639 339 639 339 658 c 128,-1,46
EndSplineSet
EndChar

StartChar: yacute
Encoding: 253 253 189
Width: 610
GlyphClass: 2
Flags: W
LayerCount: 2
Fore
SplineSet
291 -278 m 0,0,1
 209 -278 209 -278 164.5 -235.5 c 128,-1,2
 120 -193 120 -193 120 -139 c 128,-1,3
 120 -85 120 -85 154 -49.5 c 128,-1,4
 188 -14 188 -14 247 -14 c 0,5,6
 266 -14 266 -14 266 -25 c 0,7,8
 266 -29 266 -29 254 -41 c 128,-1,9
 242 -53 242 -53 229.5 -77 c 128,-1,10
 217 -101 217 -101 217 -137 c 128,-1,11
 217 -173 217 -173 240.5 -199.5 c 128,-1,12
 264 -226 264 -226 304 -226 c 0,13,14
 366 -226 366 -226 395 -175 c 128,-1,15
 424 -124 424 -124 424 -38 c 2,16,-1
 424 110 l 1,17,18
 401 66 401 66 355 40.5 c 128,-1,19
 309 15 309 15 246 15 c 128,-1,20
 183 15 183 15 143 58.5 c 128,-1,21
 103 102 103 102 103 181 c 2,22,-1
 103 403 l 2,23,24
 103 425 103 425 83 425 c 2,25,-1
 39 425 l 1,26,-1
 30 451 l 1,27,28
 56 477 56 477 93.5 494 c 128,-1,29
 131 511 131 511 154 511 c 0,30,31
 194 511 194 511 194 479 c 2,32,-1
 194 204 l 2,33,34
 194 82 194 82 288 82 c 0,35,36
 355 82 355 82 392.5 132.5 c 128,-1,37
 430 183 430 183 430 268.5 c 128,-1,38
 430 354 430 354 423 394 c 128,-1,39
 416 434 416 434 391 467 c 2,40,-1
 379 483 l 1,41,-1
 391 498 l 1,42,-1
 513 511 l 1,43,-1
 513 -22 l 2,44,45
 513 -145 513 -145 453.5 -211.5 c 128,-1,46
 394 -278 394 -278 291 -278 c 0,0,1
392 760 m 1,47,48
 434 740 434 740 434 696 c 128,-1,49
 434 652 434 652 378 625 c 2,50,-1
 265 569 l 1,51,-1
 236 604 l 1,52,-1
 392 760 l 1,47,48
EndSplineSet
EndChar

StartChar: thorn
Encoding: 254 254 190
Width: 595
GlyphClass: 2
Flags: W
LayerCount: 2
Fore
SplineSet
193 736 m 2,0,-1
 193 447 l 1,1,2
 258 510 258 510 344.5 510 c 128,-1,3
 431 510 431 510 490.5 442.5 c 128,-1,4
 550 375 550 375 550 260.5 c 128,-1,5
 550 146 550 146 487.5 66 c 128,-1,6
 425 -14 425 -14 330 -14 c 0,7,8
 270 -14 270 -14 230 13 c 0,9,10
 221 19 221 19 221 31 c 0,11,12
 221 56 221 56 236 56 c 0,13,14
 237 56 237 56 258.5 48 c 128,-1,15
 280 40 280 40 307 40 c 0,16,17
 367 40 367 40 405.5 99 c 128,-1,18
 444 158 444 158 444 246.5 c 128,-1,19
 444 335 444 335 405.5 389.5 c 128,-1,20
 367 444 367 444 305.5 444 c 128,-1,21
 244 444 244 444 193 405 c 1,22,-1
 193 -155 l 2,23,24
 193 -193 193 -193 201.5 -208.5 c 128,-1,25
 210 -224 210 -224 235 -230 c 2,26,-1
 256 -235 l 1,27,-1
 245 -266 l 1,28,-1
 71 -266 l 1,29,-1
 59 -251 l 1,30,-1
 71 -235 l 1,31,32
 103 -190 103 -190 103 -106 c 2,33,-1
 103 665 l 2,34,35
 103 693 103 693 82 698 c 2,36,-1
 30 709 l 1,37,-1
 30 742 l 1,38,39
 46 756 46 756 91 769 c 128,-1,40
 136 782 136 782 169 782 c 0,41,42
 193 782 193 782 193 736 c 2,0,-1
EndSplineSet
EndChar

StartChar: ydieresis
Encoding: 255 255 191
Width: 610
GlyphClass: 2
Flags: W
LayerCount: 2
Fore
SplineSet
291 -278 m 0,0,1
 209 -278 209 -278 164.5 -235.5 c 128,-1,2
 120 -193 120 -193 120 -139 c 128,-1,3
 120 -85 120 -85 154 -49.5 c 128,-1,4
 188 -14 188 -14 247 -14 c 0,5,6
 266 -14 266 -14 266 -25 c 0,7,8
 266 -29 266 -29 254 -41 c 128,-1,9
 242 -53 242 -53 229.5 -77 c 128,-1,10
 217 -101 217 -101 217 -137 c 128,-1,11
 217 -173 217 -173 240.5 -199.5 c 128,-1,12
 264 -226 264 -226 304 -226 c 0,13,14
 366 -226 366 -226 395 -175 c 128,-1,15
 424 -124 424 -124 424 -38 c 2,16,-1
 424 110 l 1,17,18
 401 66 401 66 355 40.5 c 128,-1,19
 309 15 309 15 246 15 c 128,-1,20
 183 15 183 15 143 58.5 c 128,-1,21
 103 102 103 102 103 181 c 2,22,-1
 103 403 l 2,23,24
 103 425 103 425 83 425 c 2,25,-1
 39 425 l 1,26,-1
 30 451 l 1,27,28
 56 477 56 477 93.5 494 c 128,-1,29
 131 511 131 511 154 511 c 0,30,31
 194 511 194 511 194 479 c 2,32,-1
 194 204 l 2,33,34
 194 82 194 82 288 82 c 0,35,36
 355 82 355 82 392.5 132.5 c 128,-1,37
 430 183 430 183 430 268.5 c 128,-1,38
 430 354 430 354 423 394 c 128,-1,39
 416 434 416 434 391 467 c 2,40,-1
 379 483 l 1,41,-1
 391 498 l 1,42,-1
 513 511 l 1,43,-1
 513 -22 l 2,44,45
 513 -145 513 -145 453.5 -211.5 c 128,-1,46
 394 -278 394 -278 291 -278 c 0,0,1
148 658 m 128,-1,48
 148 677 148 677 169.5 700.5 c 128,-1,49
 191 724 191 724 209.5 724 c 128,-1,50
 228 724 228 724 250 701 c 128,-1,51
 272 678 272 678 272 658.5 c 128,-1,52
 272 639 272 639 250 616 c 128,-1,53
 228 593 228 593 210 593 c 128,-1,54
 192 593 192 593 170 616 c 128,-1,47
 148 639 148 639 148 658 c 128,-1,48
337 658 m 128,-1,56
 337 677 337 677 358.5 700.5 c 128,-1,57
 380 724 380 724 398.5 724 c 128,-1,58
 417 724 417 724 439 701 c 128,-1,59
 461 678 461 678 461 658.5 c 128,-1,60
 461 639 461 639 439 616 c 128,-1,61
 417 593 417 593 399 593 c 128,-1,62
 381 593 381 593 359 616 c 128,-1,55
 337 639 337 639 337 658 c 128,-1,56
EndSplineSet
EndChar

StartChar: dotlessi
Encoding: 305 305 192
Width: 312
GlyphClass: 2
Flags: W
LayerCount: 2
Fore
SplineSet
228 54 m 0,0,1
 252 54 252 54 278 75 c 1,2,-1
 297 49 l 1,3,4
 240 -14 240 -14 185 -14 c 0,5,6
 144 -14 144 -14 126 11 c 128,-1,7
 108 36 108 36 108 92 c 2,8,-1
 108 402 l 2,9,10
 108 424 108 424 88 424 c 2,11,-1
 44 424 l 1,12,-1
 35 450 l 1,13,14
 64 476 64 476 101 493 c 128,-1,15
 138 510 138 510 160 510 c 0,16,17
 199 510 199 510 199 478 c 2,18,-1
 198 88 l 2,19,20
 198 54 198 54 228 54 c 0,0,1
EndSplineSet
EndChar

StartChar: Lslash
Encoding: 321 321 193
Width: 550
GlyphClass: 2
Flags: W
LayerCount: 2
Fore
SplineSet
226 517 m 2,0,-1
 226 133 l 2,1,2
 226 87 226 87 238.5 72 c 128,-1,3
 251 57 251 57 290 57 c 2,4,-1
 377 57 l 2,5,6
 430 57 430 57 451 74.5 c 128,-1,7
 472 92 472 92 486 146 c 2,8,-1
 492 169 l 1,9,-1
 526 157 l 1,10,-1
 526 -14 l 1,11,-1
 506 -25 l 1,12,-1
 498 -14 l 2,13,14
 487 0 487 0 456 0 c 2,15,-1
 56 0 l 1,16,-1
 45 32 l 1,17,-1
 66 38 l 2,18,19
 103 49 103 49 115 66 c 128,-1,20
 127 83 127 83 127 126 c 2,21,-1
 127 585 l 2,22,23
 127 631 127 631 114 649 c 128,-1,24
 101 667 101 667 63 678 c 1,25,-1
 40 684 l 1,26,-1
 52 718 l 1,27,-1
 271 718 l 1,28,-1
 284 702 l 1,29,-1
 271 684 l 2,30,31
 246 651 246 651 236 614 c 128,-1,32
 226 577 226 577 226 517 c 2,0,-1
305 384 m 2,33,-1
 25 244 l 1,34,35
 25 288 25 288 29.5 307.5 c 128,-1,36
 34 327 34 327 49 334 c 2,37,-1
 329 474 l 1,38,39
 329 430 329 430 324.5 410.5 c 128,-1,40
 320 391 320 391 305 384 c 2,33,-1
EndSplineSet
EndChar

StartChar: lslash
Encoding: 322 322 194
Width: 302
GlyphClass: 2
Flags: W
LayerCount: 2
Fore
SplineSet
218 54 m 0,0,1
 242 54 242 54 268 75 c 1,2,-1
 287 49 l 1,3,4
 230 -14 230 -14 175 -14 c 0,5,6
 134 -14 134 -14 116 11 c 128,-1,7
 98 36 98 36 98 92 c 2,8,-1
 98 674 l 2,9,10
 98 696 98 696 78 696 c 2,11,-1
 34 696 l 1,12,-1
 25 722 l 1,13,14
 54 748 54 748 91 765 c 128,-1,15
 128 782 128 782 150 782 c 0,16,17
 189 782 189 782 189 750 c 2,18,-1
 188 88 l 2,19,20
 188 54 188 54 218 54 c 0,0,1
275 384 m 2,21,-1
 -5 244 l 1,22,23
 -5 288 -5 288 -0.5 307.5 c 128,-1,24
 4 327 4 327 19 334 c 2,25,-1
 299 474 l 1,26,27
 299 430 299 430 294.5 410.5 c 128,-1,28
 290 391 290 391 275 384 c 2,21,-1
EndSplineSet
EndChar

StartChar: OE
Encoding: 338 338 195
Width: 956
GlyphClass: 2
Flags: W
LayerCount: 2
Fore
SplineSet
366 718 m 2,0,-1
 734 718 l 2,1,2
 820 718 820 718 848 739 c 2,3,-1
 866 752 l 1,4,-1
 882 739 l 1,5,-1
 882 561 l 1,6,-1
 848 549 l 1,7,-1
 842 572 l 2,8,9
 828 626 828 626 807 643.5 c 128,-1,10
 786 661 786 661 733 661 c 2,11,-1
 636 661 l 2,12,13
 597 661 597 661 584.5 646 c 128,-1,14
 572 631 572 631 572 585 c 2,15,-1
 572 393 l 1,16,-1
 699 393 l 2,17,18
 745 393 745 393 778 439 c 2,19,-1
 786 450 l 1,20,-1
 806 439 l 1,21,-1
 806 268 l 1,22,-1
 772 256 l 1,23,-1
 766 279 l 2,24,25
 757 313 757 313 734.5 324.5 c 128,-1,26
 712 336 712 336 657 336 c 2,27,-1
 572 336 l 1,28,-1
 572 133 l 2,29,30
 572 87 572 87 584.5 72 c 128,-1,31
 597 57 597 57 636 57 c 2,32,-1
 744 57 l 2,33,34
 797 57 797 57 818 74.5 c 128,-1,35
 839 92 839 92 853 146 c 2,36,-1
 859 169 l 1,37,-1
 893 157 l 1,38,-1
 893 -14 l 1,39,-1
 873 -25 l 1,40,-1
 865 -14 l 2,41,42
 854 0 854 0 823 0 c 2,43,-1
 366 0 l 2,44,45
 205 0 205 0 120 100.5 c 128,-1,46
 35 201 35 201 35 358 c 128,-1,47
 35 515 35 515 120 616.5 c 128,-1,48
 205 718 205 718 366 718 c 2,0,-1
375 45 m 0,49,50
 429 45 429 45 473 70 c 1,51,-1
 473 633 l 1,52,53
 419 674 419 674 358.5 674 c 128,-1,54
 298 674 298 674 255 646.5 c 128,-1,55
 212 619 212 619 188 572 c 0,56,57
 143 481 143 481 143 352.5 c 128,-1,58
 143 224 143 224 206 134.5 c 128,-1,59
 269 45 269 45 375 45 c 0,49,50
EndSplineSet
EndChar

StartChar: oe
Encoding: 339 339 196
Width: 914
GlyphClass: 2
Flags: W
LayerCount: 2
Fore
SplineSet
400 381 m 0,0,1
 386 415 386 415 358 436.5 c 128,-1,2
 330 458 330 458 292 458 c 0,3,4
 228 458 228 458 188.5 399.5 c 128,-1,5
 149 341 149 341 149 246.5 c 128,-1,6
 149 152 149 152 186 96 c 128,-1,7
 223 40 223 40 286 40 c 128,-1,8
 349 40 349 40 388.5 96.5 c 128,-1,9
 428 153 428 153 428 235 c 128,-1,10
 428 317 428 317 400 381 c 0,0,1
111 57 m 128,-1,12
 45 128 45 128 45 248.5 c 128,-1,13
 45 369 45 369 111 439.5 c 128,-1,14
 177 510 177 510 289 510 c 128,-1,15
 401 510 401 510 467 439.5 c 128,-1,16
 533 369 533 369 533 248.5 c 128,-1,17
 533 128 533 128 467 57 c 128,-1,18
 401 -14 401 -14 289 -14 c 128,-1,11
 177 -14 177 -14 111 57 c 128,-1,12
660 -14 m 0,19,20
 555 -14 555 -14 492.5 56 c 128,-1,21
 430 126 430 126 430 244.5 c 128,-1,22
 430 363 430 363 501 436.5 c 128,-1,23
 572 510 572 510 689 510 c 0,24,25
 771 510 771 510 815 467 c 128,-1,26
 859 424 859 424 859 360 c 128,-1,27
 859 296 859 296 807.5 245 c 128,-1,28
 756 194 756 194 668 194 c 0,29,30
 636 194 636 194 597 206 c 128,-1,31
 558 218 558 218 558 241 c 0,32,33
 558 249 558 249 562.5 256 c 128,-1,34
 567 263 567 263 570.5 263 c 128,-1,35
 574 263 574 263 593.5 256.5 c 128,-1,36
 613 250 613 250 637 250 c 0,37,38
 697 250 697 250 730.5 284 c 128,-1,39
 764 318 764 318 764 360.5 c 128,-1,40
 764 403 764 403 739 431.5 c 128,-1,41
 714 460 714 460 669 460 c 0,42,43
 605 460 605 460 569 403.5 c 128,-1,44
 533 347 533 347 533 250 c 128,-1,45
 533 153 533 153 571 102.5 c 128,-1,46
 609 52 609 52 689 52 c 128,-1,47
 769 52 769 52 827 109 c 0,48,49
 831 113 831 113 837.5 113 c 128,-1,50
 844 113 844 113 853 103.5 c 128,-1,51
 862 94 862 94 862 86.5 c 128,-1,52
 862 79 862 79 858 75 c 0,53,54
 781 -14 781 -14 660 -14 c 0,19,20
EndSplineSet
EndChar

StartChar: Scaron
Encoding: 352 352 197
Width: 572
GlyphClass: 2
Flags: W
LayerCount: 2
Fore
SplineSet
188 75 m 128,-1,1
 228 42 228 42 289 42 c 128,-1,2
 350 42 350 42 385.5 72 c 128,-1,3
 421 102 421 102 421 148 c 128,-1,4
 421 194 421 194 401 224.5 c 128,-1,5
 381 255 381 255 349.5 274 c 128,-1,6
 318 293 318 293 279.5 310.5 c 128,-1,7
 241 328 241 328 202.5 347 c 128,-1,8
 164 366 164 366 132.5 389.5 c 128,-1,9
 101 413 101 413 81 451 c 128,-1,10
 61 489 61 489 61 538 c 0,11,12
 61 618 61 618 117.5 675 c 128,-1,13
 174 732 174 732 276 732 c 128,-1,14
 378 732 378 732 441 691 c 128,-1,15
 504 650 504 650 504 585 c 0,16,17
 504 534 504 534 473.5 501 c 128,-1,18
 443 468 443 468 397 468 c 0,19,20
 376 468 376 468 376 480 c 0,21,22
 376 483 376 483 384 494 c 0,23,24
 406 529 406 529 406 573.5 c 128,-1,25
 406 618 406 618 371 647 c 128,-1,26
 336 676 336 676 278 676 c 128,-1,27
 220 676 220 676 188 642.5 c 128,-1,28
 156 609 156 609 156 567.5 c 128,-1,29
 156 526 156 526 176 498.5 c 128,-1,30
 196 471 196 471 228.5 452.5 c 128,-1,31
 261 434 261 434 300 416.5 c 128,-1,32
 339 399 339 399 378 379 c 128,-1,33
 417 359 417 359 449.5 334.5 c 128,-1,34
 482 310 482 310 502 270.5 c 128,-1,35
 522 231 522 231 522 181 c 0,36,37
 522 92 522 92 462.5 39 c 128,-1,38
 403 -14 403 -14 293 -14 c 128,-1,39
 183 -14 183 -14 114 31 c 128,-1,40
 45 76 45 76 45 147 c 0,41,42
 45 198 45 198 77.5 231 c 128,-1,43
 110 264 110 264 159 264 c 0,44,45
 180 264 180 264 180 252 c 0,46,47
 180 250 180 250 172 238 c 0,48,49
 148 204 148 204 148 156 c 128,-1,0
 148 108 148 108 188 75 c 128,-1,1
306 799 m 1,50,-1
 279 799 l 1,51,52
 259 811 259 811 223 856 c 128,-1,53
 187 901 187 901 155 957 c 1,54,-1
 188 985 l 1,55,-1
 292 901 l 1,56,-1
 397 985 l 1,57,-1
 429 957 l 1,58,59
 398 902 398 902 361 856 c 128,-1,60
 324 810 324 810 306 799 c 1,50,-1
EndSplineSet
EndChar

